M48
; DRILL file {KiCad 8.0.0} date 2024-07-22T23:55:18-0300
; FORMAT={-:-/ absolute / metric / decimal}
; #@! TF.CreationDate,2024-07-22T23:55:18-03:00
; #@! TF.GenerationSoftware,Kicad,Pcbnew,8.0.0
; #@! TF.FileFunction,Plated,1,2,PTH
FMAT,2
METRIC
; #@! TA.AperFunction,Plated,PTH,ComponentDrill
T1C0.800
; #@! TA.AperFunction,Plated,PTH,ComponentDrill
T2C0.900
; #@! TA.AperFunction,Plated,PTH,ComponentDrill
T3C1.000
; #@! TA.AperFunction,Plated,PTH,ComponentDrill
T4C1.100
%
G90
G05
T1
X127.254Y-133.35
X127.254Y-143.51
X132.426Y-104.244
X134.926Y-104.244
X135.89Y-84.074
X135.89Y-94.234
X141.986Y-119.126
X141.986Y-121.666
X141.986Y-124.206
X141.986Y-126.746
X144.018Y-95.504
X144.018Y-100.33
X144.526Y-119.126
X144.526Y-121.666
X144.526Y-124.206
X144.526Y-126.746
X152.908Y-69.342
X152.908Y-79.502
X154.178Y-95.504
X154.178Y-100.33
X161.798Y-95.504
X164.298Y-95.504
X178.308Y-94.864
X188.468Y-94.864
T2
X134.112Y-136.647
X134.112Y-139.187
X177.896Y-142.32
X177.896Y-144.82
X177.896Y-147.32
X183.896Y-142.32
X183.896Y-144.82
X183.896Y-147.32
X197.871Y-81.529
X200.411Y-81.529
T3
X121.158Y-97.536
X123.698Y-97.536
X125.76Y-73.406
X125.76Y-75.946
X125.76Y-78.486
X125.76Y-81.026
X125.76Y-83.566
X125.76Y-86.106
X125.76Y-88.646
X125.76Y-91.186
X126.238Y-97.536
X128.778Y-97.536
X144.018Y-84.074
X144.018Y-90.678
X144.018Y-105.918
X144.018Y-111.882
X146.558Y-84.074
X146.558Y-90.678
X146.558Y-105.918
X146.558Y-111.882
X149.098Y-84.074
X149.098Y-90.678
X149.098Y-105.918
X149.098Y-111.882
X149.46Y-65.87
X151.638Y-84.074
X151.638Y-90.678
X151.638Y-105.918
X151.638Y-111.882
X152.0Y-65.87
X154.178Y-84.074
X154.178Y-90.678
X154.178Y-105.918
X154.178Y-111.882
X154.54Y-65.87
X154.661Y-123.215
X156.718Y-84.074
X156.718Y-90.678
X156.718Y-105.918
X156.718Y-111.882
X157.08Y-65.87
X157.201Y-123.215
X159.258Y-84.074
X159.258Y-90.678
X159.258Y-105.918
X159.258Y-111.882
X159.62Y-65.87
X159.741Y-123.215
X161.798Y-84.074
X161.798Y-90.678
X161.798Y-105.918
X161.798Y-111.882
X162.16Y-65.87
X162.281Y-123.215
X164.338Y-84.074
X164.338Y-90.678
X164.338Y-105.918
X164.338Y-111.882
X164.7Y-65.87
X164.821Y-123.215
X166.878Y-84.074
X166.878Y-90.678
X166.878Y-105.918
X166.878Y-111.882
X167.24Y-65.87
X167.361Y-123.215
X169.418Y-84.074
X169.418Y-90.678
X169.418Y-105.918
X169.418Y-111.882
X169.78Y-65.87
X171.958Y-84.074
X171.958Y-90.678
X171.958Y-105.918
X171.958Y-111.882
X172.32Y-65.87
X174.498Y-84.074
X174.498Y-90.678
X174.498Y-105.918
X174.498Y-111.882
X177.038Y-84.074
X177.038Y-90.678
X177.038Y-105.918
X177.038Y-111.882
X179.578Y-84.074
X179.578Y-90.678
X179.578Y-105.918
X179.578Y-111.882
X182.118Y-84.074
X182.118Y-90.678
X182.118Y-105.918
X182.118Y-111.882
X184.658Y-84.074
X184.658Y-90.678
X184.658Y-105.918
X184.658Y-111.882
X187.198Y-84.074
X187.198Y-90.678
X187.198Y-105.918
X187.198Y-111.882
X188.169Y-74.173
X189.738Y-84.074
X189.738Y-90.678
X189.738Y-105.918
X189.738Y-111.882
X190.709Y-74.173
X191.008Y-141.478
X191.008Y-145.796
X191.77Y-121.152
X191.77Y-136.652
X192.278Y-84.074
X192.278Y-90.678
X192.278Y-105.918
X192.278Y-111.882
X201.27Y-121.152
X201.27Y-136.652
T4
X123.008Y-104.244
X123.008Y-110.744
X127.508Y-104.244
X127.508Y-110.744
X144.526Y-70.208
X144.526Y-76.708
X149.026Y-70.208
X149.026Y-76.708
X183.388Y-121.412
X183.388Y-123.952
X183.388Y-126.492
M30
