%TF.GenerationSoftware,KiCad,Pcbnew,8.0.0*%
%TF.CreationDate,2024-07-22T23:58:40-03:00*%
%TF.ProjectId,PCB_Micro,5043425f-4d69-4637-926f-2e6b69636164,rev?*%
%TF.SameCoordinates,Original*%
%TF.FileFunction,Legend,Top*%
%TF.FilePolarity,Positive*%
%FSLAX46Y46*%
G04 Gerber Fmt 4.6, Leading zero omitted, Abs format (unit mm)*
G04 Created by KiCad (PCBNEW 8.0.0) date 2024-07-22 23:58:40*
%MOMM*%
%LPD*%
G01*
G04 APERTURE LIST*
%ADD10C,0.150000*%
%ADD11C,0.120000*%
%ADD12C,0.127000*%
%ADD13C,0.200000*%
%TA.AperFunction,Profile*%
%ADD14C,0.100000*%
%TD*%
G04 APERTURE END LIST*
D10*
X180971819Y-126144983D02*
X180971819Y-126621173D01*
X180971819Y-126621173D02*
X179971819Y-126621173D01*
X180971819Y-125811649D02*
X179971819Y-125811649D01*
X179971819Y-125811649D02*
X180686104Y-125478316D01*
X180686104Y-125478316D02*
X179971819Y-125144983D01*
X179971819Y-125144983D02*
X180971819Y-125144983D01*
X180971819Y-124144983D02*
X180971819Y-124716411D01*
X180971819Y-124430697D02*
X179971819Y-124430697D01*
X179971819Y-124430697D02*
X180114676Y-124525935D01*
X180114676Y-124525935D02*
X180209914Y-124621173D01*
X180209914Y-124621173D02*
X180257533Y-124716411D01*
X180971819Y-123192602D02*
X180971819Y-123764030D01*
X180971819Y-123478316D02*
X179971819Y-123478316D01*
X179971819Y-123478316D02*
X180114676Y-123573554D01*
X180114676Y-123573554D02*
X180209914Y-123668792D01*
X180209914Y-123668792D02*
X180257533Y-123764030D01*
X180971819Y-122240221D02*
X180971819Y-122811649D01*
X180971819Y-122525935D02*
X179971819Y-122525935D01*
X179971819Y-122525935D02*
X180114676Y-122621173D01*
X180114676Y-122621173D02*
X180209914Y-122716411D01*
X180209914Y-122716411D02*
X180257533Y-122811649D01*
X179971819Y-121906887D02*
X179971819Y-121240221D01*
X179971819Y-121240221D02*
X180971819Y-121668792D01*
X188503160Y-71466104D02*
X188979350Y-71466104D01*
X188407922Y-71751819D02*
X188741255Y-70751819D01*
X188741255Y-70751819D02*
X189074588Y-71751819D01*
X189407922Y-70751819D02*
X189407922Y-71561342D01*
X189407922Y-71561342D02*
X189455541Y-71656580D01*
X189455541Y-71656580D02*
X189503160Y-71704200D01*
X189503160Y-71704200D02*
X189598398Y-71751819D01*
X189598398Y-71751819D02*
X189788874Y-71751819D01*
X189788874Y-71751819D02*
X189884112Y-71704200D01*
X189884112Y-71704200D02*
X189931731Y-71656580D01*
X189931731Y-71656580D02*
X189979350Y-71561342D01*
X189979350Y-71561342D02*
X189979350Y-70751819D01*
X190360303Y-70751819D02*
X191026969Y-71751819D01*
X191026969Y-70751819D02*
X190360303Y-71751819D01*
X186169541Y-76339819D02*
X186788588Y-76339819D01*
X186788588Y-76339819D02*
X186455255Y-76720771D01*
X186455255Y-76720771D02*
X186598112Y-76720771D01*
X186598112Y-76720771D02*
X186693350Y-76768390D01*
X186693350Y-76768390D02*
X186740969Y-76816009D01*
X186740969Y-76816009D02*
X186788588Y-76911247D01*
X186788588Y-76911247D02*
X186788588Y-77149342D01*
X186788588Y-77149342D02*
X186740969Y-77244580D01*
X186740969Y-77244580D02*
X186693350Y-77292200D01*
X186693350Y-77292200D02*
X186598112Y-77339819D01*
X186598112Y-77339819D02*
X186312398Y-77339819D01*
X186312398Y-77339819D02*
X186217160Y-77292200D01*
X186217160Y-77292200D02*
X186169541Y-77244580D01*
X187074303Y-76339819D02*
X187407636Y-77339819D01*
X187407636Y-77339819D02*
X187740969Y-76339819D01*
X187979065Y-76339819D02*
X188598112Y-76339819D01*
X188598112Y-76339819D02*
X188264779Y-76720771D01*
X188264779Y-76720771D02*
X188407636Y-76720771D01*
X188407636Y-76720771D02*
X188502874Y-76768390D01*
X188502874Y-76768390D02*
X188550493Y-76816009D01*
X188550493Y-76816009D02*
X188598112Y-76911247D01*
X188598112Y-76911247D02*
X188598112Y-77149342D01*
X188598112Y-77149342D02*
X188550493Y-77244580D01*
X188550493Y-77244580D02*
X188502874Y-77292200D01*
X188502874Y-77292200D02*
X188407636Y-77339819D01*
X188407636Y-77339819D02*
X188121922Y-77339819D01*
X188121922Y-77339819D02*
X188026684Y-77292200D01*
X188026684Y-77292200D02*
X187979065Y-77244580D01*
X194926009Y-142077887D02*
X194973628Y-141935030D01*
X194973628Y-141935030D02*
X195021247Y-141887411D01*
X195021247Y-141887411D02*
X195116485Y-141839792D01*
X195116485Y-141839792D02*
X195259342Y-141839792D01*
X195259342Y-141839792D02*
X195354580Y-141887411D01*
X195354580Y-141887411D02*
X195402200Y-141935030D01*
X195402200Y-141935030D02*
X195449819Y-142030268D01*
X195449819Y-142030268D02*
X195449819Y-142411220D01*
X195449819Y-142411220D02*
X194449819Y-142411220D01*
X194449819Y-142411220D02*
X194449819Y-142077887D01*
X194449819Y-142077887D02*
X194497438Y-141982649D01*
X194497438Y-141982649D02*
X194545057Y-141935030D01*
X194545057Y-141935030D02*
X194640295Y-141887411D01*
X194640295Y-141887411D02*
X194735533Y-141887411D01*
X194735533Y-141887411D02*
X194830771Y-141935030D01*
X194830771Y-141935030D02*
X194878390Y-141982649D01*
X194878390Y-141982649D02*
X194926009Y-142077887D01*
X194926009Y-142077887D02*
X194926009Y-142411220D01*
X195449819Y-140982649D02*
X194926009Y-140982649D01*
X194926009Y-140982649D02*
X194830771Y-141030268D01*
X194830771Y-141030268D02*
X194783152Y-141125506D01*
X194783152Y-141125506D02*
X194783152Y-141315982D01*
X194783152Y-141315982D02*
X194830771Y-141411220D01*
X195402200Y-140982649D02*
X195449819Y-141077887D01*
X195449819Y-141077887D02*
X195449819Y-141315982D01*
X195449819Y-141315982D02*
X195402200Y-141411220D01*
X195402200Y-141411220D02*
X195306961Y-141458839D01*
X195306961Y-141458839D02*
X195211723Y-141458839D01*
X195211723Y-141458839D02*
X195116485Y-141411220D01*
X195116485Y-141411220D02*
X195068866Y-141315982D01*
X195068866Y-141315982D02*
X195068866Y-141077887D01*
X195068866Y-141077887D02*
X195021247Y-140982649D01*
X194783152Y-140649315D02*
X194783152Y-140268363D01*
X194449819Y-140506458D02*
X195306961Y-140506458D01*
X195306961Y-140506458D02*
X195402200Y-140458839D01*
X195402200Y-140458839D02*
X195449819Y-140363601D01*
X195449819Y-140363601D02*
X195449819Y-140268363D01*
X195068866Y-139935029D02*
X195068866Y-139173125D01*
X195449819Y-139554077D02*
X194687914Y-139554077D01*
X193711780Y-119503819D02*
X193711780Y-118503819D01*
X193711780Y-118503819D02*
X194045113Y-119218104D01*
X194045113Y-119218104D02*
X194378446Y-118503819D01*
X194378446Y-118503819D02*
X194378446Y-119503819D01*
X194854637Y-119503819D02*
X194854637Y-118503819D01*
X195330827Y-119503819D02*
X195330827Y-118503819D01*
X195330827Y-118503819D02*
X195902255Y-119503819D01*
X195902255Y-119503819D02*
X195902255Y-118503819D01*
X196378446Y-119503819D02*
X196378446Y-118503819D01*
X196759398Y-118503819D02*
X197378445Y-118503819D01*
X197378445Y-118503819D02*
X197045112Y-118884771D01*
X197045112Y-118884771D02*
X197187969Y-118884771D01*
X197187969Y-118884771D02*
X197283207Y-118932390D01*
X197283207Y-118932390D02*
X197330826Y-118980009D01*
X197330826Y-118980009D02*
X197378445Y-119075247D01*
X197378445Y-119075247D02*
X197378445Y-119313342D01*
X197378445Y-119313342D02*
X197330826Y-119408580D01*
X197330826Y-119408580D02*
X197283207Y-119456200D01*
X197283207Y-119456200D02*
X197187969Y-119503819D01*
X197187969Y-119503819D02*
X196902255Y-119503819D01*
X196902255Y-119503819D02*
X196807017Y-119456200D01*
X196807017Y-119456200D02*
X196759398Y-119408580D01*
X198235588Y-118503819D02*
X198045112Y-118503819D01*
X198045112Y-118503819D02*
X197949874Y-118551438D01*
X197949874Y-118551438D02*
X197902255Y-118599057D01*
X197902255Y-118599057D02*
X197807017Y-118741914D01*
X197807017Y-118741914D02*
X197759398Y-118932390D01*
X197759398Y-118932390D02*
X197759398Y-119313342D01*
X197759398Y-119313342D02*
X197807017Y-119408580D01*
X197807017Y-119408580D02*
X197854636Y-119456200D01*
X197854636Y-119456200D02*
X197949874Y-119503819D01*
X197949874Y-119503819D02*
X198140350Y-119503819D01*
X198140350Y-119503819D02*
X198235588Y-119456200D01*
X198235588Y-119456200D02*
X198283207Y-119408580D01*
X198283207Y-119408580D02*
X198330826Y-119313342D01*
X198330826Y-119313342D02*
X198330826Y-119075247D01*
X198330826Y-119075247D02*
X198283207Y-118980009D01*
X198283207Y-118980009D02*
X198235588Y-118932390D01*
X198235588Y-118932390D02*
X198140350Y-118884771D01*
X198140350Y-118884771D02*
X197949874Y-118884771D01*
X197949874Y-118884771D02*
X197854636Y-118932390D01*
X197854636Y-118932390D02*
X197807017Y-118980009D01*
X197807017Y-118980009D02*
X197759398Y-119075247D01*
X198949874Y-118503819D02*
X199045112Y-118503819D01*
X199045112Y-118503819D02*
X199140350Y-118551438D01*
X199140350Y-118551438D02*
X199187969Y-118599057D01*
X199187969Y-118599057D02*
X199235588Y-118694295D01*
X199235588Y-118694295D02*
X199283207Y-118884771D01*
X199283207Y-118884771D02*
X199283207Y-119122866D01*
X199283207Y-119122866D02*
X199235588Y-119313342D01*
X199235588Y-119313342D02*
X199187969Y-119408580D01*
X199187969Y-119408580D02*
X199140350Y-119456200D01*
X199140350Y-119456200D02*
X199045112Y-119503819D01*
X199045112Y-119503819D02*
X198949874Y-119503819D01*
X198949874Y-119503819D02*
X198854636Y-119456200D01*
X198854636Y-119456200D02*
X198807017Y-119408580D01*
X198807017Y-119408580D02*
X198759398Y-119313342D01*
X198759398Y-119313342D02*
X198711779Y-119122866D01*
X198711779Y-119122866D02*
X198711779Y-118884771D01*
X198711779Y-118884771D02*
X198759398Y-118694295D01*
X198759398Y-118694295D02*
X198807017Y-118599057D01*
X198807017Y-118599057D02*
X198854636Y-118551438D01*
X198854636Y-118551438D02*
X198949874Y-118503819D01*
X130194207Y-150396580D02*
X130146588Y-150444200D01*
X130146588Y-150444200D02*
X130003731Y-150491819D01*
X130003731Y-150491819D02*
X129908493Y-150491819D01*
X129908493Y-150491819D02*
X129765636Y-150444200D01*
X129765636Y-150444200D02*
X129670398Y-150348961D01*
X129670398Y-150348961D02*
X129622779Y-150253723D01*
X129622779Y-150253723D02*
X129575160Y-150063247D01*
X129575160Y-150063247D02*
X129575160Y-149920390D01*
X129575160Y-149920390D02*
X129622779Y-149729914D01*
X129622779Y-149729914D02*
X129670398Y-149634676D01*
X129670398Y-149634676D02*
X129765636Y-149539438D01*
X129765636Y-149539438D02*
X129908493Y-149491819D01*
X129908493Y-149491819D02*
X130003731Y-149491819D01*
X130003731Y-149491819D02*
X130146588Y-149539438D01*
X130146588Y-149539438D02*
X130194207Y-149587057D01*
X131003731Y-150444200D02*
X130908493Y-150491819D01*
X130908493Y-150491819D02*
X130718017Y-150491819D01*
X130718017Y-150491819D02*
X130622779Y-150444200D01*
X130622779Y-150444200D02*
X130575160Y-150348961D01*
X130575160Y-150348961D02*
X130575160Y-149968009D01*
X130575160Y-149968009D02*
X130622779Y-149872771D01*
X130622779Y-149872771D02*
X130718017Y-149825152D01*
X130718017Y-149825152D02*
X130908493Y-149825152D01*
X130908493Y-149825152D02*
X131003731Y-149872771D01*
X131003731Y-149872771D02*
X131051350Y-149968009D01*
X131051350Y-149968009D02*
X131051350Y-150063247D01*
X131051350Y-150063247D02*
X130575160Y-150158485D01*
X131479922Y-149825152D02*
X131479922Y-150491819D01*
X131479922Y-149920390D02*
X131527541Y-149872771D01*
X131527541Y-149872771D02*
X131622779Y-149825152D01*
X131622779Y-149825152D02*
X131765636Y-149825152D01*
X131765636Y-149825152D02*
X131860874Y-149872771D01*
X131860874Y-149872771D02*
X131908493Y-149968009D01*
X131908493Y-149968009D02*
X131908493Y-150491819D01*
X132813255Y-150444200D02*
X132718017Y-150491819D01*
X132718017Y-150491819D02*
X132527541Y-150491819D01*
X132527541Y-150491819D02*
X132432303Y-150444200D01*
X132432303Y-150444200D02*
X132384684Y-150396580D01*
X132384684Y-150396580D02*
X132337065Y-150301342D01*
X132337065Y-150301342D02*
X132337065Y-150015628D01*
X132337065Y-150015628D02*
X132384684Y-149920390D01*
X132384684Y-149920390D02*
X132432303Y-149872771D01*
X132432303Y-149872771D02*
X132527541Y-149825152D01*
X132527541Y-149825152D02*
X132718017Y-149825152D01*
X132718017Y-149825152D02*
X132813255Y-149872771D01*
X133241827Y-150491819D02*
X133241827Y-149825152D01*
X133241827Y-149491819D02*
X133194208Y-149539438D01*
X133194208Y-149539438D02*
X133241827Y-149587057D01*
X133241827Y-149587057D02*
X133289446Y-149539438D01*
X133289446Y-149539438D02*
X133241827Y-149491819D01*
X133241827Y-149491819D02*
X133241827Y-149587057D01*
X134146588Y-150491819D02*
X134146588Y-149968009D01*
X134146588Y-149968009D02*
X134098969Y-149872771D01*
X134098969Y-149872771D02*
X134003731Y-149825152D01*
X134003731Y-149825152D02*
X133813255Y-149825152D01*
X133813255Y-149825152D02*
X133718017Y-149872771D01*
X134146588Y-150444200D02*
X134051350Y-150491819D01*
X134051350Y-150491819D02*
X133813255Y-150491819D01*
X133813255Y-150491819D02*
X133718017Y-150444200D01*
X133718017Y-150444200D02*
X133670398Y-150348961D01*
X133670398Y-150348961D02*
X133670398Y-150253723D01*
X133670398Y-150253723D02*
X133718017Y-150158485D01*
X133718017Y-150158485D02*
X133813255Y-150110866D01*
X133813255Y-150110866D02*
X134051350Y-150110866D01*
X134051350Y-150110866D02*
X134146588Y-150063247D01*
X134622779Y-150491819D02*
X134622779Y-149825152D01*
X134622779Y-150015628D02*
X134670398Y-149920390D01*
X134670398Y-149920390D02*
X134718017Y-149872771D01*
X134718017Y-149872771D02*
X134813255Y-149825152D01*
X134813255Y-149825152D02*
X134908493Y-149825152D01*
X135241827Y-150491819D02*
X135241827Y-149825152D01*
X135241827Y-149491819D02*
X135194208Y-149539438D01*
X135194208Y-149539438D02*
X135241827Y-149587057D01*
X135241827Y-149587057D02*
X135289446Y-149539438D01*
X135289446Y-149539438D02*
X135241827Y-149491819D01*
X135241827Y-149491819D02*
X135241827Y-149587057D01*
X135718017Y-149825152D02*
X135718017Y-150491819D01*
X135718017Y-149920390D02*
X135765636Y-149872771D01*
X135765636Y-149872771D02*
X135860874Y-149825152D01*
X135860874Y-149825152D02*
X136003731Y-149825152D01*
X136003731Y-149825152D02*
X136098969Y-149872771D01*
X136098969Y-149872771D02*
X136146588Y-149968009D01*
X136146588Y-149968009D02*
X136146588Y-150491819D01*
X136622779Y-150491819D02*
X136622779Y-149825152D01*
X136622779Y-149491819D02*
X136575160Y-149539438D01*
X136575160Y-149539438D02*
X136622779Y-149587057D01*
X136622779Y-149587057D02*
X136670398Y-149539438D01*
X136670398Y-149539438D02*
X136622779Y-149491819D01*
X136622779Y-149491819D02*
X136622779Y-149587057D01*
X137813255Y-150206104D02*
X138289445Y-150206104D01*
X137718017Y-150491819D02*
X138051350Y-149491819D01*
X138051350Y-149491819D02*
X138384683Y-150491819D01*
X138718017Y-149825152D02*
X138718017Y-150491819D01*
X138718017Y-149920390D02*
X138765636Y-149872771D01*
X138765636Y-149872771D02*
X138860874Y-149825152D01*
X138860874Y-149825152D02*
X139003731Y-149825152D01*
X139003731Y-149825152D02*
X139098969Y-149872771D01*
X139098969Y-149872771D02*
X139146588Y-149968009D01*
X139146588Y-149968009D02*
X139146588Y-150491819D01*
X140051350Y-149825152D02*
X140051350Y-150634676D01*
X140051350Y-150634676D02*
X140003731Y-150729914D01*
X140003731Y-150729914D02*
X139956112Y-150777533D01*
X139956112Y-150777533D02*
X139860874Y-150825152D01*
X139860874Y-150825152D02*
X139718017Y-150825152D01*
X139718017Y-150825152D02*
X139622779Y-150777533D01*
X140051350Y-150444200D02*
X139956112Y-150491819D01*
X139956112Y-150491819D02*
X139765636Y-150491819D01*
X139765636Y-150491819D02*
X139670398Y-150444200D01*
X139670398Y-150444200D02*
X139622779Y-150396580D01*
X139622779Y-150396580D02*
X139575160Y-150301342D01*
X139575160Y-150301342D02*
X139575160Y-150015628D01*
X139575160Y-150015628D02*
X139622779Y-149920390D01*
X139622779Y-149920390D02*
X139670398Y-149872771D01*
X139670398Y-149872771D02*
X139765636Y-149825152D01*
X139765636Y-149825152D02*
X139956112Y-149825152D01*
X139956112Y-149825152D02*
X140051350Y-149872771D01*
X140908493Y-150444200D02*
X140813255Y-150491819D01*
X140813255Y-150491819D02*
X140622779Y-150491819D01*
X140622779Y-150491819D02*
X140527541Y-150444200D01*
X140527541Y-150444200D02*
X140479922Y-150348961D01*
X140479922Y-150348961D02*
X140479922Y-149968009D01*
X140479922Y-149968009D02*
X140527541Y-149872771D01*
X140527541Y-149872771D02*
X140622779Y-149825152D01*
X140622779Y-149825152D02*
X140813255Y-149825152D01*
X140813255Y-149825152D02*
X140908493Y-149872771D01*
X140908493Y-149872771D02*
X140956112Y-149968009D01*
X140956112Y-149968009D02*
X140956112Y-150063247D01*
X140956112Y-150063247D02*
X140479922Y-150158485D01*
X141527541Y-150491819D02*
X141432303Y-150444200D01*
X141432303Y-150444200D02*
X141384684Y-150348961D01*
X141384684Y-150348961D02*
X141384684Y-149491819D01*
X143194208Y-149539438D02*
X143098970Y-149491819D01*
X143098970Y-149491819D02*
X142956113Y-149491819D01*
X142956113Y-149491819D02*
X142813256Y-149539438D01*
X142813256Y-149539438D02*
X142718018Y-149634676D01*
X142718018Y-149634676D02*
X142670399Y-149729914D01*
X142670399Y-149729914D02*
X142622780Y-149920390D01*
X142622780Y-149920390D02*
X142622780Y-150063247D01*
X142622780Y-150063247D02*
X142670399Y-150253723D01*
X142670399Y-150253723D02*
X142718018Y-150348961D01*
X142718018Y-150348961D02*
X142813256Y-150444200D01*
X142813256Y-150444200D02*
X142956113Y-150491819D01*
X142956113Y-150491819D02*
X143051351Y-150491819D01*
X143051351Y-150491819D02*
X143194208Y-150444200D01*
X143194208Y-150444200D02*
X143241827Y-150396580D01*
X143241827Y-150396580D02*
X143241827Y-150063247D01*
X143241827Y-150063247D02*
X143051351Y-150063247D01*
X144098970Y-150491819D02*
X144098970Y-149968009D01*
X144098970Y-149968009D02*
X144051351Y-149872771D01*
X144051351Y-149872771D02*
X143956113Y-149825152D01*
X143956113Y-149825152D02*
X143765637Y-149825152D01*
X143765637Y-149825152D02*
X143670399Y-149872771D01*
X144098970Y-150444200D02*
X144003732Y-150491819D01*
X144003732Y-150491819D02*
X143765637Y-150491819D01*
X143765637Y-150491819D02*
X143670399Y-150444200D01*
X143670399Y-150444200D02*
X143622780Y-150348961D01*
X143622780Y-150348961D02*
X143622780Y-150253723D01*
X143622780Y-150253723D02*
X143670399Y-150158485D01*
X143670399Y-150158485D02*
X143765637Y-150110866D01*
X143765637Y-150110866D02*
X144003732Y-150110866D01*
X144003732Y-150110866D02*
X144098970Y-150063247D01*
X144575161Y-150491819D02*
X144575161Y-149491819D01*
X144575161Y-149872771D02*
X144670399Y-149825152D01*
X144670399Y-149825152D02*
X144860875Y-149825152D01*
X144860875Y-149825152D02*
X144956113Y-149872771D01*
X144956113Y-149872771D02*
X145003732Y-149920390D01*
X145003732Y-149920390D02*
X145051351Y-150015628D01*
X145051351Y-150015628D02*
X145051351Y-150301342D01*
X145051351Y-150301342D02*
X145003732Y-150396580D01*
X145003732Y-150396580D02*
X144956113Y-150444200D01*
X144956113Y-150444200D02*
X144860875Y-150491819D01*
X144860875Y-150491819D02*
X144670399Y-150491819D01*
X144670399Y-150491819D02*
X144575161Y-150444200D01*
X145479923Y-150491819D02*
X145479923Y-149825152D01*
X145479923Y-150015628D02*
X145527542Y-149920390D01*
X145527542Y-149920390D02*
X145575161Y-149872771D01*
X145575161Y-149872771D02*
X145670399Y-149825152D01*
X145670399Y-149825152D02*
X145765637Y-149825152D01*
X146098971Y-150491819D02*
X146098971Y-149825152D01*
X146098971Y-149491819D02*
X146051352Y-149539438D01*
X146051352Y-149539438D02*
X146098971Y-149587057D01*
X146098971Y-149587057D02*
X146146590Y-149539438D01*
X146146590Y-149539438D02*
X146098971Y-149491819D01*
X146098971Y-149491819D02*
X146098971Y-149587057D01*
X146956113Y-150444200D02*
X146860875Y-150491819D01*
X146860875Y-150491819D02*
X146670399Y-150491819D01*
X146670399Y-150491819D02*
X146575161Y-150444200D01*
X146575161Y-150444200D02*
X146527542Y-150348961D01*
X146527542Y-150348961D02*
X146527542Y-149968009D01*
X146527542Y-149968009D02*
X146575161Y-149872771D01*
X146575161Y-149872771D02*
X146670399Y-149825152D01*
X146670399Y-149825152D02*
X146860875Y-149825152D01*
X146860875Y-149825152D02*
X146956113Y-149872771D01*
X146956113Y-149872771D02*
X147003732Y-149968009D01*
X147003732Y-149968009D02*
X147003732Y-150063247D01*
X147003732Y-150063247D02*
X146527542Y-150158485D01*
X147575161Y-150491819D02*
X147479923Y-150444200D01*
X147479923Y-150444200D02*
X147432304Y-150348961D01*
X147432304Y-150348961D02*
X147432304Y-149491819D01*
X119488009Y-125139220D02*
X119488009Y-124805887D01*
X120011819Y-124663030D02*
X120011819Y-125139220D01*
X120011819Y-125139220D02*
X119011819Y-125139220D01*
X119011819Y-125139220D02*
X119011819Y-124663030D01*
X119964200Y-124282077D02*
X120011819Y-124139220D01*
X120011819Y-124139220D02*
X120011819Y-123901125D01*
X120011819Y-123901125D02*
X119964200Y-123805887D01*
X119964200Y-123805887D02*
X119916580Y-123758268D01*
X119916580Y-123758268D02*
X119821342Y-123710649D01*
X119821342Y-123710649D02*
X119726104Y-123710649D01*
X119726104Y-123710649D02*
X119630866Y-123758268D01*
X119630866Y-123758268D02*
X119583247Y-123805887D01*
X119583247Y-123805887D02*
X119535628Y-123901125D01*
X119535628Y-123901125D02*
X119488009Y-124091601D01*
X119488009Y-124091601D02*
X119440390Y-124186839D01*
X119440390Y-124186839D02*
X119392771Y-124234458D01*
X119392771Y-124234458D02*
X119297533Y-124282077D01*
X119297533Y-124282077D02*
X119202295Y-124282077D01*
X119202295Y-124282077D02*
X119107057Y-124234458D01*
X119107057Y-124234458D02*
X119059438Y-124186839D01*
X119059438Y-124186839D02*
X119011819Y-124091601D01*
X119011819Y-124091601D02*
X119011819Y-123853506D01*
X119011819Y-123853506D02*
X119059438Y-123710649D01*
X120011819Y-123282077D02*
X119011819Y-123282077D01*
X119011819Y-123282077D02*
X119011819Y-122901125D01*
X119011819Y-122901125D02*
X119059438Y-122805887D01*
X119059438Y-122805887D02*
X119107057Y-122758268D01*
X119107057Y-122758268D02*
X119202295Y-122710649D01*
X119202295Y-122710649D02*
X119345152Y-122710649D01*
X119345152Y-122710649D02*
X119440390Y-122758268D01*
X119440390Y-122758268D02*
X119488009Y-122805887D01*
X119488009Y-122805887D02*
X119535628Y-122901125D01*
X119535628Y-122901125D02*
X119535628Y-123282077D01*
X119630866Y-122282077D02*
X119630866Y-121520173D01*
X119011819Y-120853506D02*
X119011819Y-120758268D01*
X119011819Y-120758268D02*
X119059438Y-120663030D01*
X119059438Y-120663030D02*
X119107057Y-120615411D01*
X119107057Y-120615411D02*
X119202295Y-120567792D01*
X119202295Y-120567792D02*
X119392771Y-120520173D01*
X119392771Y-120520173D02*
X119630866Y-120520173D01*
X119630866Y-120520173D02*
X119821342Y-120567792D01*
X119821342Y-120567792D02*
X119916580Y-120615411D01*
X119916580Y-120615411D02*
X119964200Y-120663030D01*
X119964200Y-120663030D02*
X120011819Y-120758268D01*
X120011819Y-120758268D02*
X120011819Y-120853506D01*
X120011819Y-120853506D02*
X119964200Y-120948744D01*
X119964200Y-120948744D02*
X119916580Y-120996363D01*
X119916580Y-120996363D02*
X119821342Y-121043982D01*
X119821342Y-121043982D02*
X119630866Y-121091601D01*
X119630866Y-121091601D02*
X119392771Y-121091601D01*
X119392771Y-121091601D02*
X119202295Y-121043982D01*
X119202295Y-121043982D02*
X119107057Y-120996363D01*
X119107057Y-120996363D02*
X119059438Y-120948744D01*
X119059438Y-120948744D02*
X119011819Y-120853506D01*
X120011819Y-119567792D02*
X120011819Y-120139220D01*
X120011819Y-119853506D02*
X119011819Y-119853506D01*
X119011819Y-119853506D02*
X119154676Y-119948744D01*
X119154676Y-119948744D02*
X119249914Y-120043982D01*
X119249914Y-120043982D02*
X119297533Y-120139220D01*
X157819208Y-120773819D02*
X157819208Y-119773819D01*
X157819208Y-119773819D02*
X158152541Y-120488104D01*
X158152541Y-120488104D02*
X158485874Y-119773819D01*
X158485874Y-119773819D02*
X158485874Y-120773819D01*
X159152541Y-119773819D02*
X159343017Y-119773819D01*
X159343017Y-119773819D02*
X159438255Y-119821438D01*
X159438255Y-119821438D02*
X159533493Y-119916676D01*
X159533493Y-119916676D02*
X159581112Y-120107152D01*
X159581112Y-120107152D02*
X159581112Y-120440485D01*
X159581112Y-120440485D02*
X159533493Y-120630961D01*
X159533493Y-120630961D02*
X159438255Y-120726200D01*
X159438255Y-120726200D02*
X159343017Y-120773819D01*
X159343017Y-120773819D02*
X159152541Y-120773819D01*
X159152541Y-120773819D02*
X159057303Y-120726200D01*
X159057303Y-120726200D02*
X158962065Y-120630961D01*
X158962065Y-120630961D02*
X158914446Y-120440485D01*
X158914446Y-120440485D02*
X158914446Y-120107152D01*
X158914446Y-120107152D02*
X158962065Y-119916676D01*
X158962065Y-119916676D02*
X159057303Y-119821438D01*
X159057303Y-119821438D02*
X159152541Y-119773819D01*
X159866827Y-119773819D02*
X160438255Y-119773819D01*
X160152541Y-120773819D02*
X160152541Y-119773819D01*
X160962065Y-119773819D02*
X161152541Y-119773819D01*
X161152541Y-119773819D02*
X161247779Y-119821438D01*
X161247779Y-119821438D02*
X161343017Y-119916676D01*
X161343017Y-119916676D02*
X161390636Y-120107152D01*
X161390636Y-120107152D02*
X161390636Y-120440485D01*
X161390636Y-120440485D02*
X161343017Y-120630961D01*
X161343017Y-120630961D02*
X161247779Y-120726200D01*
X161247779Y-120726200D02*
X161152541Y-120773819D01*
X161152541Y-120773819D02*
X160962065Y-120773819D01*
X160962065Y-120773819D02*
X160866827Y-120726200D01*
X160866827Y-120726200D02*
X160771589Y-120630961D01*
X160771589Y-120630961D02*
X160723970Y-120440485D01*
X160723970Y-120440485D02*
X160723970Y-120107152D01*
X160723970Y-120107152D02*
X160771589Y-119916676D01*
X160771589Y-119916676D02*
X160866827Y-119821438D01*
X160866827Y-119821438D02*
X160962065Y-119773819D01*
X162390636Y-120773819D02*
X162057303Y-120297628D01*
X161819208Y-120773819D02*
X161819208Y-119773819D01*
X161819208Y-119773819D02*
X162200160Y-119773819D01*
X162200160Y-119773819D02*
X162295398Y-119821438D01*
X162295398Y-119821438D02*
X162343017Y-119869057D01*
X162343017Y-119869057D02*
X162390636Y-119964295D01*
X162390636Y-119964295D02*
X162390636Y-120107152D01*
X162390636Y-120107152D02*
X162343017Y-120202390D01*
X162343017Y-120202390D02*
X162295398Y-120250009D01*
X162295398Y-120250009D02*
X162200160Y-120297628D01*
X162200160Y-120297628D02*
X161819208Y-120297628D01*
X162819208Y-120250009D02*
X163152541Y-120250009D01*
X163295398Y-120773819D02*
X162819208Y-120773819D01*
X162819208Y-120773819D02*
X162819208Y-119773819D01*
X162819208Y-119773819D02*
X163295398Y-119773819D01*
X163676351Y-120726200D02*
X163819208Y-120773819D01*
X163819208Y-120773819D02*
X164057303Y-120773819D01*
X164057303Y-120773819D02*
X164152541Y-120726200D01*
X164152541Y-120726200D02*
X164200160Y-120678580D01*
X164200160Y-120678580D02*
X164247779Y-120583342D01*
X164247779Y-120583342D02*
X164247779Y-120488104D01*
X164247779Y-120488104D02*
X164200160Y-120392866D01*
X164200160Y-120392866D02*
X164152541Y-120345247D01*
X164152541Y-120345247D02*
X164057303Y-120297628D01*
X164057303Y-120297628D02*
X163866827Y-120250009D01*
X163866827Y-120250009D02*
X163771589Y-120202390D01*
X163771589Y-120202390D02*
X163723970Y-120154771D01*
X163723970Y-120154771D02*
X163676351Y-120059533D01*
X163676351Y-120059533D02*
X163676351Y-119964295D01*
X163676351Y-119964295D02*
X163723970Y-119869057D01*
X163723970Y-119869057D02*
X163771589Y-119821438D01*
X163771589Y-119821438D02*
X163866827Y-119773819D01*
X163866827Y-119773819D02*
X164104922Y-119773819D01*
X164104922Y-119773819D02*
X164247779Y-119821438D01*
X190598588Y-76387438D02*
X190503350Y-76339819D01*
X190503350Y-76339819D02*
X190360493Y-76339819D01*
X190360493Y-76339819D02*
X190217636Y-76387438D01*
X190217636Y-76387438D02*
X190122398Y-76482676D01*
X190122398Y-76482676D02*
X190074779Y-76577914D01*
X190074779Y-76577914D02*
X190027160Y-76768390D01*
X190027160Y-76768390D02*
X190027160Y-76911247D01*
X190027160Y-76911247D02*
X190074779Y-77101723D01*
X190074779Y-77101723D02*
X190122398Y-77196961D01*
X190122398Y-77196961D02*
X190217636Y-77292200D01*
X190217636Y-77292200D02*
X190360493Y-77339819D01*
X190360493Y-77339819D02*
X190455731Y-77339819D01*
X190455731Y-77339819D02*
X190598588Y-77292200D01*
X190598588Y-77292200D02*
X190646207Y-77244580D01*
X190646207Y-77244580D02*
X190646207Y-76911247D01*
X190646207Y-76911247D02*
X190455731Y-76911247D01*
X191074779Y-77339819D02*
X191074779Y-76339819D01*
X191074779Y-76339819D02*
X191646207Y-77339819D01*
X191646207Y-77339819D02*
X191646207Y-76339819D01*
X192122398Y-77339819D02*
X192122398Y-76339819D01*
X192122398Y-76339819D02*
X192360493Y-76339819D01*
X192360493Y-76339819D02*
X192503350Y-76387438D01*
X192503350Y-76387438D02*
X192598588Y-76482676D01*
X192598588Y-76482676D02*
X192646207Y-76577914D01*
X192646207Y-76577914D02*
X192693826Y-76768390D01*
X192693826Y-76768390D02*
X192693826Y-76911247D01*
X192693826Y-76911247D02*
X192646207Y-77101723D01*
X192646207Y-77101723D02*
X192598588Y-77196961D01*
X192598588Y-77196961D02*
X192503350Y-77292200D01*
X192503350Y-77292200D02*
X192360493Y-77339819D01*
X192360493Y-77339819D02*
X192122398Y-77339819D01*
X131666819Y-138885094D02*
X130666819Y-138885094D01*
X130666819Y-138885094D02*
X130666819Y-138646999D01*
X130666819Y-138646999D02*
X130714438Y-138504142D01*
X130714438Y-138504142D02*
X130809676Y-138408904D01*
X130809676Y-138408904D02*
X130904914Y-138361285D01*
X130904914Y-138361285D02*
X131095390Y-138313666D01*
X131095390Y-138313666D02*
X131238247Y-138313666D01*
X131238247Y-138313666D02*
X131428723Y-138361285D01*
X131428723Y-138361285D02*
X131523961Y-138408904D01*
X131523961Y-138408904D02*
X131619200Y-138504142D01*
X131619200Y-138504142D02*
X131666819Y-138646999D01*
X131666819Y-138646999D02*
X131666819Y-138885094D01*
X131000152Y-137456523D02*
X131666819Y-137456523D01*
X130619200Y-137694618D02*
X131333485Y-137932713D01*
X131333485Y-137932713D02*
X131333485Y-137313666D01*
X120516095Y-151536819D02*
X120516095Y-150536819D01*
X120516095Y-151013009D02*
X121087523Y-151013009D01*
X121087523Y-151536819D02*
X121087523Y-150536819D01*
X122087523Y-151536819D02*
X121516095Y-151536819D01*
X121801809Y-151536819D02*
X121801809Y-150536819D01*
X121801809Y-150536819D02*
X121706571Y-150679676D01*
X121706571Y-150679676D02*
X121611333Y-150774914D01*
X121611333Y-150774914D02*
X121516095Y-150822533D01*
X155648819Y-77128666D02*
X155172628Y-77461999D01*
X155648819Y-77700094D02*
X154648819Y-77700094D01*
X154648819Y-77700094D02*
X154648819Y-77319142D01*
X154648819Y-77319142D02*
X154696438Y-77223904D01*
X154696438Y-77223904D02*
X154744057Y-77176285D01*
X154744057Y-77176285D02*
X154839295Y-77128666D01*
X154839295Y-77128666D02*
X154982152Y-77128666D01*
X154982152Y-77128666D02*
X155077390Y-77176285D01*
X155077390Y-77176285D02*
X155125009Y-77223904D01*
X155125009Y-77223904D02*
X155172628Y-77319142D01*
X155172628Y-77319142D02*
X155172628Y-77700094D01*
X154648819Y-76271523D02*
X154648819Y-76461999D01*
X154648819Y-76461999D02*
X154696438Y-76557237D01*
X154696438Y-76557237D02*
X154744057Y-76604856D01*
X154744057Y-76604856D02*
X154886914Y-76700094D01*
X154886914Y-76700094D02*
X155077390Y-76747713D01*
X155077390Y-76747713D02*
X155458342Y-76747713D01*
X155458342Y-76747713D02*
X155553580Y-76700094D01*
X155553580Y-76700094D02*
X155601200Y-76652475D01*
X155601200Y-76652475D02*
X155648819Y-76557237D01*
X155648819Y-76557237D02*
X155648819Y-76366761D01*
X155648819Y-76366761D02*
X155601200Y-76271523D01*
X155601200Y-76271523D02*
X155553580Y-76223904D01*
X155553580Y-76223904D02*
X155458342Y-76176285D01*
X155458342Y-76176285D02*
X155220247Y-76176285D01*
X155220247Y-76176285D02*
X155125009Y-76223904D01*
X155125009Y-76223904D02*
X155077390Y-76271523D01*
X155077390Y-76271523D02*
X155029771Y-76366761D01*
X155029771Y-76366761D02*
X155029771Y-76557237D01*
X155029771Y-76557237D02*
X155077390Y-76652475D01*
X155077390Y-76652475D02*
X155125009Y-76700094D01*
X155125009Y-76700094D02*
X155220247Y-76747713D01*
X155748819Y-73057238D02*
X155748819Y-73628666D01*
X155748819Y-73342952D02*
X154748819Y-73342952D01*
X154748819Y-73342952D02*
X154891676Y-73438190D01*
X154891676Y-73438190D02*
X154986914Y-73533428D01*
X154986914Y-73533428D02*
X155034533Y-73628666D01*
X154748819Y-72438190D02*
X154748819Y-72342952D01*
X154748819Y-72342952D02*
X154796438Y-72247714D01*
X154796438Y-72247714D02*
X154844057Y-72200095D01*
X154844057Y-72200095D02*
X154939295Y-72152476D01*
X154939295Y-72152476D02*
X155129771Y-72104857D01*
X155129771Y-72104857D02*
X155367866Y-72104857D01*
X155367866Y-72104857D02*
X155558342Y-72152476D01*
X155558342Y-72152476D02*
X155653580Y-72200095D01*
X155653580Y-72200095D02*
X155701200Y-72247714D01*
X155701200Y-72247714D02*
X155748819Y-72342952D01*
X155748819Y-72342952D02*
X155748819Y-72438190D01*
X155748819Y-72438190D02*
X155701200Y-72533428D01*
X155701200Y-72533428D02*
X155653580Y-72581047D01*
X155653580Y-72581047D02*
X155558342Y-72628666D01*
X155558342Y-72628666D02*
X155367866Y-72676285D01*
X155367866Y-72676285D02*
X155129771Y-72676285D01*
X155129771Y-72676285D02*
X154939295Y-72628666D01*
X154939295Y-72628666D02*
X154844057Y-72581047D01*
X154844057Y-72581047D02*
X154796438Y-72533428D01*
X154796438Y-72533428D02*
X154748819Y-72438190D01*
X155748819Y-71676285D02*
X154748819Y-71676285D01*
X155367866Y-71581047D02*
X155748819Y-71295333D01*
X155082152Y-71295333D02*
X155463104Y-71676285D01*
X187112819Y-124713904D02*
X187922342Y-124713904D01*
X187922342Y-124713904D02*
X188017580Y-124666285D01*
X188017580Y-124666285D02*
X188065200Y-124618666D01*
X188065200Y-124618666D02*
X188112819Y-124523428D01*
X188112819Y-124523428D02*
X188112819Y-124332952D01*
X188112819Y-124332952D02*
X188065200Y-124237714D01*
X188065200Y-124237714D02*
X188017580Y-124190095D01*
X188017580Y-124190095D02*
X187922342Y-124142476D01*
X187922342Y-124142476D02*
X187112819Y-124142476D01*
X187112819Y-123761523D02*
X187112819Y-123142476D01*
X187112819Y-123142476D02*
X187493771Y-123475809D01*
X187493771Y-123475809D02*
X187493771Y-123332952D01*
X187493771Y-123332952D02*
X187541390Y-123237714D01*
X187541390Y-123237714D02*
X187589009Y-123190095D01*
X187589009Y-123190095D02*
X187684247Y-123142476D01*
X187684247Y-123142476D02*
X187922342Y-123142476D01*
X187922342Y-123142476D02*
X188017580Y-123190095D01*
X188017580Y-123190095D02*
X188065200Y-123237714D01*
X188065200Y-123237714D02*
X188112819Y-123332952D01*
X188112819Y-123332952D02*
X188112819Y-123618666D01*
X188112819Y-123618666D02*
X188065200Y-123713904D01*
X188065200Y-123713904D02*
X188017580Y-123761523D01*
X140702819Y-84883523D02*
X141417104Y-84883523D01*
X141417104Y-84883523D02*
X141559961Y-84931142D01*
X141559961Y-84931142D02*
X141655200Y-85026380D01*
X141655200Y-85026380D02*
X141702819Y-85169237D01*
X141702819Y-85169237D02*
X141702819Y-85264475D01*
X141702819Y-83883523D02*
X141702819Y-84454951D01*
X141702819Y-84169237D02*
X140702819Y-84169237D01*
X140702819Y-84169237D02*
X140845676Y-84264475D01*
X140845676Y-84264475D02*
X140940914Y-84359713D01*
X140940914Y-84359713D02*
X140988533Y-84454951D01*
X141036152Y-83026380D02*
X141702819Y-83026380D01*
X140655200Y-83264475D02*
X141369485Y-83502570D01*
X141369485Y-83502570D02*
X141369485Y-82883523D01*
X194502819Y-112215333D02*
X195217104Y-112215333D01*
X195217104Y-112215333D02*
X195359961Y-112262952D01*
X195359961Y-112262952D02*
X195455200Y-112358190D01*
X195455200Y-112358190D02*
X195502819Y-112501047D01*
X195502819Y-112501047D02*
X195502819Y-112596285D01*
X194836152Y-111310571D02*
X195502819Y-111310571D01*
X194455200Y-111548666D02*
X195169485Y-111786761D01*
X195169485Y-111786761D02*
X195169485Y-111167714D01*
X189165419Y-137045533D02*
X189879704Y-137045533D01*
X189879704Y-137045533D02*
X190022561Y-137093152D01*
X190022561Y-137093152D02*
X190117800Y-137188390D01*
X190117800Y-137188390D02*
X190165419Y-137331247D01*
X190165419Y-137331247D02*
X190165419Y-137426485D01*
X189165419Y-136140771D02*
X189165419Y-136331247D01*
X189165419Y-136331247D02*
X189213038Y-136426485D01*
X189213038Y-136426485D02*
X189260657Y-136474104D01*
X189260657Y-136474104D02*
X189403514Y-136569342D01*
X189403514Y-136569342D02*
X189593990Y-136616961D01*
X189593990Y-136616961D02*
X189974942Y-136616961D01*
X189974942Y-136616961D02*
X190070180Y-136569342D01*
X190070180Y-136569342D02*
X190117800Y-136521723D01*
X190117800Y-136521723D02*
X190165419Y-136426485D01*
X190165419Y-136426485D02*
X190165419Y-136236009D01*
X190165419Y-136236009D02*
X190117800Y-136140771D01*
X190117800Y-136140771D02*
X190070180Y-136093152D01*
X190070180Y-136093152D02*
X189974942Y-136045533D01*
X189974942Y-136045533D02*
X189736847Y-136045533D01*
X189736847Y-136045533D02*
X189641609Y-136093152D01*
X189641609Y-136093152D02*
X189593990Y-136140771D01*
X189593990Y-136140771D02*
X189546371Y-136236009D01*
X189546371Y-136236009D02*
X189546371Y-136426485D01*
X189546371Y-136426485D02*
X189593990Y-136521723D01*
X189593990Y-136521723D02*
X189641609Y-136569342D01*
X189641609Y-136569342D02*
X189736847Y-136616961D01*
X138544819Y-91810666D02*
X138068628Y-92143999D01*
X138544819Y-92382094D02*
X137544819Y-92382094D01*
X137544819Y-92382094D02*
X137544819Y-92001142D01*
X137544819Y-92001142D02*
X137592438Y-91905904D01*
X137592438Y-91905904D02*
X137640057Y-91858285D01*
X137640057Y-91858285D02*
X137735295Y-91810666D01*
X137735295Y-91810666D02*
X137878152Y-91810666D01*
X137878152Y-91810666D02*
X137973390Y-91858285D01*
X137973390Y-91858285D02*
X138021009Y-91905904D01*
X138021009Y-91905904D02*
X138068628Y-92001142D01*
X138068628Y-92001142D02*
X138068628Y-92382094D01*
X137544819Y-90905904D02*
X137544819Y-91382094D01*
X137544819Y-91382094D02*
X138021009Y-91429713D01*
X138021009Y-91429713D02*
X137973390Y-91382094D01*
X137973390Y-91382094D02*
X137925771Y-91286856D01*
X137925771Y-91286856D02*
X137925771Y-91048761D01*
X137925771Y-91048761D02*
X137973390Y-90953523D01*
X137973390Y-90953523D02*
X138021009Y-90905904D01*
X138021009Y-90905904D02*
X138116247Y-90858285D01*
X138116247Y-90858285D02*
X138354342Y-90858285D01*
X138354342Y-90858285D02*
X138449580Y-90905904D01*
X138449580Y-90905904D02*
X138497200Y-90953523D01*
X138497200Y-90953523D02*
X138544819Y-91048761D01*
X138544819Y-91048761D02*
X138544819Y-91286856D01*
X138544819Y-91286856D02*
X138497200Y-91382094D01*
X138497200Y-91382094D02*
X138449580Y-91429713D01*
X138544819Y-87739238D02*
X138544819Y-88310666D01*
X138544819Y-88024952D02*
X137544819Y-88024952D01*
X137544819Y-88024952D02*
X137687676Y-88120190D01*
X137687676Y-88120190D02*
X137782914Y-88215428D01*
X137782914Y-88215428D02*
X137830533Y-88310666D01*
X137544819Y-87120190D02*
X137544819Y-87024952D01*
X137544819Y-87024952D02*
X137592438Y-86929714D01*
X137592438Y-86929714D02*
X137640057Y-86882095D01*
X137640057Y-86882095D02*
X137735295Y-86834476D01*
X137735295Y-86834476D02*
X137925771Y-86786857D01*
X137925771Y-86786857D02*
X138163866Y-86786857D01*
X138163866Y-86786857D02*
X138354342Y-86834476D01*
X138354342Y-86834476D02*
X138449580Y-86882095D01*
X138449580Y-86882095D02*
X138497200Y-86929714D01*
X138497200Y-86929714D02*
X138544819Y-87024952D01*
X138544819Y-87024952D02*
X138544819Y-87120190D01*
X138544819Y-87120190D02*
X138497200Y-87215428D01*
X138497200Y-87215428D02*
X138449580Y-87263047D01*
X138449580Y-87263047D02*
X138354342Y-87310666D01*
X138354342Y-87310666D02*
X138163866Y-87358285D01*
X138163866Y-87358285D02*
X137925771Y-87358285D01*
X137925771Y-87358285D02*
X137735295Y-87310666D01*
X137735295Y-87310666D02*
X137640057Y-87263047D01*
X137640057Y-87263047D02*
X137592438Y-87215428D01*
X137592438Y-87215428D02*
X137544819Y-87120190D01*
X138544819Y-86358285D02*
X137544819Y-86358285D01*
X138163866Y-86263047D02*
X138544819Y-85977333D01*
X137878152Y-85977333D02*
X138259104Y-86358285D01*
X141732095Y-131636819D02*
X141732095Y-130636819D01*
X141732095Y-131113009D02*
X142303523Y-131113009D01*
X142303523Y-131636819D02*
X142303523Y-130636819D01*
X143255904Y-130636819D02*
X142779714Y-130636819D01*
X142779714Y-130636819D02*
X142732095Y-131113009D01*
X142732095Y-131113009D02*
X142779714Y-131065390D01*
X142779714Y-131065390D02*
X142874952Y-131017771D01*
X142874952Y-131017771D02*
X143113047Y-131017771D01*
X143113047Y-131017771D02*
X143208285Y-131065390D01*
X143208285Y-131065390D02*
X143255904Y-131113009D01*
X143255904Y-131113009D02*
X143303523Y-131208247D01*
X143303523Y-131208247D02*
X143303523Y-131446342D01*
X143303523Y-131446342D02*
X143255904Y-131541580D01*
X143255904Y-131541580D02*
X143208285Y-131589200D01*
X143208285Y-131589200D02*
X143113047Y-131636819D01*
X143113047Y-131636819D02*
X142874952Y-131636819D01*
X142874952Y-131636819D02*
X142779714Y-131589200D01*
X142779714Y-131589200D02*
X142732095Y-131541580D01*
X174454819Y-66203333D02*
X175169104Y-66203333D01*
X175169104Y-66203333D02*
X175311961Y-66250952D01*
X175311961Y-66250952D02*
X175407200Y-66346190D01*
X175407200Y-66346190D02*
X175454819Y-66489047D01*
X175454819Y-66489047D02*
X175454819Y-66584285D01*
X175454819Y-65203333D02*
X175454819Y-65774761D01*
X175454819Y-65489047D02*
X174454819Y-65489047D01*
X174454819Y-65489047D02*
X174597676Y-65584285D01*
X174597676Y-65584285D02*
X174692914Y-65679523D01*
X174692914Y-65679523D02*
X174740533Y-65774761D01*
X165536857Y-69288819D02*
X165536857Y-68288819D01*
X166013047Y-69288819D02*
X166013047Y-68288819D01*
X166013047Y-68288819D02*
X166584475Y-69288819D01*
X166584475Y-69288819D02*
X166584475Y-68288819D01*
X167393999Y-68765009D02*
X167060666Y-68765009D01*
X167060666Y-69288819D02*
X167060666Y-68288819D01*
X167060666Y-68288819D02*
X167536856Y-68288819D01*
X168489237Y-69288819D02*
X168155904Y-68812628D01*
X167917809Y-69288819D02*
X167917809Y-68288819D01*
X167917809Y-68288819D02*
X168298761Y-68288819D01*
X168298761Y-68288819D02*
X168393999Y-68336438D01*
X168393999Y-68336438D02*
X168441618Y-68384057D01*
X168441618Y-68384057D02*
X168489237Y-68479295D01*
X168489237Y-68479295D02*
X168489237Y-68622152D01*
X168489237Y-68622152D02*
X168441618Y-68717390D01*
X168441618Y-68717390D02*
X168393999Y-68765009D01*
X168393999Y-68765009D02*
X168298761Y-68812628D01*
X168298761Y-68812628D02*
X167917809Y-68812628D01*
X168870190Y-69003104D02*
X169346380Y-69003104D01*
X168774952Y-69288819D02*
X169108285Y-68288819D01*
X169108285Y-68288819D02*
X169441618Y-69288819D01*
X169727333Y-69241200D02*
X169870190Y-69288819D01*
X169870190Y-69288819D02*
X170108285Y-69288819D01*
X170108285Y-69288819D02*
X170203523Y-69241200D01*
X170203523Y-69241200D02*
X170251142Y-69193580D01*
X170251142Y-69193580D02*
X170298761Y-69098342D01*
X170298761Y-69098342D02*
X170298761Y-69003104D01*
X170298761Y-69003104D02*
X170251142Y-68907866D01*
X170251142Y-68907866D02*
X170203523Y-68860247D01*
X170203523Y-68860247D02*
X170108285Y-68812628D01*
X170108285Y-68812628D02*
X169917809Y-68765009D01*
X169917809Y-68765009D02*
X169822571Y-68717390D01*
X169822571Y-68717390D02*
X169774952Y-68669771D01*
X169774952Y-68669771D02*
X169727333Y-68574533D01*
X169727333Y-68574533D02*
X169727333Y-68479295D01*
X169727333Y-68479295D02*
X169774952Y-68384057D01*
X169774952Y-68384057D02*
X169822571Y-68336438D01*
X169822571Y-68336438D02*
X169917809Y-68288819D01*
X169917809Y-68288819D02*
X170155904Y-68288819D01*
X170155904Y-68288819D02*
X170298761Y-68336438D01*
X192933819Y-74506333D02*
X193648104Y-74506333D01*
X193648104Y-74506333D02*
X193790961Y-74553952D01*
X193790961Y-74553952D02*
X193886200Y-74649190D01*
X193886200Y-74649190D02*
X193933819Y-74792047D01*
X193933819Y-74792047D02*
X193933819Y-74887285D01*
X192933819Y-73553952D02*
X192933819Y-74030142D01*
X192933819Y-74030142D02*
X193410009Y-74077761D01*
X193410009Y-74077761D02*
X193362390Y-74030142D01*
X193362390Y-74030142D02*
X193314771Y-73934904D01*
X193314771Y-73934904D02*
X193314771Y-73696809D01*
X193314771Y-73696809D02*
X193362390Y-73601571D01*
X193362390Y-73601571D02*
X193410009Y-73553952D01*
X193410009Y-73553952D02*
X193505247Y-73506333D01*
X193505247Y-73506333D02*
X193743342Y-73506333D01*
X193743342Y-73506333D02*
X193838580Y-73553952D01*
X193838580Y-73553952D02*
X193886200Y-73601571D01*
X193886200Y-73601571D02*
X193933819Y-73696809D01*
X193933819Y-73696809D02*
X193933819Y-73934904D01*
X193933819Y-73934904D02*
X193886200Y-74030142D01*
X193886200Y-74030142D02*
X193838580Y-74077761D01*
X198402905Y-79083819D02*
X198402905Y-78083819D01*
X198402905Y-78083819D02*
X198641000Y-78083819D01*
X198641000Y-78083819D02*
X198783857Y-78131438D01*
X198783857Y-78131438D02*
X198879095Y-78226676D01*
X198879095Y-78226676D02*
X198926714Y-78321914D01*
X198926714Y-78321914D02*
X198974333Y-78512390D01*
X198974333Y-78512390D02*
X198974333Y-78655247D01*
X198974333Y-78655247D02*
X198926714Y-78845723D01*
X198926714Y-78845723D02*
X198879095Y-78940961D01*
X198879095Y-78940961D02*
X198783857Y-79036200D01*
X198783857Y-79036200D02*
X198641000Y-79083819D01*
X198641000Y-79083819D02*
X198402905Y-79083819D01*
X199307667Y-78083819D02*
X199926714Y-78083819D01*
X199926714Y-78083819D02*
X199593381Y-78464771D01*
X199593381Y-78464771D02*
X199736238Y-78464771D01*
X199736238Y-78464771D02*
X199831476Y-78512390D01*
X199831476Y-78512390D02*
X199879095Y-78560009D01*
X199879095Y-78560009D02*
X199926714Y-78655247D01*
X199926714Y-78655247D02*
X199926714Y-78893342D01*
X199926714Y-78893342D02*
X199879095Y-78988580D01*
X199879095Y-78988580D02*
X199831476Y-79036200D01*
X199831476Y-79036200D02*
X199736238Y-79083819D01*
X199736238Y-79083819D02*
X199450524Y-79083819D01*
X199450524Y-79083819D02*
X199355286Y-79036200D01*
X199355286Y-79036200D02*
X199307667Y-78988580D01*
X133509333Y-107153580D02*
X133461714Y-107201200D01*
X133461714Y-107201200D02*
X133318857Y-107248819D01*
X133318857Y-107248819D02*
X133223619Y-107248819D01*
X133223619Y-107248819D02*
X133080762Y-107201200D01*
X133080762Y-107201200D02*
X132985524Y-107105961D01*
X132985524Y-107105961D02*
X132937905Y-107010723D01*
X132937905Y-107010723D02*
X132890286Y-106820247D01*
X132890286Y-106820247D02*
X132890286Y-106677390D01*
X132890286Y-106677390D02*
X132937905Y-106486914D01*
X132937905Y-106486914D02*
X132985524Y-106391676D01*
X132985524Y-106391676D02*
X133080762Y-106296438D01*
X133080762Y-106296438D02*
X133223619Y-106248819D01*
X133223619Y-106248819D02*
X133318857Y-106248819D01*
X133318857Y-106248819D02*
X133461714Y-106296438D01*
X133461714Y-106296438D02*
X133509333Y-106344057D01*
X134461714Y-107248819D02*
X133890286Y-107248819D01*
X134176000Y-107248819D02*
X134176000Y-106248819D01*
X134176000Y-106248819D02*
X134080762Y-106391676D01*
X134080762Y-106391676D02*
X133985524Y-106486914D01*
X133985524Y-106486914D02*
X133890286Y-106534533D01*
X178562095Y-131636819D02*
X178562095Y-130636819D01*
X178562095Y-131113009D02*
X179133523Y-131113009D01*
X179133523Y-131636819D02*
X179133523Y-130636819D01*
X180038285Y-130636819D02*
X179847809Y-130636819D01*
X179847809Y-130636819D02*
X179752571Y-130684438D01*
X179752571Y-130684438D02*
X179704952Y-130732057D01*
X179704952Y-130732057D02*
X179609714Y-130874914D01*
X179609714Y-130874914D02*
X179562095Y-131065390D01*
X179562095Y-131065390D02*
X179562095Y-131446342D01*
X179562095Y-131446342D02*
X179609714Y-131541580D01*
X179609714Y-131541580D02*
X179657333Y-131589200D01*
X179657333Y-131589200D02*
X179752571Y-131636819D01*
X179752571Y-131636819D02*
X179943047Y-131636819D01*
X179943047Y-131636819D02*
X180038285Y-131589200D01*
X180038285Y-131589200D02*
X180085904Y-131541580D01*
X180085904Y-131541580D02*
X180133523Y-131446342D01*
X180133523Y-131446342D02*
X180133523Y-131208247D01*
X180133523Y-131208247D02*
X180085904Y-131113009D01*
X180085904Y-131113009D02*
X180038285Y-131065390D01*
X180038285Y-131065390D02*
X179943047Y-131017771D01*
X179943047Y-131017771D02*
X179752571Y-131017771D01*
X179752571Y-131017771D02*
X179657333Y-131065390D01*
X179657333Y-131065390D02*
X179609714Y-131113009D01*
X179609714Y-131113009D02*
X179562095Y-131208247D01*
X118895819Y-128082904D02*
X119705342Y-128082904D01*
X119705342Y-128082904D02*
X119800580Y-128035285D01*
X119800580Y-128035285D02*
X119848200Y-127987666D01*
X119848200Y-127987666D02*
X119895819Y-127892428D01*
X119895819Y-127892428D02*
X119895819Y-127701952D01*
X119895819Y-127701952D02*
X119848200Y-127606714D01*
X119848200Y-127606714D02*
X119800580Y-127559095D01*
X119800580Y-127559095D02*
X119705342Y-127511476D01*
X119705342Y-127511476D02*
X118895819Y-127511476D01*
X118991057Y-127082904D02*
X118943438Y-127035285D01*
X118943438Y-127035285D02*
X118895819Y-126940047D01*
X118895819Y-126940047D02*
X118895819Y-126701952D01*
X118895819Y-126701952D02*
X118943438Y-126606714D01*
X118943438Y-126606714D02*
X118991057Y-126559095D01*
X118991057Y-126559095D02*
X119086295Y-126511476D01*
X119086295Y-126511476D02*
X119181533Y-126511476D01*
X119181533Y-126511476D02*
X119324390Y-126559095D01*
X119324390Y-126559095D02*
X119895819Y-127130523D01*
X119895819Y-127130523D02*
X119895819Y-126511476D01*
X129024666Y-94370819D02*
X129024666Y-95085104D01*
X129024666Y-95085104D02*
X128977047Y-95227961D01*
X128977047Y-95227961D02*
X128881809Y-95323200D01*
X128881809Y-95323200D02*
X128738952Y-95370819D01*
X128738952Y-95370819D02*
X128643714Y-95370819D01*
X129453238Y-94466057D02*
X129500857Y-94418438D01*
X129500857Y-94418438D02*
X129596095Y-94370819D01*
X129596095Y-94370819D02*
X129834190Y-94370819D01*
X129834190Y-94370819D02*
X129929428Y-94418438D01*
X129929428Y-94418438D02*
X129977047Y-94466057D01*
X129977047Y-94466057D02*
X130024666Y-94561295D01*
X130024666Y-94561295D02*
X130024666Y-94656533D01*
X130024666Y-94656533D02*
X129977047Y-94799390D01*
X129977047Y-94799390D02*
X129405619Y-95370819D01*
X129405619Y-95370819D02*
X130024666Y-95370819D01*
X119649905Y-95370819D02*
X119649905Y-94370819D01*
X119649905Y-94370819D02*
X119888000Y-94370819D01*
X119888000Y-94370819D02*
X120030857Y-94418438D01*
X120030857Y-94418438D02*
X120126095Y-94513676D01*
X120126095Y-94513676D02*
X120173714Y-94608914D01*
X120173714Y-94608914D02*
X120221333Y-94799390D01*
X120221333Y-94799390D02*
X120221333Y-94942247D01*
X120221333Y-94942247D02*
X120173714Y-95132723D01*
X120173714Y-95132723D02*
X120126095Y-95227961D01*
X120126095Y-95227961D02*
X120030857Y-95323200D01*
X120030857Y-95323200D02*
X119888000Y-95370819D01*
X119888000Y-95370819D02*
X119649905Y-95370819D01*
X120649905Y-95370819D02*
X120649905Y-94370819D01*
X121078476Y-95323200D02*
X121221333Y-95370819D01*
X121221333Y-95370819D02*
X121459428Y-95370819D01*
X121459428Y-95370819D02*
X121554666Y-95323200D01*
X121554666Y-95323200D02*
X121602285Y-95275580D01*
X121602285Y-95275580D02*
X121649904Y-95180342D01*
X121649904Y-95180342D02*
X121649904Y-95085104D01*
X121649904Y-95085104D02*
X121602285Y-94989866D01*
X121602285Y-94989866D02*
X121554666Y-94942247D01*
X121554666Y-94942247D02*
X121459428Y-94894628D01*
X121459428Y-94894628D02*
X121268952Y-94847009D01*
X121268952Y-94847009D02*
X121173714Y-94799390D01*
X121173714Y-94799390D02*
X121126095Y-94751771D01*
X121126095Y-94751771D02*
X121078476Y-94656533D01*
X121078476Y-94656533D02*
X121078476Y-94561295D01*
X121078476Y-94561295D02*
X121126095Y-94466057D01*
X121126095Y-94466057D02*
X121173714Y-94418438D01*
X121173714Y-94418438D02*
X121268952Y-94370819D01*
X121268952Y-94370819D02*
X121507047Y-94370819D01*
X121507047Y-94370819D02*
X121649904Y-94418438D01*
X122078476Y-95370819D02*
X122078476Y-94370819D01*
X122078476Y-94370819D02*
X122459428Y-94370819D01*
X122459428Y-94370819D02*
X122554666Y-94418438D01*
X122554666Y-94418438D02*
X122602285Y-94466057D01*
X122602285Y-94466057D02*
X122649904Y-94561295D01*
X122649904Y-94561295D02*
X122649904Y-94704152D01*
X122649904Y-94704152D02*
X122602285Y-94799390D01*
X122602285Y-94799390D02*
X122554666Y-94847009D01*
X122554666Y-94847009D02*
X122459428Y-94894628D01*
X122459428Y-94894628D02*
X122078476Y-94894628D01*
X123554666Y-95370819D02*
X123078476Y-95370819D01*
X123078476Y-95370819D02*
X123078476Y-94370819D01*
X123840381Y-95085104D02*
X124316571Y-95085104D01*
X123745143Y-95370819D02*
X124078476Y-94370819D01*
X124078476Y-94370819D02*
X124411809Y-95370819D01*
X124935619Y-94894628D02*
X124935619Y-95370819D01*
X124602286Y-94370819D02*
X124935619Y-94894628D01*
X124935619Y-94894628D02*
X125268952Y-94370819D01*
X199898095Y-63056819D02*
X199898095Y-62056819D01*
X199898095Y-62533009D02*
X200469523Y-62533009D01*
X200469523Y-63056819D02*
X200469523Y-62056819D01*
X200850476Y-62056819D02*
X201469523Y-62056819D01*
X201469523Y-62056819D02*
X201136190Y-62437771D01*
X201136190Y-62437771D02*
X201279047Y-62437771D01*
X201279047Y-62437771D02*
X201374285Y-62485390D01*
X201374285Y-62485390D02*
X201421904Y-62533009D01*
X201421904Y-62533009D02*
X201469523Y-62628247D01*
X201469523Y-62628247D02*
X201469523Y-62866342D01*
X201469523Y-62866342D02*
X201421904Y-62961580D01*
X201421904Y-62961580D02*
X201374285Y-63009200D01*
X201374285Y-63009200D02*
X201279047Y-63056819D01*
X201279047Y-63056819D02*
X200993333Y-63056819D01*
X200993333Y-63056819D02*
X200898095Y-63009200D01*
X200898095Y-63009200D02*
X200850476Y-62961580D01*
X169585819Y-123548333D02*
X170300104Y-123548333D01*
X170300104Y-123548333D02*
X170442961Y-123595952D01*
X170442961Y-123595952D02*
X170538200Y-123691190D01*
X170538200Y-123691190D02*
X170585819Y-123834047D01*
X170585819Y-123834047D02*
X170585819Y-123929285D01*
X169585819Y-123167380D02*
X169585819Y-122548333D01*
X169585819Y-122548333D02*
X169966771Y-122881666D01*
X169966771Y-122881666D02*
X169966771Y-122738809D01*
X169966771Y-122738809D02*
X170014390Y-122643571D01*
X170014390Y-122643571D02*
X170062009Y-122595952D01*
X170062009Y-122595952D02*
X170157247Y-122548333D01*
X170157247Y-122548333D02*
X170395342Y-122548333D01*
X170395342Y-122548333D02*
X170490580Y-122595952D01*
X170490580Y-122595952D02*
X170538200Y-122643571D01*
X170538200Y-122643571D02*
X170585819Y-122738809D01*
X170585819Y-122738809D02*
X170585819Y-123024523D01*
X170585819Y-123024523D02*
X170538200Y-123119761D01*
X170538200Y-123119761D02*
X170490580Y-123167380D01*
X142423200Y-74811332D02*
X142470819Y-74668475D01*
X142470819Y-74668475D02*
X142470819Y-74430380D01*
X142470819Y-74430380D02*
X142423200Y-74335142D01*
X142423200Y-74335142D02*
X142375580Y-74287523D01*
X142375580Y-74287523D02*
X142280342Y-74239904D01*
X142280342Y-74239904D02*
X142185104Y-74239904D01*
X142185104Y-74239904D02*
X142089866Y-74287523D01*
X142089866Y-74287523D02*
X142042247Y-74335142D01*
X142042247Y-74335142D02*
X141994628Y-74430380D01*
X141994628Y-74430380D02*
X141947009Y-74620856D01*
X141947009Y-74620856D02*
X141899390Y-74716094D01*
X141899390Y-74716094D02*
X141851771Y-74763713D01*
X141851771Y-74763713D02*
X141756533Y-74811332D01*
X141756533Y-74811332D02*
X141661295Y-74811332D01*
X141661295Y-74811332D02*
X141566057Y-74763713D01*
X141566057Y-74763713D02*
X141518438Y-74716094D01*
X141518438Y-74716094D02*
X141470819Y-74620856D01*
X141470819Y-74620856D02*
X141470819Y-74382761D01*
X141470819Y-74382761D02*
X141518438Y-74239904D01*
X141470819Y-73906570D02*
X142470819Y-73668475D01*
X142470819Y-73668475D02*
X141756533Y-73477999D01*
X141756533Y-73477999D02*
X142470819Y-73287523D01*
X142470819Y-73287523D02*
X141470819Y-73049428D01*
X141804152Y-72239904D02*
X142470819Y-72239904D01*
X141423200Y-72477999D02*
X142137485Y-72716094D01*
X142137485Y-72716094D02*
X142137485Y-72097047D01*
X199654095Y-151446819D02*
X199654095Y-150446819D01*
X199654095Y-150923009D02*
X200225523Y-150923009D01*
X200225523Y-151446819D02*
X200225523Y-150446819D01*
X200654095Y-150542057D02*
X200701714Y-150494438D01*
X200701714Y-150494438D02*
X200796952Y-150446819D01*
X200796952Y-150446819D02*
X201035047Y-150446819D01*
X201035047Y-150446819D02*
X201130285Y-150494438D01*
X201130285Y-150494438D02*
X201177904Y-150542057D01*
X201177904Y-150542057D02*
X201225523Y-150637295D01*
X201225523Y-150637295D02*
X201225523Y-150732533D01*
X201225523Y-150732533D02*
X201177904Y-150875390D01*
X201177904Y-150875390D02*
X200606476Y-151446819D01*
X200606476Y-151446819D02*
X201225523Y-151446819D01*
X187097200Y-146553332D02*
X187144819Y-146410475D01*
X187144819Y-146410475D02*
X187144819Y-146172380D01*
X187144819Y-146172380D02*
X187097200Y-146077142D01*
X187097200Y-146077142D02*
X187049580Y-146029523D01*
X187049580Y-146029523D02*
X186954342Y-145981904D01*
X186954342Y-145981904D02*
X186859104Y-145981904D01*
X186859104Y-145981904D02*
X186763866Y-146029523D01*
X186763866Y-146029523D02*
X186716247Y-146077142D01*
X186716247Y-146077142D02*
X186668628Y-146172380D01*
X186668628Y-146172380D02*
X186621009Y-146362856D01*
X186621009Y-146362856D02*
X186573390Y-146458094D01*
X186573390Y-146458094D02*
X186525771Y-146505713D01*
X186525771Y-146505713D02*
X186430533Y-146553332D01*
X186430533Y-146553332D02*
X186335295Y-146553332D01*
X186335295Y-146553332D02*
X186240057Y-146505713D01*
X186240057Y-146505713D02*
X186192438Y-146458094D01*
X186192438Y-146458094D02*
X186144819Y-146362856D01*
X186144819Y-146362856D02*
X186144819Y-146124761D01*
X186144819Y-146124761D02*
X186192438Y-145981904D01*
X186144819Y-145648570D02*
X187144819Y-145410475D01*
X187144819Y-145410475D02*
X186430533Y-145219999D01*
X186430533Y-145219999D02*
X187144819Y-145029523D01*
X187144819Y-145029523D02*
X186144819Y-144791428D01*
X186240057Y-144458094D02*
X186192438Y-144410475D01*
X186192438Y-144410475D02*
X186144819Y-144315237D01*
X186144819Y-144315237D02*
X186144819Y-144077142D01*
X186144819Y-144077142D02*
X186192438Y-143981904D01*
X186192438Y-143981904D02*
X186240057Y-143934285D01*
X186240057Y-143934285D02*
X186335295Y-143886666D01*
X186335295Y-143886666D02*
X186430533Y-143886666D01*
X186430533Y-143886666D02*
X186573390Y-143934285D01*
X186573390Y-143934285D02*
X187144819Y-144505713D01*
X187144819Y-144505713D02*
X187144819Y-143886666D01*
X185691333Y-97558819D02*
X185358000Y-97082628D01*
X185119905Y-97558819D02*
X185119905Y-96558819D01*
X185119905Y-96558819D02*
X185500857Y-96558819D01*
X185500857Y-96558819D02*
X185596095Y-96606438D01*
X185596095Y-96606438D02*
X185643714Y-96654057D01*
X185643714Y-96654057D02*
X185691333Y-96749295D01*
X185691333Y-96749295D02*
X185691333Y-96892152D01*
X185691333Y-96892152D02*
X185643714Y-96987390D01*
X185643714Y-96987390D02*
X185596095Y-97035009D01*
X185596095Y-97035009D02*
X185500857Y-97082628D01*
X185500857Y-97082628D02*
X185119905Y-97082628D01*
X186024667Y-96558819D02*
X186643714Y-96558819D01*
X186643714Y-96558819D02*
X186310381Y-96939771D01*
X186310381Y-96939771D02*
X186453238Y-96939771D01*
X186453238Y-96939771D02*
X186548476Y-96987390D01*
X186548476Y-96987390D02*
X186596095Y-97035009D01*
X186596095Y-97035009D02*
X186643714Y-97130247D01*
X186643714Y-97130247D02*
X186643714Y-97368342D01*
X186643714Y-97368342D02*
X186596095Y-97463580D01*
X186596095Y-97463580D02*
X186548476Y-97511200D01*
X186548476Y-97511200D02*
X186453238Y-97558819D01*
X186453238Y-97558819D02*
X186167524Y-97558819D01*
X186167524Y-97558819D02*
X186072286Y-97511200D01*
X186072286Y-97511200D02*
X186024667Y-97463580D01*
X180289905Y-96594057D02*
X180337524Y-96546438D01*
X180337524Y-96546438D02*
X180432762Y-96498819D01*
X180432762Y-96498819D02*
X180670857Y-96498819D01*
X180670857Y-96498819D02*
X180766095Y-96546438D01*
X180766095Y-96546438D02*
X180813714Y-96594057D01*
X180813714Y-96594057D02*
X180861333Y-96689295D01*
X180861333Y-96689295D02*
X180861333Y-96784533D01*
X180861333Y-96784533D02*
X180813714Y-96927390D01*
X180813714Y-96927390D02*
X180242286Y-97498819D01*
X180242286Y-97498819D02*
X180861333Y-97498819D01*
X181242286Y-96594057D02*
X181289905Y-96546438D01*
X181289905Y-96546438D02*
X181385143Y-96498819D01*
X181385143Y-96498819D02*
X181623238Y-96498819D01*
X181623238Y-96498819D02*
X181718476Y-96546438D01*
X181718476Y-96546438D02*
X181766095Y-96594057D01*
X181766095Y-96594057D02*
X181813714Y-96689295D01*
X181813714Y-96689295D02*
X181813714Y-96784533D01*
X181813714Y-96784533D02*
X181766095Y-96927390D01*
X181766095Y-96927390D02*
X181194667Y-97498819D01*
X181194667Y-97498819D02*
X181813714Y-97498819D01*
X182432762Y-96498819D02*
X182528000Y-96498819D01*
X182528000Y-96498819D02*
X182623238Y-96546438D01*
X182623238Y-96546438D02*
X182670857Y-96594057D01*
X182670857Y-96594057D02*
X182718476Y-96689295D01*
X182718476Y-96689295D02*
X182766095Y-96879771D01*
X182766095Y-96879771D02*
X182766095Y-97117866D01*
X182766095Y-97117866D02*
X182718476Y-97308342D01*
X182718476Y-97308342D02*
X182670857Y-97403580D01*
X182670857Y-97403580D02*
X182623238Y-97451200D01*
X182623238Y-97451200D02*
X182528000Y-97498819D01*
X182528000Y-97498819D02*
X182432762Y-97498819D01*
X182432762Y-97498819D02*
X182337524Y-97451200D01*
X182337524Y-97451200D02*
X182289905Y-97403580D01*
X182289905Y-97403580D02*
X182242286Y-97308342D01*
X182242286Y-97308342D02*
X182194667Y-97117866D01*
X182194667Y-97117866D02*
X182194667Y-96879771D01*
X182194667Y-96879771D02*
X182242286Y-96689295D01*
X182242286Y-96689295D02*
X182289905Y-96594057D01*
X182289905Y-96594057D02*
X182337524Y-96546438D01*
X182337524Y-96546438D02*
X182432762Y-96498819D01*
X192962819Y-142267523D02*
X193677104Y-142267523D01*
X193677104Y-142267523D02*
X193819961Y-142315142D01*
X193819961Y-142315142D02*
X193915200Y-142410380D01*
X193915200Y-142410380D02*
X193962819Y-142553237D01*
X193962819Y-142553237D02*
X193962819Y-142648475D01*
X193962819Y-141267523D02*
X193962819Y-141838951D01*
X193962819Y-141553237D02*
X192962819Y-141553237D01*
X192962819Y-141553237D02*
X193105676Y-141648475D01*
X193105676Y-141648475D02*
X193200914Y-141743713D01*
X193200914Y-141743713D02*
X193248533Y-141838951D01*
X193962819Y-140315142D02*
X193962819Y-140886570D01*
X193962819Y-140600856D02*
X192962819Y-140600856D01*
X192962819Y-140600856D02*
X193105676Y-140696094D01*
X193105676Y-140696094D02*
X193200914Y-140791332D01*
X193200914Y-140791332D02*
X193248533Y-140886570D01*
X151421333Y-98584819D02*
X151088000Y-98108628D01*
X150849905Y-98584819D02*
X150849905Y-97584819D01*
X150849905Y-97584819D02*
X151230857Y-97584819D01*
X151230857Y-97584819D02*
X151326095Y-97632438D01*
X151326095Y-97632438D02*
X151373714Y-97680057D01*
X151373714Y-97680057D02*
X151421333Y-97775295D01*
X151421333Y-97775295D02*
X151421333Y-97918152D01*
X151421333Y-97918152D02*
X151373714Y-98013390D01*
X151373714Y-98013390D02*
X151326095Y-98061009D01*
X151326095Y-98061009D02*
X151230857Y-98108628D01*
X151230857Y-98108628D02*
X150849905Y-98108628D01*
X151802286Y-97680057D02*
X151849905Y-97632438D01*
X151849905Y-97632438D02*
X151945143Y-97584819D01*
X151945143Y-97584819D02*
X152183238Y-97584819D01*
X152183238Y-97584819D02*
X152278476Y-97632438D01*
X152278476Y-97632438D02*
X152326095Y-97680057D01*
X152326095Y-97680057D02*
X152373714Y-97775295D01*
X152373714Y-97775295D02*
X152373714Y-97870533D01*
X152373714Y-97870533D02*
X152326095Y-98013390D01*
X152326095Y-98013390D02*
X151754667Y-98584819D01*
X151754667Y-98584819D02*
X152373714Y-98584819D01*
X145897523Y-97918152D02*
X145897523Y-98584819D01*
X145659428Y-97537200D02*
X145421333Y-98251485D01*
X145421333Y-98251485D02*
X146040380Y-98251485D01*
X146421333Y-98584819D02*
X146421333Y-97584819D01*
X146516571Y-98203866D02*
X146802285Y-98584819D01*
X146802285Y-97918152D02*
X146421333Y-98299104D01*
X147135619Y-97584819D02*
X147802285Y-97584819D01*
X147802285Y-97584819D02*
X147373714Y-98584819D01*
X166877580Y-95640666D02*
X166925200Y-95688285D01*
X166925200Y-95688285D02*
X166972819Y-95831142D01*
X166972819Y-95831142D02*
X166972819Y-95926380D01*
X166972819Y-95926380D02*
X166925200Y-96069237D01*
X166925200Y-96069237D02*
X166829961Y-96164475D01*
X166829961Y-96164475D02*
X166734723Y-96212094D01*
X166734723Y-96212094D02*
X166544247Y-96259713D01*
X166544247Y-96259713D02*
X166401390Y-96259713D01*
X166401390Y-96259713D02*
X166210914Y-96212094D01*
X166210914Y-96212094D02*
X166115676Y-96164475D01*
X166115676Y-96164475D02*
X166020438Y-96069237D01*
X166020438Y-96069237D02*
X165972819Y-95926380D01*
X165972819Y-95926380D02*
X165972819Y-95831142D01*
X165972819Y-95831142D02*
X166020438Y-95688285D01*
X166020438Y-95688285D02*
X166068057Y-95640666D01*
X166068057Y-95259713D02*
X166020438Y-95212094D01*
X166020438Y-95212094D02*
X165972819Y-95116856D01*
X165972819Y-95116856D02*
X165972819Y-94878761D01*
X165972819Y-94878761D02*
X166020438Y-94783523D01*
X166020438Y-94783523D02*
X166068057Y-94735904D01*
X166068057Y-94735904D02*
X166163295Y-94688285D01*
X166163295Y-94688285D02*
X166258533Y-94688285D01*
X166258533Y-94688285D02*
X166401390Y-94735904D01*
X166401390Y-94735904D02*
X166972819Y-95307332D01*
X166972819Y-95307332D02*
X166972819Y-94688285D01*
X120396095Y-63224819D02*
X120396095Y-62224819D01*
X120396095Y-62701009D02*
X120967523Y-62701009D01*
X120967523Y-63224819D02*
X120967523Y-62224819D01*
X121872285Y-62558152D02*
X121872285Y-63224819D01*
X121634190Y-62177200D02*
X121396095Y-62891485D01*
X121396095Y-62891485D02*
X122015142Y-62891485D01*
X162815019Y-98920304D02*
X163624542Y-98920304D01*
X163624542Y-98920304D02*
X163719780Y-98872685D01*
X163719780Y-98872685D02*
X163767400Y-98825066D01*
X163767400Y-98825066D02*
X163815019Y-98729828D01*
X163815019Y-98729828D02*
X163815019Y-98539352D01*
X163815019Y-98539352D02*
X163767400Y-98444114D01*
X163767400Y-98444114D02*
X163719780Y-98396495D01*
X163719780Y-98396495D02*
X163624542Y-98348876D01*
X163624542Y-98348876D02*
X162815019Y-98348876D01*
X163815019Y-97348876D02*
X163815019Y-97920304D01*
X163815019Y-97634590D02*
X162815019Y-97634590D01*
X162815019Y-97634590D02*
X162957876Y-97729828D01*
X162957876Y-97729828D02*
X163053114Y-97825066D01*
X163053114Y-97825066D02*
X163100733Y-97920304D01*
X151431333Y-93758819D02*
X151098000Y-93282628D01*
X150859905Y-93758819D02*
X150859905Y-92758819D01*
X150859905Y-92758819D02*
X151240857Y-92758819D01*
X151240857Y-92758819D02*
X151336095Y-92806438D01*
X151336095Y-92806438D02*
X151383714Y-92854057D01*
X151383714Y-92854057D02*
X151431333Y-92949295D01*
X151431333Y-92949295D02*
X151431333Y-93092152D01*
X151431333Y-93092152D02*
X151383714Y-93187390D01*
X151383714Y-93187390D02*
X151336095Y-93235009D01*
X151336095Y-93235009D02*
X151240857Y-93282628D01*
X151240857Y-93282628D02*
X150859905Y-93282628D01*
X152383714Y-93758819D02*
X151812286Y-93758819D01*
X152098000Y-93758819D02*
X152098000Y-92758819D01*
X152098000Y-92758819D02*
X152002762Y-92901676D01*
X152002762Y-92901676D02*
X151907524Y-92996914D01*
X151907524Y-92996914D02*
X151812286Y-93044533D01*
X146407523Y-93092152D02*
X146407523Y-93758819D01*
X146169428Y-92711200D02*
X145931333Y-93425485D01*
X145931333Y-93425485D02*
X146550380Y-93425485D01*
X146931333Y-93758819D02*
X146931333Y-92758819D01*
X147026571Y-93377866D02*
X147312285Y-93758819D01*
X147312285Y-93092152D02*
X146931333Y-93473104D01*
X147645619Y-92758819D02*
X148312285Y-92758819D01*
X148312285Y-92758819D02*
X147883714Y-93758819D01*
X127574819Y-74045523D02*
X128289104Y-74045523D01*
X128289104Y-74045523D02*
X128431961Y-74093142D01*
X128431961Y-74093142D02*
X128527200Y-74188380D01*
X128527200Y-74188380D02*
X128574819Y-74331237D01*
X128574819Y-74331237D02*
X128574819Y-74426475D01*
X128574819Y-73045523D02*
X128574819Y-73616951D01*
X128574819Y-73331237D02*
X127574819Y-73331237D01*
X127574819Y-73331237D02*
X127717676Y-73426475D01*
X127717676Y-73426475D02*
X127812914Y-73521713D01*
X127812914Y-73521713D02*
X127860533Y-73616951D01*
X127670057Y-72664570D02*
X127622438Y-72616951D01*
X127622438Y-72616951D02*
X127574819Y-72521713D01*
X127574819Y-72521713D02*
X127574819Y-72283618D01*
X127574819Y-72283618D02*
X127622438Y-72188380D01*
X127622438Y-72188380D02*
X127670057Y-72140761D01*
X127670057Y-72140761D02*
X127765295Y-72093142D01*
X127765295Y-72093142D02*
X127860533Y-72093142D01*
X127860533Y-72093142D02*
X128003390Y-72140761D01*
X128003390Y-72140761D02*
X128574819Y-72712189D01*
X128574819Y-72712189D02*
X128574819Y-72093142D01*
X123674819Y-92161904D02*
X122674819Y-92161904D01*
X122674819Y-92161904D02*
X123389104Y-91828571D01*
X123389104Y-91828571D02*
X122674819Y-91495238D01*
X122674819Y-91495238D02*
X123674819Y-91495238D01*
X123674819Y-91019047D02*
X122674819Y-91019047D01*
X122674819Y-91019047D02*
X122674819Y-90638095D01*
X122674819Y-90638095D02*
X122722438Y-90542857D01*
X122722438Y-90542857D02*
X122770057Y-90495238D01*
X122770057Y-90495238D02*
X122865295Y-90447619D01*
X122865295Y-90447619D02*
X123008152Y-90447619D01*
X123008152Y-90447619D02*
X123103390Y-90495238D01*
X123103390Y-90495238D02*
X123151009Y-90542857D01*
X123151009Y-90542857D02*
X123198628Y-90638095D01*
X123198628Y-90638095D02*
X123198628Y-91019047D01*
X122674819Y-90019047D02*
X123484342Y-90019047D01*
X123484342Y-90019047D02*
X123579580Y-89971428D01*
X123579580Y-89971428D02*
X123627200Y-89923809D01*
X123627200Y-89923809D02*
X123674819Y-89828571D01*
X123674819Y-89828571D02*
X123674819Y-89638095D01*
X123674819Y-89638095D02*
X123627200Y-89542857D01*
X123627200Y-89542857D02*
X123579580Y-89495238D01*
X123579580Y-89495238D02*
X123484342Y-89447619D01*
X123484342Y-89447619D02*
X122674819Y-89447619D01*
X122674819Y-88542857D02*
X122674819Y-88733333D01*
X122674819Y-88733333D02*
X122722438Y-88828571D01*
X122722438Y-88828571D02*
X122770057Y-88876190D01*
X122770057Y-88876190D02*
X122912914Y-88971428D01*
X122912914Y-88971428D02*
X123103390Y-89019047D01*
X123103390Y-89019047D02*
X123484342Y-89019047D01*
X123484342Y-89019047D02*
X123579580Y-88971428D01*
X123579580Y-88971428D02*
X123627200Y-88923809D01*
X123627200Y-88923809D02*
X123674819Y-88828571D01*
X123674819Y-88828571D02*
X123674819Y-88638095D01*
X123674819Y-88638095D02*
X123627200Y-88542857D01*
X123627200Y-88542857D02*
X123579580Y-88495238D01*
X123579580Y-88495238D02*
X123484342Y-88447619D01*
X123484342Y-88447619D02*
X123246247Y-88447619D01*
X123246247Y-88447619D02*
X123151009Y-88495238D01*
X123151009Y-88495238D02*
X123103390Y-88542857D01*
X123103390Y-88542857D02*
X123055771Y-88638095D01*
X123055771Y-88638095D02*
X123055771Y-88828571D01*
X123055771Y-88828571D02*
X123103390Y-88923809D01*
X123103390Y-88923809D02*
X123151009Y-88971428D01*
X123151009Y-88971428D02*
X123246247Y-89019047D01*
X122674819Y-87828571D02*
X122674819Y-87733333D01*
X122674819Y-87733333D02*
X122722438Y-87638095D01*
X122722438Y-87638095D02*
X122770057Y-87590476D01*
X122770057Y-87590476D02*
X122865295Y-87542857D01*
X122865295Y-87542857D02*
X123055771Y-87495238D01*
X123055771Y-87495238D02*
X123293866Y-87495238D01*
X123293866Y-87495238D02*
X123484342Y-87542857D01*
X123484342Y-87542857D02*
X123579580Y-87590476D01*
X123579580Y-87590476D02*
X123627200Y-87638095D01*
X123627200Y-87638095D02*
X123674819Y-87733333D01*
X123674819Y-87733333D02*
X123674819Y-87828571D01*
X123674819Y-87828571D02*
X123627200Y-87923809D01*
X123627200Y-87923809D02*
X123579580Y-87971428D01*
X123579580Y-87971428D02*
X123484342Y-88019047D01*
X123484342Y-88019047D02*
X123293866Y-88066666D01*
X123293866Y-88066666D02*
X123055771Y-88066666D01*
X123055771Y-88066666D02*
X122865295Y-88019047D01*
X122865295Y-88019047D02*
X122770057Y-87971428D01*
X122770057Y-87971428D02*
X122722438Y-87923809D01*
X122722438Y-87923809D02*
X122674819Y-87828571D01*
X122674819Y-86590476D02*
X122674819Y-87066666D01*
X122674819Y-87066666D02*
X123151009Y-87114285D01*
X123151009Y-87114285D02*
X123103390Y-87066666D01*
X123103390Y-87066666D02*
X123055771Y-86971428D01*
X123055771Y-86971428D02*
X123055771Y-86733333D01*
X123055771Y-86733333D02*
X123103390Y-86638095D01*
X123103390Y-86638095D02*
X123151009Y-86590476D01*
X123151009Y-86590476D02*
X123246247Y-86542857D01*
X123246247Y-86542857D02*
X123484342Y-86542857D01*
X123484342Y-86542857D02*
X123579580Y-86590476D01*
X123579580Y-86590476D02*
X123627200Y-86638095D01*
X123627200Y-86638095D02*
X123674819Y-86733333D01*
X123674819Y-86733333D02*
X123674819Y-86971428D01*
X123674819Y-86971428D02*
X123627200Y-87066666D01*
X123627200Y-87066666D02*
X123579580Y-87114285D01*
X122674819Y-85923809D02*
X122674819Y-85828571D01*
X122674819Y-85828571D02*
X122722438Y-85733333D01*
X122722438Y-85733333D02*
X122770057Y-85685714D01*
X122770057Y-85685714D02*
X122865295Y-85638095D01*
X122865295Y-85638095D02*
X123055771Y-85590476D01*
X123055771Y-85590476D02*
X123293866Y-85590476D01*
X123293866Y-85590476D02*
X123484342Y-85638095D01*
X123484342Y-85638095D02*
X123579580Y-85685714D01*
X123579580Y-85685714D02*
X123627200Y-85733333D01*
X123627200Y-85733333D02*
X123674819Y-85828571D01*
X123674819Y-85828571D02*
X123674819Y-85923809D01*
X123674819Y-85923809D02*
X123627200Y-86019047D01*
X123627200Y-86019047D02*
X123579580Y-86066666D01*
X123579580Y-86066666D02*
X123484342Y-86114285D01*
X123484342Y-86114285D02*
X123293866Y-86161904D01*
X123293866Y-86161904D02*
X123055771Y-86161904D01*
X123055771Y-86161904D02*
X122865295Y-86114285D01*
X122865295Y-86114285D02*
X122770057Y-86066666D01*
X122770057Y-86066666D02*
X122722438Y-86019047D01*
X122722438Y-86019047D02*
X122674819Y-85923809D01*
X193037819Y-146580523D02*
X193752104Y-146580523D01*
X193752104Y-146580523D02*
X193894961Y-146628142D01*
X193894961Y-146628142D02*
X193990200Y-146723380D01*
X193990200Y-146723380D02*
X194037819Y-146866237D01*
X194037819Y-146866237D02*
X194037819Y-146961475D01*
X194037819Y-145580523D02*
X194037819Y-146151951D01*
X194037819Y-145866237D02*
X193037819Y-145866237D01*
X193037819Y-145866237D02*
X193180676Y-145961475D01*
X193180676Y-145961475D02*
X193275914Y-146056713D01*
X193275914Y-146056713D02*
X193323533Y-146151951D01*
X193037819Y-145247189D02*
X193037819Y-144628142D01*
X193037819Y-144628142D02*
X193418771Y-144961475D01*
X193418771Y-144961475D02*
X193418771Y-144818618D01*
X193418771Y-144818618D02*
X193466390Y-144723380D01*
X193466390Y-144723380D02*
X193514009Y-144675761D01*
X193514009Y-144675761D02*
X193609247Y-144628142D01*
X193609247Y-144628142D02*
X193847342Y-144628142D01*
X193847342Y-144628142D02*
X193942580Y-144675761D01*
X193942580Y-144675761D02*
X193990200Y-144723380D01*
X193990200Y-144723380D02*
X194037819Y-144818618D01*
X194037819Y-144818618D02*
X194037819Y-145104332D01*
X194037819Y-145104332D02*
X193990200Y-145199570D01*
X193990200Y-145199570D02*
X193942580Y-145247189D01*
X195003009Y-146573714D02*
X195050628Y-146430857D01*
X195050628Y-146430857D02*
X195098247Y-146383238D01*
X195098247Y-146383238D02*
X195193485Y-146335619D01*
X195193485Y-146335619D02*
X195336342Y-146335619D01*
X195336342Y-146335619D02*
X195431580Y-146383238D01*
X195431580Y-146383238D02*
X195479200Y-146430857D01*
X195479200Y-146430857D02*
X195526819Y-146526095D01*
X195526819Y-146526095D02*
X195526819Y-146907047D01*
X195526819Y-146907047D02*
X194526819Y-146907047D01*
X194526819Y-146907047D02*
X194526819Y-146573714D01*
X194526819Y-146573714D02*
X194574438Y-146478476D01*
X194574438Y-146478476D02*
X194622057Y-146430857D01*
X194622057Y-146430857D02*
X194717295Y-146383238D01*
X194717295Y-146383238D02*
X194812533Y-146383238D01*
X194812533Y-146383238D02*
X194907771Y-146430857D01*
X194907771Y-146430857D02*
X194955390Y-146478476D01*
X194955390Y-146478476D02*
X195003009Y-146573714D01*
X195003009Y-146573714D02*
X195003009Y-146907047D01*
X195526819Y-145478476D02*
X195003009Y-145478476D01*
X195003009Y-145478476D02*
X194907771Y-145526095D01*
X194907771Y-145526095D02*
X194860152Y-145621333D01*
X194860152Y-145621333D02*
X194860152Y-145811809D01*
X194860152Y-145811809D02*
X194907771Y-145907047D01*
X195479200Y-145478476D02*
X195526819Y-145573714D01*
X195526819Y-145573714D02*
X195526819Y-145811809D01*
X195526819Y-145811809D02*
X195479200Y-145907047D01*
X195479200Y-145907047D02*
X195383961Y-145954666D01*
X195383961Y-145954666D02*
X195288723Y-145954666D01*
X195288723Y-145954666D02*
X195193485Y-145907047D01*
X195193485Y-145907047D02*
X195145866Y-145811809D01*
X195145866Y-145811809D02*
X195145866Y-145573714D01*
X195145866Y-145573714D02*
X195098247Y-145478476D01*
X194860152Y-145145142D02*
X194860152Y-144764190D01*
X194526819Y-145002285D02*
X195383961Y-145002285D01*
X195383961Y-145002285D02*
X195479200Y-144954666D01*
X195479200Y-144954666D02*
X195526819Y-144859428D01*
X195526819Y-144859428D02*
X195526819Y-144764190D01*
X195145866Y-144430856D02*
X195145866Y-143668952D01*
X120965200Y-108927332D02*
X121012819Y-108784475D01*
X121012819Y-108784475D02*
X121012819Y-108546380D01*
X121012819Y-108546380D02*
X120965200Y-108451142D01*
X120965200Y-108451142D02*
X120917580Y-108403523D01*
X120917580Y-108403523D02*
X120822342Y-108355904D01*
X120822342Y-108355904D02*
X120727104Y-108355904D01*
X120727104Y-108355904D02*
X120631866Y-108403523D01*
X120631866Y-108403523D02*
X120584247Y-108451142D01*
X120584247Y-108451142D02*
X120536628Y-108546380D01*
X120536628Y-108546380D02*
X120489009Y-108736856D01*
X120489009Y-108736856D02*
X120441390Y-108832094D01*
X120441390Y-108832094D02*
X120393771Y-108879713D01*
X120393771Y-108879713D02*
X120298533Y-108927332D01*
X120298533Y-108927332D02*
X120203295Y-108927332D01*
X120203295Y-108927332D02*
X120108057Y-108879713D01*
X120108057Y-108879713D02*
X120060438Y-108832094D01*
X120060438Y-108832094D02*
X120012819Y-108736856D01*
X120012819Y-108736856D02*
X120012819Y-108498761D01*
X120012819Y-108498761D02*
X120060438Y-108355904D01*
X120012819Y-108022570D02*
X121012819Y-107784475D01*
X121012819Y-107784475D02*
X120298533Y-107593999D01*
X120298533Y-107593999D02*
X121012819Y-107403523D01*
X121012819Y-107403523D02*
X120012819Y-107165428D01*
X121012819Y-106260666D02*
X121012819Y-106832094D01*
X121012819Y-106546380D02*
X120012819Y-106546380D01*
X120012819Y-106546380D02*
X120155676Y-106641618D01*
X120155676Y-106641618D02*
X120250914Y-106736856D01*
X120250914Y-106736856D02*
X120298533Y-106832094D01*
X130058819Y-136196666D02*
X129582628Y-136529999D01*
X130058819Y-136768094D02*
X129058819Y-136768094D01*
X129058819Y-136768094D02*
X129058819Y-136387142D01*
X129058819Y-136387142D02*
X129106438Y-136291904D01*
X129106438Y-136291904D02*
X129154057Y-136244285D01*
X129154057Y-136244285D02*
X129249295Y-136196666D01*
X129249295Y-136196666D02*
X129392152Y-136196666D01*
X129392152Y-136196666D02*
X129487390Y-136244285D01*
X129487390Y-136244285D02*
X129535009Y-136291904D01*
X129535009Y-136291904D02*
X129582628Y-136387142D01*
X129582628Y-136387142D02*
X129582628Y-136768094D01*
X129392152Y-135339523D02*
X130058819Y-135339523D01*
X129011200Y-135577618D02*
X129725485Y-135815713D01*
X129725485Y-135815713D02*
X129725485Y-135196666D01*
X129074057Y-141498094D02*
X129026438Y-141450475D01*
X129026438Y-141450475D02*
X128978819Y-141355237D01*
X128978819Y-141355237D02*
X128978819Y-141117142D01*
X128978819Y-141117142D02*
X129026438Y-141021904D01*
X129026438Y-141021904D02*
X129074057Y-140974285D01*
X129074057Y-140974285D02*
X129169295Y-140926666D01*
X129169295Y-140926666D02*
X129264533Y-140926666D01*
X129264533Y-140926666D02*
X129407390Y-140974285D01*
X129407390Y-140974285D02*
X129978819Y-141545713D01*
X129978819Y-141545713D02*
X129978819Y-140926666D01*
X129074057Y-140545713D02*
X129026438Y-140498094D01*
X129026438Y-140498094D02*
X128978819Y-140402856D01*
X128978819Y-140402856D02*
X128978819Y-140164761D01*
X128978819Y-140164761D02*
X129026438Y-140069523D01*
X129026438Y-140069523D02*
X129074057Y-140021904D01*
X129074057Y-140021904D02*
X129169295Y-139974285D01*
X129169295Y-139974285D02*
X129264533Y-139974285D01*
X129264533Y-139974285D02*
X129407390Y-140021904D01*
X129407390Y-140021904D02*
X129978819Y-140593332D01*
X129978819Y-140593332D02*
X129978819Y-139974285D01*
X128978819Y-139355237D02*
X128978819Y-139259999D01*
X128978819Y-139259999D02*
X129026438Y-139164761D01*
X129026438Y-139164761D02*
X129074057Y-139117142D01*
X129074057Y-139117142D02*
X129169295Y-139069523D01*
X129169295Y-139069523D02*
X129359771Y-139021904D01*
X129359771Y-139021904D02*
X129597866Y-139021904D01*
X129597866Y-139021904D02*
X129788342Y-139069523D01*
X129788342Y-139069523D02*
X129883580Y-139117142D01*
X129883580Y-139117142D02*
X129931200Y-139164761D01*
X129931200Y-139164761D02*
X129978819Y-139259999D01*
X129978819Y-139259999D02*
X129978819Y-139355237D01*
X129978819Y-139355237D02*
X129931200Y-139450475D01*
X129931200Y-139450475D02*
X129883580Y-139498094D01*
X129883580Y-139498094D02*
X129788342Y-139545713D01*
X129788342Y-139545713D02*
X129597866Y-139593332D01*
X129597866Y-139593332D02*
X129359771Y-139593332D01*
X129359771Y-139593332D02*
X129169295Y-139545713D01*
X129169295Y-139545713D02*
X129074057Y-139498094D01*
X129074057Y-139498094D02*
X129026438Y-139450475D01*
X129026438Y-139450475D02*
X128978819Y-139355237D01*
D11*
%TO.C,D4*%
X133032000Y-136357000D02*
X132876000Y-136357000D01*
X135348000Y-136357000D02*
X135192000Y-136357000D01*
X133032164Y-138958129D02*
G75*
G02*
X133032001Y-136876040I1079836J1041129D01*
G01*
X133033392Y-139589334D02*
G75*
G02*
X132876485Y-136357001I1078608J1672334D01*
G01*
X135191999Y-136876040D02*
G75*
G02*
X135191836Y-138958129I-1079999J-1040960D01*
G01*
X135347515Y-136357001D02*
G75*
G02*
X135190608Y-139589334I-1235515J-1559999D01*
G01*
%TO.C,R6*%
X151538000Y-71152000D02*
X151538000Y-77692000D01*
X151538000Y-77692000D02*
X154278000Y-77692000D01*
X152908000Y-70382000D02*
X152908000Y-71152000D01*
X152908000Y-78462000D02*
X152908000Y-77692000D01*
X154278000Y-71152000D02*
X151538000Y-71152000D01*
X154278000Y-77692000D02*
X154278000Y-71152000D01*
%TO.C,U3*%
X182017000Y-118832000D02*
X182017000Y-129072000D01*
X185148000Y-118832000D02*
X185148000Y-129072000D01*
X186658000Y-118832000D02*
X182017000Y-118832000D01*
X186658000Y-118832000D02*
X186658000Y-129072000D01*
X186658000Y-122102000D02*
X185148000Y-122102000D01*
X186658000Y-125803000D02*
X185148000Y-125803000D01*
X186658000Y-129072000D02*
X182017000Y-129072000D01*
%TO.C,J14*%
X142688000Y-82744000D02*
X144018000Y-82744000D01*
X142688000Y-84074000D02*
X142688000Y-82744000D01*
X145288000Y-82744000D02*
X193608000Y-82744000D01*
X145288000Y-85404000D02*
X145288000Y-82744000D01*
X145288000Y-85404000D02*
X193608000Y-85404000D01*
X193608000Y-85404000D02*
X193608000Y-82744000D01*
%TO.C,J4*%
X142688000Y-110552000D02*
X142688000Y-113212000D01*
X191008000Y-110552000D02*
X142688000Y-110552000D01*
X191008000Y-110552000D02*
X191008000Y-113212000D01*
X191008000Y-113212000D02*
X142688000Y-113212000D01*
X193608000Y-111882000D02*
X193608000Y-113212000D01*
X193608000Y-113212000D02*
X192278000Y-113212000D01*
%TO.C,J6*%
X191770000Y-126238000D02*
X194310000Y-126238000D01*
X193040000Y-124968000D02*
X193040000Y-127508000D01*
X196850000Y-130302000D02*
X195580000Y-130302000D01*
X196850000Y-131572000D02*
X195580000Y-131572000D01*
X196850000Y-132842000D02*
X195580000Y-132842000D01*
X196850000Y-134112000D02*
X195580000Y-134112000D01*
X200660000Y-130302000D02*
X201930000Y-130302000D01*
X200660000Y-131572000D02*
X201930000Y-131572000D01*
X200660000Y-132842000D02*
X201930000Y-132842000D01*
X200660000Y-134112000D02*
X201930000Y-134112000D01*
X191262000Y-128016000D02*
X194818000Y-128016000D01*
X194818000Y-124460000D01*
X191262000Y-124460000D01*
X191262000Y-128016000D01*
X194310000Y-137287000D02*
X198120000Y-137287000D01*
X198120000Y-135382000D01*
X194310000Y-135382000D01*
X194310000Y-137287000D01*
X195834000Y-128270000D02*
X201930000Y-128270000D01*
X201930000Y-122428000D01*
X195834000Y-122428000D01*
X195834000Y-128270000D01*
X196850000Y-134620000D02*
X200660000Y-134620000D01*
X200660000Y-129540000D01*
X196850000Y-129540000D01*
X196850000Y-134620000D01*
X202500000Y-119922000D02*
X190500000Y-119922000D01*
X190500000Y-137922000D01*
X202500000Y-137922000D01*
X202500000Y-119922000D01*
X194310000Y-126238000D02*
G75*
G02*
X191770000Y-126238000I-1270000J0D01*
G01*
X191770000Y-126238000D02*
G75*
G02*
X194310000Y-126238000I1270000J0D01*
G01*
%TO.C,R5*%
X134520000Y-85884000D02*
X134520000Y-92424000D01*
X134520000Y-92424000D02*
X137260000Y-92424000D01*
X135890000Y-85114000D02*
X135890000Y-85884000D01*
X135890000Y-93194000D02*
X135890000Y-92424000D01*
X137260000Y-85884000D02*
X134520000Y-85884000D01*
X137260000Y-92424000D02*
X137260000Y-85884000D01*
%TO.C,J1*%
X148130000Y-61770000D02*
X148130000Y-64430000D01*
X148130000Y-64430000D02*
X173650000Y-64430000D01*
X148190000Y-67140000D02*
X148190000Y-65870000D01*
X149080000Y-55770000D02*
X149840000Y-55770000D01*
X149080000Y-61770000D02*
X149080000Y-55770000D01*
X149080000Y-64760000D02*
X149080000Y-64430000D01*
X149140000Y-61770000D02*
X149140000Y-55770000D01*
X149260000Y-61770000D02*
X149260000Y-55770000D01*
X149380000Y-61770000D02*
X149380000Y-55770000D01*
X149460000Y-67140000D02*
X148190000Y-67140000D01*
X149500000Y-61770000D02*
X149500000Y-55770000D01*
X149620000Y-61770000D02*
X149620000Y-55770000D01*
X149740000Y-61770000D02*
X149740000Y-55770000D01*
X149840000Y-55770000D02*
X149840000Y-61770000D01*
X149840000Y-64760000D02*
X149840000Y-64430000D01*
X150730000Y-64430000D02*
X150730000Y-61770000D01*
X151620000Y-55770000D02*
X152380000Y-55770000D01*
X151620000Y-61770000D02*
X151620000Y-55770000D01*
X151620000Y-64827071D02*
X151620000Y-64430000D01*
X152380000Y-55770000D02*
X152380000Y-61770000D01*
X152380000Y-64827071D02*
X152380000Y-64430000D01*
X153270000Y-64430000D02*
X153270000Y-61770000D01*
X154160000Y-55770000D02*
X154920000Y-55770000D01*
X154160000Y-61770000D02*
X154160000Y-55770000D01*
X154160000Y-64827071D02*
X154160000Y-64430000D01*
X154920000Y-55770000D02*
X154920000Y-61770000D01*
X154920000Y-64827071D02*
X154920000Y-64430000D01*
X155810000Y-64430000D02*
X155810000Y-61770000D01*
X156700000Y-55770000D02*
X157460000Y-55770000D01*
X156700000Y-61770000D02*
X156700000Y-55770000D01*
X156700000Y-64827071D02*
X156700000Y-64430000D01*
X157460000Y-55770000D02*
X157460000Y-61770000D01*
X157460000Y-64827071D02*
X157460000Y-64430000D01*
X158350000Y-64430000D02*
X158350000Y-61770000D01*
X159240000Y-55770000D02*
X160000000Y-55770000D01*
X159240000Y-61770000D02*
X159240000Y-55770000D01*
X159240000Y-64827071D02*
X159240000Y-64430000D01*
X160000000Y-55770000D02*
X160000000Y-61770000D01*
X160000000Y-64827071D02*
X160000000Y-64430000D01*
X160890000Y-64430000D02*
X160890000Y-61770000D01*
X161780000Y-55770000D02*
X162540000Y-55770000D01*
X161780000Y-61770000D02*
X161780000Y-55770000D01*
X161780000Y-64827071D02*
X161780000Y-64430000D01*
X162540000Y-55770000D02*
X162540000Y-61770000D01*
X162540000Y-64827071D02*
X162540000Y-64430000D01*
X163430000Y-64430000D02*
X163430000Y-61770000D01*
X164320000Y-55770000D02*
X165080000Y-55770000D01*
X164320000Y-61770000D02*
X164320000Y-55770000D01*
X164320000Y-64827071D02*
X164320000Y-64430000D01*
X165080000Y-55770000D02*
X165080000Y-61770000D01*
X165080000Y-64827071D02*
X165080000Y-64430000D01*
X165970000Y-64430000D02*
X165970000Y-61770000D01*
X166860000Y-55770000D02*
X167620000Y-55770000D01*
X166860000Y-61770000D02*
X166860000Y-55770000D01*
X166860000Y-64827071D02*
X166860000Y-64430000D01*
X167620000Y-55770000D02*
X167620000Y-61770000D01*
X167620000Y-64827071D02*
X167620000Y-64430000D01*
X168510000Y-64430000D02*
X168510000Y-61770000D01*
X169400000Y-55770000D02*
X170160000Y-55770000D01*
X169400000Y-61770000D02*
X169400000Y-55770000D01*
X169400000Y-64827071D02*
X169400000Y-64430000D01*
X170160000Y-55770000D02*
X170160000Y-61770000D01*
X170160000Y-64827071D02*
X170160000Y-64430000D01*
X171050000Y-64430000D02*
X171050000Y-61770000D01*
X171940000Y-55770000D02*
X172700000Y-55770000D01*
X171940000Y-61770000D02*
X171940000Y-55770000D01*
X171940000Y-64827071D02*
X171940000Y-64430000D01*
X172700000Y-55770000D02*
X172700000Y-61770000D01*
X172700000Y-64827071D02*
X172700000Y-64430000D01*
X173650000Y-61770000D02*
X148130000Y-61770000D01*
X173650000Y-64430000D02*
X173650000Y-61770000D01*
%TO.C,J5*%
X186839000Y-72843000D02*
X186839000Y-75503000D01*
X189439000Y-72843000D02*
X186839000Y-72843000D01*
X189439000Y-72843000D02*
X189439000Y-75503000D01*
X189439000Y-75503000D02*
X186839000Y-75503000D01*
X192039000Y-74173000D02*
X192039000Y-75503000D01*
X192039000Y-75503000D02*
X190709000Y-75503000D01*
%TO.C,D3*%
X200701000Y-80449000D02*
X200701000Y-80293000D01*
X200701000Y-82765000D02*
X200701000Y-82609000D01*
X197468666Y-80450392D02*
G75*
G02*
X200700999Y-80293485I1672334J-1078608D01*
G01*
X198099871Y-80449164D02*
G75*
G02*
X200181960Y-80449001I1041129J-1079836D01*
G01*
X200181960Y-82608999D02*
G75*
G02*
X198099871Y-82608836I-1040960J1079999D01*
G01*
X200700999Y-82764515D02*
G75*
G02*
X197468666Y-82607608I-1559999J1235515D01*
G01*
%TO.C,C1*%
X131656000Y-103449000D02*
X131656000Y-102824000D01*
X131656000Y-105664000D02*
X131656000Y-105039000D01*
X135696000Y-102824000D02*
X131656000Y-102824000D01*
X135696000Y-103449000D02*
X135696000Y-102824000D01*
X135696000Y-105664000D02*
X131656000Y-105664000D01*
X135696000Y-105664000D02*
X135696000Y-105039000D01*
D12*
%TO.C,U2*%
X121326000Y-115846000D02*
X128026000Y-115846000D01*
X121326000Y-130246000D02*
X121326000Y-115846000D01*
X128026000Y-115846000D02*
X128026000Y-130246000D01*
X128026000Y-115846000D02*
X146026000Y-115846000D01*
X128026000Y-130246000D02*
X121326000Y-130246000D01*
X146026000Y-115846000D02*
X146026000Y-130246000D01*
X146026000Y-130246000D02*
X128026000Y-130246000D01*
D13*
X142086000Y-130996000D02*
G75*
G02*
X141886000Y-130996000I-100000J0D01*
G01*
X141886000Y-130996000D02*
G75*
G02*
X142086000Y-130996000I100000J0D01*
G01*
D11*
%TO.C,J2*%
X119828000Y-96206000D02*
X119828000Y-98866000D01*
X127508000Y-96206000D02*
X119828000Y-96206000D01*
X127508000Y-96206000D02*
X127508000Y-98866000D01*
X127508000Y-98866000D02*
X119828000Y-98866000D01*
X130108000Y-97536000D02*
X130108000Y-98866000D01*
X130108000Y-98866000D02*
X128778000Y-98866000D01*
%TO.C,J3*%
X153331000Y-121885000D02*
X153331000Y-124545000D01*
X166091000Y-121885000D02*
X153331000Y-121885000D01*
X166091000Y-121885000D02*
X166091000Y-124545000D01*
X166091000Y-124545000D02*
X153331000Y-124545000D01*
X168691000Y-123215000D02*
X168691000Y-124545000D01*
X168691000Y-124545000D02*
X167361000Y-124545000D01*
%TO.C,SW4*%
X143526000Y-71208000D02*
X143526000Y-75708000D01*
X146026000Y-76958000D02*
X147526000Y-76958000D01*
X147526000Y-69958000D02*
X146026000Y-69958000D01*
X150026000Y-75708000D02*
X150026000Y-71208000D01*
%TO.C,SW2*%
X175926000Y-149090000D02*
X175926000Y-150090000D01*
X176176000Y-139800000D02*
X176176000Y-149840000D01*
X176926000Y-150090000D02*
X175926000Y-150090000D01*
X179196000Y-143220000D02*
X179196000Y-146520000D01*
X179196000Y-143220000D02*
X182496000Y-143220000D01*
X179196000Y-146520000D02*
X182496000Y-146520000D01*
X182496000Y-143220000D02*
X182496000Y-146520000D01*
X185616000Y-139800000D02*
X176176000Y-139800000D01*
X185616000Y-139800000D02*
X185616000Y-149840000D01*
X185616000Y-149840000D02*
X176176000Y-149840000D01*
%TO.C,R3*%
X179348000Y-94864000D02*
X180118000Y-94864000D01*
X180118000Y-93494000D02*
X180118000Y-96234000D01*
X180118000Y-96234000D02*
X186658000Y-96234000D01*
X186658000Y-93494000D02*
X180118000Y-93494000D01*
X186658000Y-96234000D02*
X186658000Y-93494000D01*
X187428000Y-94864000D02*
X186658000Y-94864000D01*
%TO.C,J11*%
X189678000Y-142688000D02*
X189678000Y-142808000D01*
X189678000Y-142808000D02*
X192338000Y-142808000D01*
X191008000Y-140148000D02*
X192338000Y-140148000D01*
X192338000Y-140148000D02*
X192338000Y-141478000D01*
X192338000Y-142688000D02*
X192338000Y-142808000D01*
%TO.C,R2*%
X145058000Y-100330000D02*
X145828000Y-100330000D01*
X145828000Y-98960000D02*
X145828000Y-101700000D01*
X145828000Y-101700000D02*
X152368000Y-101700000D01*
X152368000Y-98960000D02*
X145828000Y-98960000D01*
X152368000Y-101700000D02*
X152368000Y-98960000D01*
X153138000Y-100330000D02*
X152368000Y-100330000D01*
%TO.C,C2*%
X161028000Y-94084000D02*
X161028000Y-94709000D01*
X161028000Y-94084000D02*
X165068000Y-94084000D01*
X161028000Y-96299000D02*
X161028000Y-96924000D01*
X161028000Y-96924000D02*
X165068000Y-96924000D01*
X165068000Y-94084000D02*
X165068000Y-94709000D01*
X165068000Y-96299000D02*
X165068000Y-96924000D01*
%TO.C,U1*%
X142918000Y-89178000D02*
X142918000Y-95258000D01*
X142918000Y-95258000D02*
X143278000Y-95258000D01*
X142918000Y-101337999D02*
X142918000Y-107417999D01*
X142918000Y-107417999D02*
X193378000Y-107418000D01*
X143278000Y-95258000D02*
X143278000Y-101337999D01*
X143278000Y-101337999D02*
X142918000Y-101337999D01*
X193378000Y-89178001D02*
X142918000Y-89178000D01*
X193378000Y-107418000D02*
X193378000Y-89178001D01*
%TO.C,R1*%
X145058000Y-95504000D02*
X145828000Y-95504000D01*
X145828000Y-94134000D02*
X145828000Y-96874000D01*
X145828000Y-96874000D02*
X152368000Y-96874000D01*
X152368000Y-94134000D02*
X145828000Y-94134000D01*
X152368000Y-96874000D02*
X152368000Y-94134000D01*
X153138000Y-95504000D02*
X152368000Y-95504000D01*
%TO.C,J12*%
X124430000Y-89916000D02*
X124430000Y-72076000D01*
X124430000Y-92516000D02*
X124430000Y-91186000D01*
X125760000Y-92516000D02*
X124430000Y-92516000D01*
X127090000Y-72076000D02*
X124430000Y-72076000D01*
X127090000Y-89916000D02*
X124430000Y-89916000D01*
X127090000Y-89916000D02*
X127090000Y-72076000D01*
%TO.C,J13*%
X189678000Y-147006000D02*
X189678000Y-147126000D01*
X189678000Y-147126000D02*
X192338000Y-147126000D01*
X191008000Y-144466000D02*
X192338000Y-144466000D01*
X192338000Y-144466000D02*
X192338000Y-145796000D01*
X192338000Y-147006000D02*
X192338000Y-147126000D01*
%TO.C,SW1*%
X122008000Y-105244000D02*
X122008000Y-109744000D01*
X124508000Y-110994000D02*
X126008000Y-110994000D01*
X126008000Y-103994000D02*
X124508000Y-103994000D01*
X128508000Y-109744000D02*
X128508000Y-105244000D01*
%TO.C,R4*%
X125884000Y-135160000D02*
X125884000Y-141700000D01*
X125884000Y-141700000D02*
X128624000Y-141700000D01*
X127254000Y-134390000D02*
X127254000Y-135160000D01*
X127254000Y-142470000D02*
X127254000Y-141700000D01*
X128624000Y-135160000D02*
X125884000Y-135160000D01*
X128624000Y-141700000D02*
X128624000Y-135160000D01*
%TD*%
D14*
X205740000Y-151892000D02*
X172974000Y-151892000D01*
X172974000Y-136906000D01*
X148844000Y-136906000D01*
X148844000Y-151892000D01*
X116078000Y-151892000D01*
X116078000Y-61870000D01*
X205740000Y-61870000D01*
X205740000Y-151892000D01*
M02*
