%TF.GenerationSoftware,KiCad,Pcbnew,8.0.0*%
%TF.CreationDate,2024-07-22T23:58:39-03:00*%
%TF.ProjectId,PCB_Micro,5043425f-4d69-4637-926f-2e6b69636164,rev?*%
%TF.SameCoordinates,Original*%
%TF.FileFunction,Copper,L2,Bot*%
%TF.FilePolarity,Positive*%
%FSLAX46Y46*%
G04 Gerber Fmt 4.6, Leading zero omitted, Abs format (unit mm)*
G04 Created by KiCad (PCBNEW 8.0.0) date 2024-07-22 23:58:40*
%MOMM*%
%LPD*%
G01*
G04 APERTURE LIST*
%TA.AperFunction,ComponentPad*%
%ADD10R,1.800000X1.800000*%
%TD*%
%TA.AperFunction,ComponentPad*%
%ADD11C,1.800000*%
%TD*%
%TA.AperFunction,ComponentPad*%
%ADD12C,1.600000*%
%TD*%
%TA.AperFunction,ComponentPad*%
%ADD13O,1.600000X1.600000*%
%TD*%
%TA.AperFunction,ComponentPad*%
%ADD14R,2.000000X1.905000*%
%TD*%
%TA.AperFunction,ComponentPad*%
%ADD15O,2.000000X1.905000*%
%TD*%
%TA.AperFunction,ComponentPad*%
%ADD16R,1.700000X1.700000*%
%TD*%
%TA.AperFunction,ComponentPad*%
%ADD17O,1.700000X1.700000*%
%TD*%
%TA.AperFunction,ComponentPad*%
%ADD18C,2.000000*%
%TD*%
%TA.AperFunction,ComponentPad*%
%ADD19R,1.600000X1.600000*%
%TD*%
%TA.AperFunction,ComponentPad*%
%ADD20R,1.500000X1.500000*%
%TD*%
%TA.AperFunction,ComponentPad*%
%ADD21C,1.500000*%
%TD*%
%TA.AperFunction,ComponentPad*%
%ADD22C,1.700000*%
%TD*%
%TA.AperFunction,ComponentPad*%
%ADD23R,2.000000X2.000000*%
%TD*%
%TA.AperFunction,ComponentPad*%
%ADD24O,2.000000X2.000000*%
%TD*%
%TA.AperFunction,Conductor*%
%ADD25C,0.400000*%
%TD*%
%TA.AperFunction,Conductor*%
%ADD26C,0.800000*%
%TD*%
%TA.AperFunction,Profile*%
%ADD27C,0.100000*%
%TD*%
G04 APERTURE END LIST*
D10*
%TO.P,D4,1,K*%
%TO.N,/GND*%
X134112000Y-136647000D03*
D11*
%TO.P,D4,2,A*%
%TO.N,Net-(D4-A)*%
X134112000Y-139187000D03*
%TD*%
D12*
%TO.P,R6,1*%
%TO.N,/3v3*%
X152908000Y-69342000D03*
D13*
%TO.P,R6,2*%
%TO.N,/PB0*%
X152908000Y-79502000D03*
%TD*%
D14*
%TO.P,U3,1,GND*%
%TO.N,/GND*%
X183388000Y-121412000D03*
D15*
%TO.P,U3,2,VO*%
%TO.N,/3v3*%
X183388000Y-123952000D03*
%TO.P,U3,3,VI*%
%TO.N,/5V*%
X183388000Y-126492000D03*
%TD*%
D16*
%TO.P,J14,1,Pin_1*%
%TO.N,/GND*%
X144018000Y-84074000D03*
D17*
%TO.P,J14,2,Pin_2*%
X146558000Y-84074000D03*
%TO.P,J14,3,Pin_3*%
%TO.N,unconnected-(J14-Pin_3-Pad3)*%
X149098000Y-84074000D03*
%TO.P,J14,4,Pin_4*%
%TO.N,/RESET*%
X151638000Y-84074000D03*
%TO.P,J14,5,Pin_5*%
%TO.N,/I2C_SDA*%
X154178000Y-84074000D03*
%TO.P,J14,6,Pin_6*%
%TO.N,/I2C_SCL*%
X156718000Y-84074000D03*
%TO.P,J14,7,Pin_7*%
%TO.N,/PB1*%
X159258000Y-84074000D03*
%TO.P,J14,8,Pin_8*%
%TO.N,/PB0*%
X161798000Y-84074000D03*
%TO.P,J14,9,Pin_9*%
%TO.N,/PA7*%
X164338000Y-84074000D03*
%TO.P,J14,10,Pin_10*%
%TO.N,/PA6*%
X166878000Y-84074000D03*
%TO.P,J14,11,Pin_11*%
%TO.N,/PA5*%
X169418000Y-84074000D03*
%TO.P,J14,12,Pin_12*%
%TO.N,/PA4*%
X171958000Y-84074000D03*
%TO.P,J14,13,Pin_13*%
%TO.N,/PA3*%
X174498000Y-84074000D03*
%TO.P,J14,14,Pin_14*%
%TO.N,/PA2*%
X177038000Y-84074000D03*
%TO.P,J14,15,Pin_15*%
%TO.N,/PA1*%
X179578000Y-84074000D03*
%TO.P,J14,16,Pin_16*%
%TO.N,/PA0*%
X182118000Y-84074000D03*
%TO.P,J14,17,Pin_17*%
%TO.N,/PC15*%
X184658000Y-84074000D03*
%TO.P,J14,18,Pin_18*%
%TO.N,/PC14*%
X187198000Y-84074000D03*
%TO.P,J14,19,Pin_19*%
%TO.N,/PC13*%
X189738000Y-84074000D03*
%TO.P,J14,20,Pin_20*%
%TO.N,/VBAT_bp*%
X192278000Y-84074000D03*
%TD*%
D16*
%TO.P,J4,1,Pin_1*%
%TO.N,unconnected-(J4-Pin_1-Pad1)*%
X192278000Y-111882000D03*
D17*
%TO.P,J4,2,Pin_2*%
%TO.N,/GND*%
X189738000Y-111882000D03*
%TO.P,J4,3,Pin_3*%
%TO.N,/5V*%
X187198000Y-111882000D03*
%TO.P,J4,4,Pin_4*%
%TO.N,/TC4*%
X184658000Y-111882000D03*
%TO.P,J4,5,Pin_5*%
%TO.N,/TC3*%
X182118000Y-111882000D03*
%TO.P,J4,6,Pin_6*%
%TO.N,/TC2*%
X179578000Y-111882000D03*
%TO.P,J4,7,Pin_7*%
%TO.N,/TC1*%
X177038000Y-111882000D03*
%TO.P,J4,8,Pin_8*%
%TO.N,/PB5*%
X174498000Y-111882000D03*
%TO.P,J4,9,Pin_9*%
%TO.N,/PB4*%
X171958000Y-111882000D03*
%TO.P,J4,10,Pin_10*%
%TO.N,/PB3*%
X169418000Y-111882000D03*
%TO.P,J4,11,Pin_11*%
%TO.N,/ESP01_CE*%
X166878000Y-111882000D03*
%TO.P,J4,12,Pin_12*%
%TO.N,/PA12*%
X164338000Y-111882000D03*
%TO.P,J4,13,Pin_13*%
%TO.N,/PA11*%
X161798000Y-111882000D03*
%TO.P,J4,14,Pin_14*%
%TO.N,/USART_RX*%
X159258000Y-111882000D03*
%TO.P,J4,15,Pin_15*%
%TO.N,/USART_TX*%
X156718000Y-111882000D03*
%TO.P,J4,16,Pin_16*%
%TO.N,/PA8*%
X154178000Y-111882000D03*
%TO.P,J4,17,Pin_17*%
%TO.N,/PB15*%
X151638000Y-111882000D03*
%TO.P,J4,18,Pin_18*%
%TO.N,/PB14*%
X149098000Y-111882000D03*
%TO.P,J4,19,Pin_19*%
%TO.N,/PB13*%
X146558000Y-111882000D03*
%TO.P,J4,20,Pin_20*%
%TO.N,/PB12*%
X144018000Y-111882000D03*
%TD*%
D18*
%TO.P,J6,1,Pin_1*%
%TO.N,/GND_BAT*%
X191770000Y-136652000D03*
%TO.P,J6,2,Pin_2*%
%TO.N,/VCC_BAT*%
X201270000Y-136652000D03*
%TO.P,J6,3,Pin_3*%
%TO.N,/GND*%
X201270000Y-121152000D03*
%TO.P,J6,4,Pin_4*%
%TO.N,/5V*%
X191770000Y-121152000D03*
%TD*%
D12*
%TO.P,R5,1*%
%TO.N,/3v3*%
X135890000Y-84074000D03*
D13*
%TO.P,R5,2*%
%TO.N,/RESET*%
X135890000Y-94234000D03*
%TD*%
D16*
%TO.P,J1,1,Pin_1*%
%TO.N,/GND*%
X149460000Y-65870000D03*
D17*
%TO.P,J1,2,Pin_2*%
%TO.N,/3v3*%
X152000000Y-65870000D03*
%TO.P,J1,3,Pin_3*%
%TO.N,/PA7*%
X154540000Y-65870000D03*
%TO.P,J1,4,Pin_4*%
%TO.N,/PA6*%
X157080000Y-65870000D03*
%TO.P,J1,5,Pin_5*%
%TO.N,/PA5*%
X159620000Y-65870000D03*
%TO.P,J1,6,Pin_6*%
%TO.N,/PA4*%
X162160000Y-65870000D03*
%TO.P,J1,7,Pin_7*%
%TO.N,/PA3*%
X164700000Y-65870000D03*
%TO.P,J1,8,Pin_8*%
%TO.N,/PA2*%
X167240000Y-65870000D03*
%TO.P,J1,9,Pin_9*%
%TO.N,/PA1*%
X169780000Y-65870000D03*
%TO.P,J1,10,Pin_10*%
%TO.N,/PA0*%
X172320000Y-65870000D03*
%TD*%
D16*
%TO.P,J5,1,Pin_1*%
%TO.N,/GND*%
X190709000Y-74173000D03*
D17*
%TO.P,J5,2,Pin_2*%
%TO.N,/3v3*%
X188169000Y-74173000D03*
%TD*%
D10*
%TO.P,D3,1,K*%
%TO.N,/GND*%
X200411000Y-81529000D03*
D11*
%TO.P,D3,2,A*%
%TO.N,Net-(D3-A)*%
X197871000Y-81529000D03*
%TD*%
D12*
%TO.P,C1,1*%
%TO.N,/RESET*%
X134926000Y-104244000D03*
D19*
%TO.P,C1,2*%
%TO.N,/GND*%
X132426000Y-104244000D03*
%TD*%
D20*
%TO.P,U2,1,GND*%
%TO.N,/GND*%
X141986000Y-126746000D03*
D21*
%TO.P,U2,2,GPIO2*%
%TO.N,unconnected-(U2-GPIO2-Pad2)*%
X141986000Y-124206000D03*
%TO.P,U2,3,GPIO0*%
%TO.N,Net-(U2-GPIO0)*%
X141986000Y-121666000D03*
%TO.P,U2,4,RX*%
%TO.N,/USART_TX*%
X141986000Y-119126000D03*
%TO.P,U2,5,TX*%
%TO.N,/USART_RX*%
X144526000Y-126746000D03*
%TO.P,U2,6,CHPD*%
%TO.N,/ESP01_CE*%
X144526000Y-124206000D03*
%TO.P,U2,7,RST*%
%TO.N,unconnected-(U2-RST-Pad7)*%
X144526000Y-121666000D03*
%TO.P,U2,8,VCC*%
%TO.N,/3v3*%
X144526000Y-119126000D03*
%TD*%
D22*
%TO.P,J2,1,Pin_1*%
%TO.N,/I2C_SDA*%
X128778000Y-97536000D03*
D17*
%TO.P,J2,2,Pin_2*%
%TO.N,/I2C_SCL*%
X126238000Y-97536000D03*
D16*
%TO.P,J2,3,Pin_3*%
%TO.N,/GND*%
X123698000Y-97536000D03*
D17*
%TO.P,J2,4,Pin_4*%
%TO.N,/3v3*%
X121158000Y-97536000D03*
%TD*%
D22*
%TO.P,J3,1,Pin_1*%
%TO.N,/TC3*%
X167361000Y-123215000D03*
D17*
%TO.P,J3,2,Pin_2*%
%TO.N,/TC4*%
X164821000Y-123215000D03*
%TO.P,J3,3,Pin_3*%
%TO.N,/VCC_BAT*%
X162281000Y-123215000D03*
%TO.P,J3,4,Pin_4*%
%TO.N,/GND_BAT*%
X159741000Y-123215000D03*
%TO.P,J3,5,Pin_5*%
%TO.N,/TC2*%
X157201000Y-123215000D03*
%TO.P,J3,6,Pin_6*%
%TO.N,/TC1*%
X154661000Y-123215000D03*
%TD*%
D23*
%TO.P,SW4,1,1*%
%TO.N,/GND*%
X144526000Y-76708000D03*
X144526000Y-70208000D03*
D18*
%TO.P,SW4,2,2*%
%TO.N,/PB0*%
X149026000Y-76708000D03*
X149026000Y-70208000D03*
%TD*%
D10*
%TO.P,SW2,1,B*%
%TO.N,Net-(J13-Pin_1)*%
X177896000Y-147320000D03*
D11*
%TO.P,SW2,2,A*%
%TO.N,/GND_BAT*%
X177896000Y-144820000D03*
%TO.P,SW2,3,C*%
%TO.N,unconnected-(SW2-C-Pad3)*%
X177896000Y-142320000D03*
%TO.P,SW2,4,B*%
%TO.N,Net-(J11-Pin_1)*%
X183896000Y-147320000D03*
%TO.P,SW2,5,A*%
%TO.N,/VCC_BAT*%
X183896000Y-144820000D03*
%TO.P,SW2,6,C*%
%TO.N,unconnected-(SW2-C-Pad6)*%
X183896000Y-142320000D03*
%TD*%
D12*
%TO.P,R3,1*%
%TO.N,/PC13*%
X188468000Y-94864000D03*
D13*
%TO.P,R3,2*%
%TO.N,Net-(D3-A)*%
X178308000Y-94864000D03*
%TD*%
D16*
%TO.P,J11,1,Pin_1*%
%TO.N,Net-(J11-Pin_1)*%
X191008000Y-141478000D03*
%TD*%
D12*
%TO.P,R2,1*%
%TO.N,/3v3*%
X144018000Y-100330000D03*
D13*
%TO.P,R2,2*%
%TO.N,/I2C_SCL*%
X154178000Y-100330000D03*
%TD*%
D12*
%TO.P,C2,1*%
%TO.N,/PB0*%
X161798000Y-95504000D03*
%TO.P,C2,2*%
%TO.N,/GND*%
X164298000Y-95504000D03*
%TD*%
D23*
%TO.P,U1,1,B12*%
%TO.N,/PB12*%
X144018000Y-105918000D03*
D24*
%TO.P,U1,2,B13*%
%TO.N,/PB13*%
X146558000Y-105918000D03*
%TO.P,U1,3,B14*%
%TO.N,/PB14*%
X149098000Y-105918000D03*
%TO.P,U1,4,B15*%
%TO.N,/PB15*%
X151638000Y-105918000D03*
%TO.P,U1,5,A8*%
%TO.N,/PA8*%
X154178000Y-105918000D03*
%TO.P,U1,6,A9*%
%TO.N,/USART_TX*%
X156718000Y-105918000D03*
%TO.P,U1,7,A10*%
%TO.N,/USART_RX*%
X159258000Y-105918000D03*
%TO.P,U1,8,A11*%
%TO.N,/PA11*%
X161798000Y-105918000D03*
%TO.P,U1,9,A12*%
%TO.N,/PA12*%
X164338000Y-105918000D03*
%TO.P,U1,10,A15*%
%TO.N,/ESP01_CE*%
X166878000Y-105918000D03*
%TO.P,U1,11,B3*%
%TO.N,/PB3*%
X169418000Y-105918000D03*
%TO.P,U1,12,B4*%
%TO.N,/PB4*%
X171958000Y-105918000D03*
%TO.P,U1,13,B5*%
%TO.N,/PB5*%
X174498000Y-105918000D03*
%TO.P,U1,14,B6*%
%TO.N,/TC1*%
X177038000Y-105918000D03*
%TO.P,U1,15,B7*%
%TO.N,/TC2*%
X179578000Y-105918000D03*
%TO.P,U1,16,B8*%
%TO.N,/TC3*%
X182118000Y-105918000D03*
%TO.P,U1,17,B9*%
%TO.N,/TC4*%
X184658000Y-105918000D03*
%TO.P,U1,18,5V*%
%TO.N,/5V*%
X187198000Y-105918000D03*
%TO.P,U1,19,GND*%
%TO.N,/GND*%
X189738000Y-105918000D03*
%TO.P,U1,20,3V3*%
%TO.N,unconnected-(U1-3V3-Pad20)*%
X192278000Y-105918000D03*
%TO.P,U1,21,VBAT*%
%TO.N,/VBAT_bp*%
X192278000Y-90678000D03*
%TO.P,U1,22,C13*%
%TO.N,/PC13*%
X189738000Y-90678000D03*
%TO.P,U1,23,C14*%
%TO.N,/PC14*%
X187198000Y-90678000D03*
%TO.P,U1,24,C15*%
%TO.N,/PC15*%
X184658000Y-90678000D03*
%TO.P,U1,25,A0*%
%TO.N,/PA0*%
X182118000Y-90678000D03*
%TO.P,U1,26,A1*%
%TO.N,/PA1*%
X179578000Y-90678000D03*
%TO.P,U1,27,A2*%
%TO.N,/PA2*%
X177038000Y-90678000D03*
%TO.P,U1,28,A3*%
%TO.N,/PA3*%
X174498000Y-90678000D03*
%TO.P,U1,29,A4*%
%TO.N,/PA4*%
X171958000Y-90678000D03*
%TO.P,U1,30,A5*%
%TO.N,/PA5*%
X169418000Y-90678000D03*
%TO.P,U1,31,A6*%
%TO.N,/PA6*%
X166878000Y-90678000D03*
%TO.P,U1,32,A7*%
%TO.N,/PA7*%
X164338000Y-90678000D03*
%TO.P,U1,33,B0*%
%TO.N,/PB0*%
X161798000Y-90678000D03*
%TO.P,U1,34,B1*%
%TO.N,/PB1*%
X159258000Y-90678000D03*
%TO.P,U1,35,B10*%
%TO.N,/I2C_SCL*%
X156718000Y-90678000D03*
%TO.P,U1,36,B11*%
%TO.N,/I2C_SDA*%
X154178000Y-90678000D03*
%TO.P,U1,37,RST*%
%TO.N,/RESET*%
X151638000Y-90678000D03*
%TO.P,U1,38,3V3_2*%
%TO.N,unconnected-(U1-3V3_2-Pad38)*%
X149098000Y-90678000D03*
%TO.P,U1,39,GND_3*%
%TO.N,/GND*%
X146558000Y-90678000D03*
%TO.P,U1,40,GND_2*%
X144018000Y-90678000D03*
%TD*%
D12*
%TO.P,R1,1*%
%TO.N,/3v3*%
X144018000Y-95504000D03*
D13*
%TO.P,R1,2*%
%TO.N,/I2C_SDA*%
X154178000Y-95504000D03*
%TD*%
D22*
%TO.P,J12,1,Pin_1*%
%TO.N,/3v3*%
X125760000Y-91186000D03*
D16*
%TO.P,J12,2,Pin_2*%
%TO.N,/GND*%
X125760000Y-88646000D03*
D17*
%TO.P,J12,3,Pin_3*%
%TO.N,/I2C_SCL*%
X125760000Y-86106000D03*
%TO.P,J12,4,Pin_4*%
%TO.N,/I2C_SDA*%
X125760000Y-83566000D03*
%TO.P,J12,5,Pin_5*%
%TO.N,unconnected-(J12-Pin_5-Pad5)*%
X125760000Y-81026000D03*
%TO.P,J12,6,Pin_6*%
%TO.N,unconnected-(J12-Pin_6-Pad6)*%
X125760000Y-78486000D03*
%TO.P,J12,7,Pin_7*%
%TO.N,unconnected-(J12-Pin_7-Pad7)*%
X125760000Y-75946000D03*
%TO.P,J12,8,Pin_8*%
%TO.N,unconnected-(J12-Pin_8-Pad8)*%
X125760000Y-73406000D03*
%TD*%
D16*
%TO.P,J13,1,Pin_1*%
%TO.N,Net-(J13-Pin_1)*%
X191008000Y-145796000D03*
%TD*%
D23*
%TO.P,SW1,1,1*%
%TO.N,/GND*%
X123008000Y-110744000D03*
X123008000Y-104244000D03*
D18*
%TO.P,SW1,2,2*%
%TO.N,/RESET*%
X127508000Y-110744000D03*
X127508000Y-104244000D03*
%TD*%
D12*
%TO.P,R4,1*%
%TO.N,Net-(D4-A)*%
X127254000Y-143510000D03*
D13*
%TO.P,R4,2*%
%TO.N,Net-(U2-GPIO0)*%
X127254000Y-133350000D03*
%TD*%
D25*
%TO.N,/GND*%
X146558000Y-101600000D02*
X145934000Y-102224000D01*
X132842000Y-98044000D02*
X129794000Y-101092000D01*
X195077000Y-74173000D02*
X190709000Y-74173000D01*
X189738000Y-105918000D02*
X189738000Y-111882000D01*
X123698000Y-99314000D02*
X123698000Y-97536000D01*
X122428000Y-72644000D02*
X122428000Y-87630000D01*
X189738000Y-114554000D02*
X189738000Y-111882000D01*
X123698000Y-101092000D02*
X123008000Y-101782000D01*
X127508000Y-101092000D02*
X123698000Y-101092000D01*
X144018000Y-84074000D02*
X146558000Y-84074000D01*
X123008000Y-110744000D02*
X123008000Y-104244000D01*
X134874000Y-90170000D02*
X132842000Y-92202000D01*
X123698000Y-97536000D02*
X123698000Y-95758000D01*
X132426000Y-101946000D02*
X131572000Y-101092000D01*
X144018000Y-84074000D02*
X144018000Y-90678000D01*
X127000000Y-93472000D02*
X128524000Y-91948000D01*
X144526000Y-70208000D02*
X144526000Y-68326000D01*
X131572000Y-101092000D02*
X129794000Y-101092000D01*
X134112000Y-136647000D02*
X121915000Y-136647000D01*
X144526000Y-70208000D02*
X124864000Y-70208000D01*
X157480000Y-104140000D02*
X142240000Y-104140000D01*
X129794000Y-101092000D02*
X127508000Y-101092000D01*
X127508000Y-101092000D02*
X125476000Y-101092000D01*
X128524000Y-88900000D02*
X128270000Y-88646000D01*
X133096000Y-113284000D02*
X121920000Y-113284000D01*
X132842000Y-92202000D02*
X132842000Y-98044000D01*
X125476000Y-101092000D02*
X123698000Y-99314000D01*
X200411000Y-79507000D02*
X195077000Y-74173000D01*
X125984000Y-93472000D02*
X127000000Y-93472000D01*
X189738000Y-114554000D02*
X191262000Y-116078000D01*
X141378416Y-102224000D02*
X141359208Y-102243208D01*
X146982000Y-65870000D02*
X149460000Y-65870000D01*
X132426000Y-104244000D02*
X132426000Y-101946000D01*
X164298000Y-95504000D02*
X164298000Y-97322000D01*
X145934000Y-102224000D02*
X141378416Y-102224000D01*
X191770000Y-99568000D02*
X200411000Y-90927000D01*
X136652000Y-90170000D02*
X134874000Y-90170000D01*
X196196000Y-116078000D02*
X201270000Y-121152000D01*
X138684000Y-92202000D02*
X136652000Y-90170000D01*
X121915000Y-136647000D02*
X119888000Y-134620000D01*
X173736000Y-95504000D02*
X177800000Y-99568000D01*
X123698000Y-95758000D02*
X125984000Y-93472000D01*
X141359208Y-102243208D02*
X138684000Y-99568000D01*
X128524000Y-91948000D02*
X128524000Y-88900000D01*
X185420000Y-121412000D02*
X189738000Y-117094000D01*
X189738000Y-105918000D02*
X189738000Y-101600000D01*
X164298000Y-95504000D02*
X173736000Y-95504000D01*
X144526000Y-68326000D02*
X146982000Y-65870000D01*
X122428000Y-87630000D02*
X123444000Y-88646000D01*
X119888000Y-112776000D02*
X119888000Y-115316000D01*
X134112000Y-130556000D02*
X137922000Y-126746000D01*
X124864000Y-70208000D02*
X122428000Y-72644000D01*
X191262000Y-116078000D02*
X196196000Y-116078000D01*
X200411000Y-90927000D02*
X200411000Y-81529000D01*
X137922000Y-126746000D02*
X141986000Y-126746000D01*
X189738000Y-101600000D02*
X191770000Y-99568000D01*
X183388000Y-121412000D02*
X185420000Y-121412000D01*
X123008000Y-101782000D02*
X123008000Y-104244000D01*
X189738000Y-117094000D02*
X189738000Y-114554000D01*
X164298000Y-97322000D02*
X157480000Y-104140000D01*
X144526000Y-76708000D02*
X144526000Y-70208000D01*
X177800000Y-99568000D02*
X191770000Y-99568000D01*
X119888000Y-115316000D02*
X119888000Y-134620000D01*
X146558000Y-90678000D02*
X146558000Y-101600000D01*
X146558000Y-84074000D02*
X146558000Y-90678000D01*
X123008000Y-110744000D02*
X121920000Y-110744000D01*
X121920000Y-110744000D02*
X119888000Y-112776000D01*
X138684000Y-99568000D02*
X138684000Y-92202000D01*
X121920000Y-113284000D02*
X119888000Y-115316000D01*
X128270000Y-88646000D02*
X125760000Y-88646000D01*
X123444000Y-88646000D02*
X125760000Y-88646000D01*
X134112000Y-136647000D02*
X134112000Y-130556000D01*
X200411000Y-81529000D02*
X200411000Y-79507000D01*
X142240000Y-104140000D02*
X133096000Y-113284000D01*
%TO.N,/RESET*%
X135890000Y-99568000D02*
X134874000Y-100584000D01*
X149606000Y-95504000D02*
X151638000Y-93472000D01*
X127508000Y-104244000D02*
X127508000Y-110744000D01*
X151638000Y-93472000D02*
X151638000Y-90678000D01*
X141751208Y-103124000D02*
X146812000Y-103124000D01*
X149606000Y-100330000D02*
X149606000Y-95504000D01*
X140631208Y-104244000D02*
X141751208Y-103124000D01*
X134926000Y-100636000D02*
X134926000Y-104244000D01*
X132588000Y-110744000D02*
X134926000Y-108406000D01*
X134874000Y-100584000D02*
X134926000Y-100636000D01*
X146812000Y-103124000D02*
X149606000Y-100330000D01*
X127508000Y-110744000D02*
X132588000Y-110744000D01*
X151638000Y-84074000D02*
X151638000Y-90678000D01*
X134926000Y-108406000D02*
X134926000Y-104244000D01*
X135890000Y-94234000D02*
X135890000Y-99568000D01*
X134926000Y-104244000D02*
X140631208Y-104244000D01*
%TO.N,/3v3*%
X152908000Y-63246000D02*
X153162000Y-63246000D01*
X188169000Y-74173000D02*
X186441000Y-74173000D01*
X181356000Y-69088000D02*
X181356000Y-64770000D01*
X181356000Y-64770000D02*
X179832000Y-63246000D01*
X130302000Y-63246000D02*
X153162000Y-63246000D01*
X152000000Y-65870000D02*
X152000000Y-64154000D01*
X186441000Y-74173000D02*
X181356000Y-69088000D01*
X121158000Y-72390000D02*
X130302000Y-63246000D01*
X135890000Y-84074000D02*
X138430000Y-84074000D01*
X121158000Y-92964000D02*
X122936000Y-91186000D01*
X203962000Y-79248000D02*
X203962000Y-124206000D01*
X140716000Y-86360000D02*
X140716000Y-94996000D01*
X121158000Y-97536000D02*
X121158000Y-92964000D01*
X188468000Y-123190000D02*
X187706000Y-123952000D01*
X187960000Y-63246000D02*
X203962000Y-79248000D01*
X140716000Y-94996000D02*
X141224000Y-95504000D01*
X188468000Y-119888000D02*
X188468000Y-123190000D01*
X138430000Y-84074000D02*
X140716000Y-86360000D01*
X152908000Y-69342000D02*
X152000000Y-68434000D01*
X198374000Y-124968000D02*
X196596000Y-123190000D01*
X187706000Y-123952000D02*
X183388000Y-123952000D01*
X152000000Y-64154000D02*
X152908000Y-63246000D01*
X121158000Y-92964000D02*
X121158000Y-72390000D01*
X195326000Y-118618000D02*
X189738000Y-118618000D01*
X153162000Y-63246000D02*
X179832000Y-63246000D01*
X189738000Y-118618000D02*
X188468000Y-119888000D01*
X141224000Y-95504000D02*
X144018000Y-95504000D01*
X144018000Y-100330000D02*
X144018000Y-95504000D01*
X203200000Y-124968000D02*
X198374000Y-124968000D01*
X122936000Y-91186000D02*
X125760000Y-91186000D01*
X196596000Y-123190000D02*
X196596000Y-119888000D01*
X179832000Y-63246000D02*
X187960000Y-63246000D01*
X196596000Y-119888000D02*
X195326000Y-118618000D01*
X203962000Y-124206000D02*
X203200000Y-124968000D01*
X152000000Y-68434000D02*
X152000000Y-65870000D01*
%TO.N,Net-(D3-A)*%
X195326000Y-82550000D02*
X196347000Y-81529000D01*
X192024000Y-97790000D02*
X195326000Y-94488000D01*
X178308000Y-96520000D02*
X179578000Y-97790000D01*
X178308000Y-96520000D02*
X178308000Y-94864000D01*
X196347000Y-81529000D02*
X197871000Y-81529000D01*
X179578000Y-97790000D02*
X192024000Y-97790000D01*
X195326000Y-94488000D02*
X195326000Y-82550000D01*
%TO.N,Net-(D4-A)*%
X134112000Y-139187000D02*
X134112000Y-142494000D01*
X133096000Y-143510000D02*
X127254000Y-143510000D01*
X134112000Y-142494000D02*
X133096000Y-143510000D01*
%TO.N,/I2C_SDA*%
X154178000Y-84074000D02*
X152006000Y-81902000D01*
X128778000Y-97536000D02*
X128778000Y-95504000D01*
X131572000Y-84836000D02*
X130302000Y-83566000D01*
X146926000Y-81902000D02*
X145796000Y-80772000D01*
X145796000Y-80772000D02*
X131826000Y-80772000D01*
X128778000Y-95504000D02*
X131572000Y-92710000D01*
X130302000Y-83566000D02*
X129032000Y-83566000D01*
X129032000Y-83566000D02*
X125760000Y-83566000D01*
X131572000Y-92710000D02*
X131572000Y-84836000D01*
X154178000Y-90678000D02*
X154178000Y-84074000D01*
X154178000Y-95504000D02*
X154178000Y-90678000D01*
X131826000Y-80772000D02*
X129032000Y-83566000D01*
X152006000Y-81902000D02*
X146926000Y-81902000D01*
%TO.N,/I2C_SCL*%
X130048000Y-86614000D02*
X129540000Y-86106000D01*
X123444000Y-72900792D02*
X123444000Y-85090000D01*
X156718000Y-84074000D02*
X156718000Y-90678000D01*
X136398000Y-79248000D02*
X128778000Y-71628000D01*
X155702000Y-100330000D02*
X156718000Y-99314000D01*
X128005000Y-94372000D02*
X130048000Y-92329000D01*
X126238000Y-94996000D02*
X126862000Y-94372000D01*
X124460000Y-86106000D02*
X125760000Y-86106000D01*
X148820000Y-81002000D02*
X147066000Y-79248000D01*
X128778000Y-71628000D02*
X124716792Y-71628000D01*
X153587660Y-80943660D02*
X153529321Y-81002000D01*
X156718000Y-84074000D02*
X153587660Y-80943660D01*
X126862000Y-94372000D02*
X128005000Y-94372000D01*
X156718000Y-99314000D02*
X156718000Y-90678000D01*
X123444000Y-85090000D02*
X124460000Y-86106000D01*
X124716792Y-71628000D02*
X123444000Y-72900792D01*
X153529321Y-81002000D02*
X148820000Y-81002000D01*
X130048000Y-92329000D02*
X130048000Y-86614000D01*
X126238000Y-97536000D02*
X126238000Y-94996000D01*
X147066000Y-79248000D02*
X136398000Y-79248000D01*
X129540000Y-86106000D02*
X125760000Y-86106000D01*
X154178000Y-100330000D02*
X155702000Y-100330000D01*
%TO.N,/TC2*%
X157201000Y-121437000D02*
X157201000Y-123215000D01*
X163068000Y-120396000D02*
X158242000Y-120396000D01*
X178054000Y-115570000D02*
X167894000Y-115570000D01*
X167894000Y-115570000D02*
X163068000Y-120396000D01*
X158242000Y-120396000D02*
X157201000Y-121437000D01*
X179578000Y-114046000D02*
X178054000Y-115570000D01*
X179578000Y-105918000D02*
X179578000Y-111882000D01*
X179578000Y-111882000D02*
X179578000Y-114046000D01*
%TO.N,/TC1*%
X162814000Y-119126000D02*
X156464000Y-119126000D01*
X177038000Y-114046000D02*
X176414000Y-114670000D01*
X176414000Y-114670000D02*
X167270000Y-114670000D01*
X177038000Y-105918000D02*
X177038000Y-111882000D01*
X154661000Y-120929000D02*
X154661000Y-123215000D01*
X167270000Y-114670000D02*
X162814000Y-119126000D01*
X177038000Y-111882000D02*
X177038000Y-114046000D01*
X156464000Y-119126000D02*
X154661000Y-120929000D01*
D26*
%TO.N,/VCC_BAT*%
X195428000Y-130810000D02*
X201270000Y-136652000D01*
X186690000Y-143510000D02*
X186690000Y-140970000D01*
X162281000Y-126467000D02*
X166624000Y-130810000D01*
X166624000Y-130810000D02*
X195428000Y-130810000D01*
X201270000Y-138328000D02*
X201270000Y-136652000D01*
X186690000Y-140970000D02*
X188722000Y-138938000D01*
X185380000Y-144820000D02*
X186690000Y-143510000D01*
X162281000Y-123215000D02*
X162281000Y-126467000D01*
X183896000Y-144820000D02*
X185380000Y-144820000D01*
X200660000Y-138938000D02*
X201270000Y-138328000D01*
X188722000Y-138938000D02*
X200660000Y-138938000D01*
D25*
%TO.N,/TC3*%
X179578000Y-116586000D02*
X182118000Y-114046000D01*
X167361000Y-121437000D02*
X172212000Y-116586000D01*
X182118000Y-114046000D02*
X182118000Y-111882000D01*
X172212000Y-116586000D02*
X179578000Y-116586000D01*
X182118000Y-105918000D02*
X182118000Y-111882000D01*
X167361000Y-123215000D02*
X167361000Y-121437000D01*
D26*
%TO.N,/GND_BAT*%
X185166000Y-136652000D02*
X191770000Y-136652000D01*
X159741000Y-128245000D02*
X165354000Y-133858000D01*
X159741000Y-123215000D02*
X159741000Y-128245000D01*
X181356000Y-140462000D02*
X185166000Y-136652000D01*
X165354000Y-133858000D02*
X172466000Y-133858000D01*
X177896000Y-144820000D02*
X180046000Y-144820000D01*
X175808000Y-144820000D02*
X177896000Y-144820000D01*
X181356000Y-143510000D02*
X181356000Y-140462000D01*
X172466000Y-133858000D02*
X174752000Y-136144000D01*
X174752000Y-143764000D02*
X175808000Y-144820000D01*
X180046000Y-144820000D02*
X181356000Y-143510000D01*
X174752000Y-136144000D02*
X174752000Y-143764000D01*
D25*
%TO.N,/TC4*%
X165608000Y-126238000D02*
X164821000Y-125451000D01*
X184658000Y-114046000D02*
X172466000Y-126238000D01*
X172466000Y-126238000D02*
X165608000Y-126238000D01*
X184658000Y-111882000D02*
X184658000Y-114046000D01*
X184658000Y-105918000D02*
X184658000Y-111882000D01*
X164821000Y-125451000D02*
X164821000Y-123215000D01*
%TO.N,/5V*%
X188976000Y-126492000D02*
X191770000Y-123698000D01*
X183388000Y-126492000D02*
X181610000Y-126492000D01*
X180340000Y-125222000D02*
X180340000Y-120904000D01*
X180340000Y-120904000D02*
X187198000Y-114046000D01*
X187198000Y-105918000D02*
X187198000Y-111882000D01*
X183388000Y-126492000D02*
X188976000Y-126492000D01*
X191770000Y-123698000D02*
X191770000Y-121152000D01*
X187198000Y-114046000D02*
X187198000Y-111882000D01*
X181610000Y-126492000D02*
X180340000Y-125222000D01*
%TO.N,/PA1*%
X179578000Y-84074000D02*
X179578000Y-90678000D01*
X169780000Y-68180000D02*
X179578000Y-77978000D01*
X169780000Y-65870000D02*
X169780000Y-68180000D01*
X179578000Y-77978000D02*
X179578000Y-84074000D01*
%TO.N,/PA6*%
X166878000Y-77978000D02*
X166878000Y-84074000D01*
X166878000Y-84074000D02*
X166878000Y-90678000D01*
X157080000Y-68180000D02*
X166878000Y-77978000D01*
X157080000Y-65870000D02*
X157080000Y-68180000D01*
%TO.N,/PA3*%
X174498000Y-77978000D02*
X174498000Y-84074000D01*
X164700000Y-65870000D02*
X164700000Y-68180000D01*
X174498000Y-84074000D02*
X174498000Y-90678000D01*
X164700000Y-68180000D02*
X174498000Y-77978000D01*
%TO.N,Net-(U2-GPIO0)*%
X139192000Y-121666000D02*
X141986000Y-121666000D01*
X127254000Y-133350000D02*
X128778000Y-133350000D01*
X129286000Y-132842000D02*
X129286000Y-131572000D01*
X128778000Y-133350000D02*
X129286000Y-132842000D01*
X129286000Y-131572000D02*
X139192000Y-121666000D01*
D26*
%TO.N,Net-(J11-Pin_1)*%
X188468000Y-142748000D02*
X189738000Y-141478000D01*
X189738000Y-141478000D02*
X191008000Y-141478000D01*
X183896000Y-147320000D02*
X185674000Y-147320000D01*
X188468000Y-144526000D02*
X188468000Y-142748000D01*
X185674000Y-147320000D02*
X188468000Y-144526000D01*
%TO.N,Net-(J13-Pin_1)*%
X187452000Y-150114000D02*
X179070000Y-150114000D01*
X177896000Y-148940000D02*
X177896000Y-147320000D01*
X179070000Y-150114000D02*
X177896000Y-148940000D01*
X191008000Y-145796000D02*
X191008000Y-146558000D01*
X191008000Y-146558000D02*
X187452000Y-150114000D01*
D25*
%TO.N,/PA4*%
X171958000Y-77978000D02*
X171958000Y-84074000D01*
X171958000Y-84074000D02*
X171958000Y-90678000D01*
X162160000Y-65870000D02*
X162160000Y-68180000D01*
X162160000Y-68180000D02*
X171958000Y-77978000D01*
%TO.N,/PB5*%
X174498000Y-105918000D02*
X174498000Y-111882000D01*
%TO.N,/PB0*%
X149026000Y-78160000D02*
X149026000Y-76708000D01*
X161798000Y-81280000D02*
X161798000Y-84074000D01*
X149026000Y-70208000D02*
X149026000Y-76708000D01*
X150368000Y-79502000D02*
X149026000Y-78160000D01*
X161798000Y-84074000D02*
X161798000Y-90678000D01*
X152908000Y-79502000D02*
X160020000Y-79502000D01*
X152908000Y-79502000D02*
X150368000Y-79502000D01*
X161798000Y-95504000D02*
X161798000Y-90678000D01*
X160020000Y-79502000D02*
X161798000Y-81280000D01*
%TO.N,/PB4*%
X171958000Y-105918000D02*
X171958000Y-111882000D01*
%TO.N,/PB3*%
X169418000Y-105918000D02*
X169418000Y-111882000D01*
%TO.N,/PB14*%
X149098000Y-105918000D02*
X149098000Y-111882000D01*
%TO.N,/PA8*%
X154178000Y-105918000D02*
X154178000Y-111882000D01*
%TO.N,/PB1*%
X159258000Y-84074000D02*
X159258000Y-90678000D01*
%TO.N,/PB13*%
X146558000Y-105918000D02*
X146558000Y-111882000D01*
%TO.N,/USART_RX*%
X159258000Y-105918000D02*
X159258000Y-111882000D01*
%TO.N,/PB12*%
X144018000Y-105918000D02*
X144018000Y-111882000D01*
%TO.N,/ESP01_CE*%
X154432000Y-117856000D02*
X162560000Y-117856000D01*
X166878000Y-113538000D02*
X166878000Y-111882000D01*
X148082000Y-124206000D02*
X154432000Y-117856000D01*
X144526000Y-124206000D02*
X148082000Y-124206000D01*
X162560000Y-117856000D02*
X166878000Y-113538000D01*
X166878000Y-105918000D02*
X166878000Y-111882000D01*
%TO.N,/PB15*%
X151638000Y-105918000D02*
X151638000Y-111882000D01*
%TO.N,/USART_TX*%
X143764000Y-114808000D02*
X141986000Y-116586000D01*
X156464000Y-114808000D02*
X143764000Y-114808000D01*
X156718000Y-111882000D02*
X156718000Y-114554000D01*
X141986000Y-116586000D02*
X141986000Y-119126000D01*
X156718000Y-105918000D02*
X156718000Y-111882000D01*
X156718000Y-114554000D02*
X156464000Y-114808000D01*
%TO.N,/PA5*%
X169418000Y-77978000D02*
X169418000Y-84074000D01*
X159620000Y-68180000D02*
X169418000Y-77978000D01*
X169418000Y-84074000D02*
X169418000Y-90678000D01*
X159620000Y-65870000D02*
X159620000Y-68180000D01*
%TO.N,/PA0*%
X172320000Y-65870000D02*
X172320000Y-68180000D01*
X182118000Y-77978000D02*
X182118000Y-84074000D01*
X172320000Y-68180000D02*
X182118000Y-77978000D01*
X182118000Y-84074000D02*
X182118000Y-90678000D01*
%TO.N,/PA7*%
X154540000Y-65870000D02*
X154540000Y-67926000D01*
X154540000Y-67926000D02*
X164338000Y-77724000D01*
X164338000Y-77724000D02*
X164338000Y-84074000D01*
X164338000Y-84074000D02*
X164338000Y-90678000D01*
%TO.N,/PA2*%
X167240000Y-65870000D02*
X167240000Y-68180000D01*
X177038000Y-84074000D02*
X177038000Y-90678000D01*
X167240000Y-68180000D02*
X177038000Y-77978000D01*
X177038000Y-77978000D02*
X177038000Y-84074000D01*
%TO.N,/PA12*%
X164338000Y-105918000D02*
X164338000Y-111882000D01*
%TO.N,/PA11*%
X161798000Y-105918000D02*
X161798000Y-111882000D01*
%TO.N,/VBAT_bp*%
X192278000Y-90678000D02*
X192278000Y-84074000D01*
%TO.N,/PC13*%
X189738000Y-84074000D02*
X189738000Y-90678000D01*
X189738000Y-90678000D02*
X189738000Y-93594000D01*
X189738000Y-93594000D02*
X188468000Y-94864000D01*
%TO.N,/PC14*%
X187198000Y-84074000D02*
X187198000Y-90678000D01*
%TO.N,/PC15*%
X184658000Y-90678000D02*
X184658000Y-84074000D01*
%TD*%
%TA.AperFunction,Conductor*%
%TO.N,/TC2*%
G36*
X157401538Y-121518427D02*
G01*
X157404030Y-121522117D01*
X157981674Y-122878859D01*
X157981762Y-122887813D01*
X157975492Y-122894207D01*
X157975398Y-122894247D01*
X157205489Y-123214134D01*
X157196534Y-123214143D01*
X157196511Y-123214134D01*
X156426601Y-122894247D01*
X156420276Y-122887908D01*
X156420284Y-122878954D01*
X156997970Y-121522117D01*
X157004364Y-121515847D01*
X157008735Y-121515000D01*
X157393265Y-121515000D01*
X157401538Y-121518427D01*
G37*
%TD.AperFunction*%
%TD*%
%TA.AperFunction,Conductor*%
%TO.N,/PA7*%
G36*
X154544489Y-65870865D02*
G01*
X155314398Y-66190752D01*
X155320723Y-66197091D01*
X155320714Y-66206046D01*
X155320674Y-66206140D01*
X154743030Y-67562883D01*
X154736636Y-67569153D01*
X154732265Y-67570000D01*
X154347735Y-67570000D01*
X154339462Y-67566573D01*
X154336970Y-67562883D01*
X153759325Y-66206140D01*
X153759237Y-66197186D01*
X153765507Y-66190792D01*
X153765540Y-66190777D01*
X154535511Y-65870864D01*
X154544466Y-65870856D01*
X154544489Y-65870865D01*
G37*
%TD.AperFunction*%
%TD*%
%TA.AperFunction,Conductor*%
%TO.N,/GND_BAT*%
G36*
X177550399Y-143992434D02*
G01*
X177555623Y-143998229D01*
X177895135Y-144815512D01*
X177895144Y-144824466D01*
X177895135Y-144824488D01*
X177555623Y-145641770D01*
X177549284Y-145648096D01*
X177541493Y-145648500D01*
X176104375Y-145222482D01*
X176097417Y-145216845D01*
X176096000Y-145211264D01*
X176096000Y-144428735D01*
X176099427Y-144420462D01*
X176104373Y-144417517D01*
X177541494Y-143991499D01*
X177550399Y-143992434D01*
G37*
%TD.AperFunction*%
%TD*%
%TA.AperFunction,Conductor*%
%TO.N,/PA1*%
G36*
X169784489Y-65870865D02*
G01*
X170554398Y-66190752D01*
X170560723Y-66197091D01*
X170560714Y-66206046D01*
X170560674Y-66206140D01*
X169983030Y-67562883D01*
X169976636Y-67569153D01*
X169972265Y-67570000D01*
X169587735Y-67570000D01*
X169579462Y-67566573D01*
X169576970Y-67562883D01*
X168999325Y-66206140D01*
X168999237Y-66197186D01*
X169005507Y-66190792D01*
X169005540Y-66190777D01*
X169775511Y-65870864D01*
X169784466Y-65870856D01*
X169784489Y-65870865D01*
G37*
%TD.AperFunction*%
%TD*%
%TA.AperFunction,Conductor*%
%TO.N,/PB0*%
G36*
X153224946Y-78767396D02*
G01*
X153224956Y-78767400D01*
X154500800Y-79299000D01*
X154507119Y-79305345D01*
X154508000Y-79309800D01*
X154508000Y-79694199D01*
X154504573Y-79702472D01*
X154500800Y-79704999D01*
X153224956Y-80236599D01*
X153216001Y-80236618D01*
X153209657Y-80230300D01*
X152908864Y-79506487D01*
X152908854Y-79497538D01*
X153209653Y-78773708D01*
X153215991Y-78767385D01*
X153224946Y-78767396D01*
G37*
%TD.AperFunction*%
%TD*%
%TA.AperFunction,Conductor*%
%TO.N,/RESET*%
G36*
X135126473Y-102647427D02*
G01*
X135129000Y-102651200D01*
X135660599Y-103927043D01*
X135660618Y-103935998D01*
X135654299Y-103942343D01*
X135654289Y-103942347D01*
X134930490Y-104243134D01*
X134921536Y-104243144D01*
X134197709Y-103942346D01*
X134191385Y-103936008D01*
X134191396Y-103927053D01*
X134191400Y-103927043D01*
X134723000Y-102651200D01*
X134729345Y-102644881D01*
X134733800Y-102644000D01*
X135118200Y-102644000D01*
X135126473Y-102647427D01*
G37*
%TD.AperFunction*%
%TD*%
%TA.AperFunction,Conductor*%
%TO.N,/RESET*%
G36*
X135242946Y-103509396D02*
G01*
X135242956Y-103509400D01*
X136518800Y-104041000D01*
X136525119Y-104047345D01*
X136526000Y-104051800D01*
X136526000Y-104436199D01*
X136522573Y-104444472D01*
X136518800Y-104446999D01*
X135242956Y-104978599D01*
X135234001Y-104978618D01*
X135227657Y-104972300D01*
X134926864Y-104248487D01*
X134926854Y-104239538D01*
X135227653Y-103515708D01*
X135233991Y-103509385D01*
X135242946Y-103509396D01*
G37*
%TD.AperFunction*%
%TD*%
%TA.AperFunction,Conductor*%
%TO.N,/3v3*%
G36*
X125439207Y-90411507D02*
G01*
X125439247Y-90411601D01*
X125759134Y-91181511D01*
X125759143Y-91190466D01*
X125759134Y-91190489D01*
X125439247Y-91960398D01*
X125432908Y-91966723D01*
X125423953Y-91966714D01*
X125423859Y-91966674D01*
X124067117Y-91389030D01*
X124060847Y-91382636D01*
X124060000Y-91378265D01*
X124060000Y-90993734D01*
X124063427Y-90985461D01*
X124067113Y-90982971D01*
X125423860Y-90405324D01*
X125432813Y-90405237D01*
X125439207Y-90411507D01*
G37*
%TD.AperFunction*%
%TD*%
%TA.AperFunction,Conductor*%
%TO.N,/PA2*%
G36*
X167244489Y-65870865D02*
G01*
X168014398Y-66190752D01*
X168020723Y-66197091D01*
X168020714Y-66206046D01*
X168020674Y-66206140D01*
X167443030Y-67562883D01*
X167436636Y-67569153D01*
X167432265Y-67570000D01*
X167047735Y-67570000D01*
X167039462Y-67566573D01*
X167036970Y-67562883D01*
X166459325Y-66206140D01*
X166459237Y-66197186D01*
X166465507Y-66190792D01*
X166465540Y-66190777D01*
X167235511Y-65870864D01*
X167244466Y-65870856D01*
X167244489Y-65870865D01*
G37*
%TD.AperFunction*%
%TD*%
%TA.AperFunction,Conductor*%
%TO.N,/PB0*%
G36*
X149938776Y-70586071D02*
G01*
X149945103Y-70592409D01*
X149945094Y-70601363D01*
X149944968Y-70601656D01*
X149229097Y-72201080D01*
X149222589Y-72207231D01*
X149218418Y-72208000D01*
X148833582Y-72208000D01*
X148825309Y-72204573D01*
X148822903Y-72201080D01*
X148107031Y-70601656D01*
X148106779Y-70592705D01*
X148112930Y-70586197D01*
X148113156Y-70586099D01*
X149021514Y-70208862D01*
X149030464Y-70208854D01*
X149938776Y-70586071D01*
G37*
%TD.AperFunction*%
%TD*%
%TA.AperFunction,Conductor*%
%TO.N,/PA6*%
G36*
X157084489Y-65870865D02*
G01*
X157854398Y-66190752D01*
X157860723Y-66197091D01*
X157860714Y-66206046D01*
X157860674Y-66206140D01*
X157283030Y-67562883D01*
X157276636Y-67569153D01*
X157272265Y-67570000D01*
X156887735Y-67570000D01*
X156879462Y-67566573D01*
X156876970Y-67562883D01*
X156299325Y-66206140D01*
X156299237Y-66197186D01*
X156305507Y-66190792D01*
X156305540Y-66190777D01*
X157075511Y-65870864D01*
X157084466Y-65870856D01*
X157084489Y-65870865D01*
G37*
%TD.AperFunction*%
%TD*%
%TA.AperFunction,Conductor*%
%TO.N,/PB0*%
G36*
X149226691Y-74711427D02*
G01*
X149229097Y-74714920D01*
X149944968Y-76314343D01*
X149945220Y-76323294D01*
X149939069Y-76329802D01*
X149938776Y-76329928D01*
X149030487Y-76707136D01*
X149021533Y-76707145D01*
X149021513Y-76707136D01*
X148113223Y-76329928D01*
X148106896Y-76323590D01*
X148106905Y-76314636D01*
X148107012Y-76314385D01*
X148822903Y-74714920D01*
X148829411Y-74708769D01*
X148833582Y-74708000D01*
X149218418Y-74708000D01*
X149226691Y-74711427D01*
G37*
%TD.AperFunction*%
%TD*%
%TA.AperFunction,Conductor*%
%TO.N,Net-(D4-A)*%
G36*
X134932516Y-139526855D02*
G01*
X134938842Y-139533194D01*
X134938833Y-139542148D01*
X134938761Y-139542317D01*
X134315056Y-140979957D01*
X134308620Y-140986182D01*
X134304323Y-140987000D01*
X133919677Y-140987000D01*
X133911404Y-140983573D01*
X133908944Y-140979957D01*
X133285238Y-139542317D01*
X133285089Y-139533363D01*
X133291314Y-139526927D01*
X133291406Y-139526887D01*
X134107512Y-139187863D01*
X134116465Y-139187855D01*
X134932516Y-139526855D01*
G37*
%TD.AperFunction*%
%TD*%
%TA.AperFunction,Conductor*%
%TO.N,/I2C_SDA*%
G36*
X154378473Y-93907427D02*
G01*
X154381000Y-93911200D01*
X154912599Y-95187043D01*
X154912618Y-95195998D01*
X154906299Y-95202343D01*
X154906289Y-95202347D01*
X154182490Y-95503134D01*
X154173536Y-95503144D01*
X153449709Y-95202346D01*
X153443385Y-95196008D01*
X153443396Y-95187053D01*
X153443400Y-95187043D01*
X153975000Y-93911200D01*
X153981345Y-93904881D01*
X153985800Y-93904000D01*
X154370200Y-93904000D01*
X154378473Y-93907427D01*
G37*
%TD.AperFunction*%
%TD*%
%TA.AperFunction,Conductor*%
%TO.N,/3v3*%
G36*
X152200538Y-64173427D02*
G01*
X152203030Y-64177117D01*
X152780674Y-65533859D01*
X152780762Y-65542813D01*
X152774492Y-65549207D01*
X152774398Y-65549247D01*
X152004489Y-65869134D01*
X151995534Y-65869143D01*
X151995511Y-65869134D01*
X151225601Y-65549247D01*
X151219276Y-65542908D01*
X151219284Y-65533954D01*
X151796970Y-64177117D01*
X151803364Y-64170847D01*
X151807735Y-64170000D01*
X152192265Y-64170000D01*
X152200538Y-64173427D01*
G37*
%TD.AperFunction*%
%TD*%
%TA.AperFunction,Conductor*%
%TO.N,/PB0*%
G36*
X149032521Y-76710290D02*
G01*
X149940116Y-77086634D01*
X149946445Y-77092969D01*
X149946840Y-77100807D01*
X149555762Y-78403250D01*
X149552829Y-78408158D01*
X149281622Y-78679365D01*
X149273349Y-78682792D01*
X149265076Y-78679365D01*
X149263986Y-78678108D01*
X148324958Y-77423213D01*
X148322746Y-77414537D01*
X148326045Y-77407940D01*
X149019763Y-76712833D01*
X149028031Y-76709399D01*
X149032521Y-76710290D01*
G37*
%TD.AperFunction*%
%TD*%
%TA.AperFunction,Conductor*%
%TO.N,/PA0*%
G36*
X172324489Y-65870865D02*
G01*
X173094398Y-66190752D01*
X173100723Y-66197091D01*
X173100714Y-66206046D01*
X173100674Y-66206140D01*
X172523030Y-67562883D01*
X172516636Y-67569153D01*
X172512265Y-67570000D01*
X172127735Y-67570000D01*
X172119462Y-67566573D01*
X172116970Y-67562883D01*
X171539325Y-66206140D01*
X171539237Y-66197186D01*
X171545507Y-66190792D01*
X171545540Y-66190777D01*
X172315511Y-65870864D01*
X172324466Y-65870856D01*
X172324489Y-65870865D01*
G37*
%TD.AperFunction*%
%TD*%
%TA.AperFunction,Conductor*%
%TO.N,/RESET*%
G36*
X135654290Y-104545653D02*
G01*
X135660614Y-104551991D01*
X135660603Y-104560946D01*
X135660599Y-104560956D01*
X135129000Y-105836800D01*
X135122655Y-105843119D01*
X135118200Y-105844000D01*
X134733800Y-105844000D01*
X134725527Y-105840573D01*
X134723000Y-105836800D01*
X134191400Y-104560956D01*
X134191381Y-104552001D01*
X134197697Y-104545658D01*
X134921512Y-104244864D01*
X134930461Y-104244854D01*
X135654290Y-104545653D01*
G37*
%TD.AperFunction*%
%TD*%
%TA.AperFunction,Conductor*%
%TO.N,/I2C_SCL*%
G36*
X125433373Y-85324738D02*
G01*
X125438854Y-85330673D01*
X125705039Y-85972484D01*
X125758846Y-86102219D01*
X125758850Y-86111174D01*
X125758844Y-86111190D01*
X125440160Y-86878200D01*
X125433821Y-86884525D01*
X125424866Y-86884516D01*
X125422894Y-86883465D01*
X124257037Y-86111174D01*
X124047668Y-85972483D01*
X124042664Y-85965058D01*
X124044376Y-85956269D01*
X124045852Y-85954462D01*
X124316588Y-85683726D01*
X124321256Y-85680869D01*
X125424448Y-85324024D01*
X125433373Y-85324738D01*
G37*
%TD.AperFunction*%
%TD*%
%TA.AperFunction,Conductor*%
%TO.N,/PA3*%
G36*
X164704489Y-65870865D02*
G01*
X165474398Y-66190752D01*
X165480723Y-66197091D01*
X165480714Y-66206046D01*
X165480674Y-66206140D01*
X164903030Y-67562883D01*
X164896636Y-67569153D01*
X164892265Y-67570000D01*
X164507735Y-67570000D01*
X164499462Y-67566573D01*
X164496970Y-67562883D01*
X163919325Y-66206140D01*
X163919237Y-66197186D01*
X163925507Y-66190792D01*
X163925540Y-66190777D01*
X164695511Y-65870864D01*
X164704466Y-65870856D01*
X164704489Y-65870865D01*
G37*
%TD.AperFunction*%
%TD*%
%TA.AperFunction,Conductor*%
%TO.N,/3v3*%
G36*
X152004489Y-65870865D02*
G01*
X152774398Y-66190752D01*
X152780723Y-66197091D01*
X152780714Y-66206046D01*
X152780674Y-66206140D01*
X152203030Y-67562883D01*
X152196636Y-67569153D01*
X152192265Y-67570000D01*
X151807735Y-67570000D01*
X151799462Y-67566573D01*
X151796970Y-67562883D01*
X151219325Y-66206140D01*
X151219237Y-66197186D01*
X151225507Y-66190792D01*
X151225540Y-66190777D01*
X151995511Y-65870864D01*
X152004466Y-65870856D01*
X152004489Y-65870865D01*
G37*
%TD.AperFunction*%
%TD*%
%TA.AperFunction,Conductor*%
%TO.N,Net-(D3-A)*%
G36*
X197531022Y-80708465D02*
G01*
X197531723Y-80709876D01*
X197869844Y-81523809D01*
X197869853Y-81532763D01*
X197869846Y-81532779D01*
X197531015Y-82349808D01*
X197524681Y-82356137D01*
X197515851Y-82356184D01*
X196295483Y-81866474D01*
X196291567Y-81863889D01*
X196021145Y-81593467D01*
X196017718Y-81585194D01*
X196021145Y-81576921D01*
X196023514Y-81575093D01*
X197515021Y-80704259D01*
X197523891Y-80703048D01*
X197531022Y-80708465D01*
G37*
%TD.AperFunction*%
%TD*%
%TA.AperFunction,Conductor*%
%TO.N,/PB0*%
G36*
X161998473Y-93907427D02*
G01*
X162001000Y-93911200D01*
X162532599Y-95187043D01*
X162532618Y-95195998D01*
X162526299Y-95202343D01*
X162526289Y-95202347D01*
X161802490Y-95503134D01*
X161793536Y-95503144D01*
X161069709Y-95202346D01*
X161063385Y-95196008D01*
X161063396Y-95187053D01*
X161063400Y-95187043D01*
X161595000Y-93911200D01*
X161601345Y-93904881D01*
X161605800Y-93904000D01*
X161990200Y-93904000D01*
X161998473Y-93907427D01*
G37*
%TD.AperFunction*%
%TD*%
%TA.AperFunction,Conductor*%
%TO.N,Net-(D3-A)*%
G36*
X179036290Y-95165653D02*
G01*
X179042614Y-95171991D01*
X179042603Y-95180946D01*
X179042599Y-95180956D01*
X178511000Y-96456800D01*
X178504655Y-96463119D01*
X178500200Y-96464000D01*
X178115800Y-96464000D01*
X178107527Y-96460573D01*
X178105000Y-96456800D01*
X177573400Y-95180956D01*
X177573381Y-95172001D01*
X177579697Y-95165658D01*
X178303512Y-94864864D01*
X178312461Y-94864854D01*
X179036290Y-95165653D01*
G37*
%TD.AperFunction*%
%TD*%
%TA.AperFunction,Conductor*%
%TO.N,/PC13*%
G36*
X189459691Y-93594197D02*
G01*
X189463464Y-93596724D01*
X189735275Y-93868535D01*
X189738702Y-93876808D01*
X189737821Y-93881263D01*
X189211563Y-95159317D01*
X189205244Y-95165662D01*
X189196289Y-95165681D01*
X189196279Y-95165677D01*
X188471787Y-94866562D01*
X188465448Y-94860237D01*
X188465437Y-94860212D01*
X188166322Y-94135720D01*
X188166333Y-94126765D01*
X188172670Y-94120441D01*
X189450738Y-93594178D01*
X189459691Y-93594197D01*
G37*
%TD.AperFunction*%
%TD*%
%TA.AperFunction,Conductor*%
%TO.N,/GND*%
G36*
X129676282Y-61994954D02*
G01*
X129757064Y-62048930D01*
X129811040Y-62129712D01*
X129829994Y-62225000D01*
X129811040Y-62320288D01*
X129757064Y-62401070D01*
X129719330Y-62432036D01*
X129664223Y-62468856D01*
X129664216Y-62468862D01*
X129524860Y-62608217D01*
X129524861Y-62608218D01*
X129524858Y-62608221D01*
X120520221Y-71612858D01*
X120520218Y-71612861D01*
X120520217Y-71612860D01*
X120380862Y-71752216D01*
X120380860Y-71752219D01*
X120271368Y-71916084D01*
X120249748Y-71968282D01*
X120209030Y-72066584D01*
X120209028Y-72066589D01*
X120195950Y-72098160D01*
X120195948Y-72098166D01*
X120157500Y-72291454D01*
X120157500Y-95609118D01*
X120138546Y-95704406D01*
X120137600Y-95706659D01*
X119636161Y-96884409D01*
X119620173Y-96933658D01*
X119613388Y-96952056D01*
X119583427Y-97024390D01*
X119522778Y-97277008D01*
X119502396Y-97535994D01*
X119502396Y-97536005D01*
X119522778Y-97794991D01*
X119583426Y-98047608D01*
X119583427Y-98047610D01*
X119682846Y-98287628D01*
X119818588Y-98509140D01*
X119987311Y-98706689D01*
X120184860Y-98875412D01*
X120406372Y-99011154D01*
X120646390Y-99110573D01*
X120899006Y-99171221D01*
X120963754Y-99176316D01*
X121157994Y-99191604D01*
X121158000Y-99191604D01*
X121158006Y-99191604D01*
X121330662Y-99178015D01*
X121416994Y-99171221D01*
X121669610Y-99110573D01*
X121909628Y-99011154D01*
X122131140Y-98875412D01*
X122230172Y-98790829D01*
X122314936Y-98743359D01*
X122411418Y-98731939D01*
X122504925Y-98758311D01*
X122541105Y-98780839D01*
X122605909Y-98829352D01*
X122740621Y-98879596D01*
X122740628Y-98879598D01*
X122800167Y-98885999D01*
X122800175Y-98886000D01*
X123447999Y-98886000D01*
X123448000Y-98885999D01*
X123448000Y-97969012D01*
X123505007Y-98001925D01*
X123632174Y-98036000D01*
X123763826Y-98036000D01*
X123890993Y-98001925D01*
X123948000Y-97969012D01*
X123948000Y-98885999D01*
X123948001Y-98886000D01*
X124595825Y-98886000D01*
X124595832Y-98885999D01*
X124655371Y-98879598D01*
X124655378Y-98879596D01*
X124790088Y-98829353D01*
X124854892Y-98780840D01*
X124942532Y-98738908D01*
X125039548Y-98733706D01*
X125131169Y-98766026D01*
X125165825Y-98790828D01*
X125264860Y-98875412D01*
X125486372Y-99011154D01*
X125726390Y-99110573D01*
X125979006Y-99171221D01*
X126043754Y-99176316D01*
X126237994Y-99191604D01*
X126238000Y-99191604D01*
X126238006Y-99191604D01*
X126410662Y-99178015D01*
X126496994Y-99171221D01*
X126749610Y-99110573D01*
X126989628Y-99011154D01*
X127211140Y-98875412D01*
X127346288Y-98759984D01*
X127431054Y-98712512D01*
X127527535Y-98701092D01*
X127621043Y-98727464D01*
X127669710Y-98759983D01*
X127705830Y-98790832D01*
X127804857Y-98875410D01*
X127804859Y-98875411D01*
X127804860Y-98875412D01*
X128026372Y-99011154D01*
X128266390Y-99110573D01*
X128519006Y-99171221D01*
X128583754Y-99176316D01*
X128777994Y-99191604D01*
X128778000Y-99191604D01*
X128778006Y-99191604D01*
X128950662Y-99178015D01*
X129036994Y-99171221D01*
X129289610Y-99110573D01*
X129529628Y-99011154D01*
X129751140Y-98875412D01*
X129948689Y-98706689D01*
X130117412Y-98509140D01*
X130253154Y-98287628D01*
X130352573Y-98047610D01*
X130413221Y-97794994D01*
X130420864Y-97697871D01*
X130433604Y-97536005D01*
X130433604Y-97535994D01*
X130413221Y-97277008D01*
X130402206Y-97231128D01*
X130352573Y-97024390D01*
X130318247Y-96941522D01*
X130309720Y-96917531D01*
X130299798Y-96884319D01*
X129921561Y-95995935D01*
X129901674Y-95900841D01*
X129919692Y-95805371D01*
X129972873Y-95724064D01*
X129974491Y-95722428D01*
X132349140Y-93347781D01*
X132458632Y-93183914D01*
X132534052Y-93001835D01*
X132572500Y-92808540D01*
X132572500Y-92611460D01*
X132572500Y-84737459D01*
X132538494Y-84566500D01*
X132534051Y-84544164D01*
X132496137Y-84452632D01*
X132458632Y-84362086D01*
X132349139Y-84198218D01*
X132209782Y-84058861D01*
X132209778Y-84058858D01*
X131257990Y-83107070D01*
X131204014Y-83026288D01*
X131185060Y-82931000D01*
X131204014Y-82835712D01*
X131257990Y-82754930D01*
X131257991Y-82754930D01*
X132167492Y-81845430D01*
X132248273Y-81791454D01*
X132343561Y-81772500D01*
X145278441Y-81772500D01*
X145373729Y-81791454D01*
X145454507Y-81845427D01*
X145454511Y-81845431D01*
X146057975Y-82448897D01*
X146111951Y-82529678D01*
X146130905Y-82624966D01*
X146111951Y-82720255D01*
X146057974Y-82801036D01*
X145987139Y-82850636D01*
X145880421Y-82900400D01*
X145880420Y-82900400D01*
X145686911Y-83035898D01*
X145682456Y-83039636D01*
X145678380Y-83041871D01*
X145678017Y-83042126D01*
X145677989Y-83042086D01*
X145597274Y-83086361D01*
X145500696Y-83096931D01*
X145407424Y-83069738D01*
X145331659Y-83008921D01*
X145322641Y-82995707D01*
X145322026Y-82996169D01*
X145225189Y-82866812D01*
X145225187Y-82866810D01*
X145110087Y-82780646D01*
X144975378Y-82730403D01*
X144975371Y-82730401D01*
X144915832Y-82724000D01*
X144268001Y-82724000D01*
X144268000Y-82724001D01*
X144268000Y-83640988D01*
X144210993Y-83608075D01*
X144083826Y-83574000D01*
X143952174Y-83574000D01*
X143825007Y-83608075D01*
X143768000Y-83640988D01*
X143768000Y-82724001D01*
X143767999Y-82724000D01*
X143120167Y-82724000D01*
X143060628Y-82730401D01*
X143060621Y-82730403D01*
X142925912Y-82780646D01*
X142810812Y-82866810D01*
X142810810Y-82866812D01*
X142724646Y-82981912D01*
X142674403Y-83116621D01*
X142674401Y-83116628D01*
X142668000Y-83176167D01*
X142668000Y-83823999D01*
X142668001Y-83824000D01*
X143584988Y-83824000D01*
X143552075Y-83881007D01*
X143518000Y-84008174D01*
X143518000Y-84139826D01*
X143552075Y-84266993D01*
X143584988Y-84324000D01*
X142668001Y-84324000D01*
X142668000Y-84324001D01*
X142668000Y-84971832D01*
X142674401Y-85031371D01*
X142674403Y-85031378D01*
X142724646Y-85166087D01*
X142810810Y-85281187D01*
X142810812Y-85281189D01*
X142925912Y-85367353D01*
X143060621Y-85417596D01*
X143060628Y-85417598D01*
X143120167Y-85423999D01*
X143120175Y-85424000D01*
X143767999Y-85424000D01*
X143768000Y-85423999D01*
X143768000Y-84507012D01*
X143825007Y-84539925D01*
X143952174Y-84574000D01*
X144083826Y-84574000D01*
X144210993Y-84539925D01*
X144268000Y-84507012D01*
X144268000Y-85423999D01*
X144268001Y-85424000D01*
X144915825Y-85424000D01*
X144915832Y-85423999D01*
X144975371Y-85417598D01*
X144975378Y-85417596D01*
X145110087Y-85367353D01*
X145225187Y-85281189D01*
X145225189Y-85281187D01*
X145322026Y-85151831D01*
X145325235Y-85154233D01*
X145366095Y-85105302D01*
X145452164Y-85060234D01*
X145548929Y-85051535D01*
X145641657Y-85080527D01*
X145682464Y-85108370D01*
X145686913Y-85112103D01*
X145880423Y-85247600D01*
X146094511Y-85347431D01*
X146308000Y-85404635D01*
X146308000Y-84507012D01*
X146365007Y-84539925D01*
X146492174Y-84574000D01*
X146623826Y-84574000D01*
X146750993Y-84539925D01*
X146808000Y-84507012D01*
X146808000Y-85404635D01*
X147021488Y-85347431D01*
X147235576Y-85247600D01*
X147429079Y-85112108D01*
X147446253Y-85094934D01*
X147527033Y-85040956D01*
X147622321Y-85022000D01*
X147717610Y-85040952D01*
X147798392Y-85094927D01*
X147811662Y-85109281D01*
X147927311Y-85244689D01*
X148124860Y-85413412D01*
X148346372Y-85549154D01*
X148586390Y-85648573D01*
X148839006Y-85709221D01*
X148903754Y-85714316D01*
X149097994Y-85729604D01*
X149098000Y-85729604D01*
X149098006Y-85729604D01*
X149270662Y-85716015D01*
X149356994Y-85709221D01*
X149609610Y-85648573D01*
X149849628Y-85549154D01*
X150071140Y-85413412D01*
X150206288Y-85297984D01*
X150291054Y-85250512D01*
X150387535Y-85239092D01*
X150481043Y-85265464D01*
X150529707Y-85297980D01*
X150550215Y-85315496D01*
X150610362Y-85391793D01*
X150636733Y-85485300D01*
X150637500Y-85504834D01*
X150637500Y-89049376D01*
X150618546Y-89144664D01*
X150564570Y-89225446D01*
X150528769Y-89255108D01*
X150508269Y-89269085D01*
X150418861Y-89307103D01*
X150321711Y-89308013D01*
X150231607Y-89271675D01*
X150227733Y-89269086D01*
X150000778Y-89114350D01*
X150000773Y-89114348D01*
X149757649Y-88997265D01*
X149757644Y-88997263D01*
X149757641Y-88997262D01*
X149499772Y-88917720D01*
X149232929Y-88877500D01*
X148963071Y-88877500D01*
X148762938Y-88907665D01*
X148696227Y-88917720D01*
X148438353Y-88997264D01*
X148195227Y-89114348D01*
X147972253Y-89266369D01*
X147769015Y-89454946D01*
X147686272Y-89505864D01*
X147590342Y-89521242D01*
X147495829Y-89498738D01*
X147446713Y-89468912D01*
X147381231Y-89417945D01*
X147381230Y-89417944D01*
X147162606Y-89299630D01*
X146927487Y-89218915D01*
X146808000Y-89198976D01*
X146808000Y-90244988D01*
X146750993Y-90212075D01*
X146623826Y-90178000D01*
X146492174Y-90178000D01*
X146365007Y-90212075D01*
X146308000Y-90244988D01*
X146308000Y-89198976D01*
X146307999Y-89198976D01*
X146188512Y-89218915D01*
X145953393Y-89299630D01*
X145734769Y-89417944D01*
X145734762Y-89417949D01*
X145538600Y-89570629D01*
X145538587Y-89570640D01*
X145471194Y-89643849D01*
X145392712Y-89701117D01*
X145298289Y-89723992D01*
X145202299Y-89708992D01*
X145119356Y-89658399D01*
X145104806Y-89643849D01*
X145037412Y-89570640D01*
X145037399Y-89570629D01*
X144841237Y-89417949D01*
X144841230Y-89417944D01*
X144622606Y-89299630D01*
X144387487Y-89218915D01*
X144268000Y-89198976D01*
X144268000Y-90244988D01*
X144210993Y-90212075D01*
X144083826Y-90178000D01*
X143952174Y-90178000D01*
X143825007Y-90212075D01*
X143768000Y-90244988D01*
X143768000Y-89198976D01*
X143767999Y-89198976D01*
X143648512Y-89218915D01*
X143413393Y-89299630D01*
X143194769Y-89417944D01*
X143194762Y-89417949D01*
X142998600Y-89570629D01*
X142998588Y-89570639D01*
X142830232Y-89753522D01*
X142830230Y-89753524D01*
X142694268Y-89961630D01*
X142694268Y-89961631D01*
X142594413Y-90189277D01*
X142533961Y-90428000D01*
X143584988Y-90428000D01*
X143552075Y-90485007D01*
X143518000Y-90612174D01*
X143518000Y-90743826D01*
X143552075Y-90870993D01*
X143584988Y-90928000D01*
X142533961Y-90928000D01*
X142594413Y-91166722D01*
X142694268Y-91394368D01*
X142694268Y-91394369D01*
X142830230Y-91602475D01*
X142830232Y-91602477D01*
X142998588Y-91785360D01*
X142998600Y-91785370D01*
X143194762Y-91938050D01*
X143194769Y-91938055D01*
X143413392Y-92056368D01*
X143648509Y-92137083D01*
X143648513Y-92137084D01*
X143767999Y-92157022D01*
X143768000Y-92157022D01*
X143768000Y-91111012D01*
X143825007Y-91143925D01*
X143952174Y-91178000D01*
X144083826Y-91178000D01*
X144210993Y-91143925D01*
X144268000Y-91111012D01*
X144268000Y-92157022D01*
X144387486Y-92137084D01*
X144387490Y-92137083D01*
X144622607Y-92056368D01*
X144841230Y-91938055D01*
X144841237Y-91938050D01*
X145037399Y-91785370D01*
X145037411Y-91785360D01*
X145104805Y-91712151D01*
X145183286Y-91654882D01*
X145277710Y-91632007D01*
X145373700Y-91647007D01*
X145456643Y-91697599D01*
X145471195Y-91712151D01*
X145538588Y-91785360D01*
X145538600Y-91785370D01*
X145734762Y-91938050D01*
X145734769Y-91938055D01*
X145953392Y-92056368D01*
X146188509Y-92137083D01*
X146188513Y-92137084D01*
X146307999Y-92157022D01*
X146308000Y-92157022D01*
X146308000Y-91111012D01*
X146365007Y-91143925D01*
X146492174Y-91178000D01*
X146623826Y-91178000D01*
X146750993Y-91143925D01*
X146808000Y-91111012D01*
X146808000Y-92157022D01*
X146927486Y-92137084D01*
X146927490Y-92137083D01*
X147162607Y-92056368D01*
X147381230Y-91938055D01*
X147381240Y-91938048D01*
X147446712Y-91887089D01*
X147533549Y-91843518D01*
X147630450Y-91836495D01*
X147722662Y-91867089D01*
X147769016Y-91901053D01*
X147774437Y-91906083D01*
X147774439Y-91906085D01*
X147972259Y-92089635D01*
X148195226Y-92241651D01*
X148438359Y-92358738D01*
X148696228Y-92438280D01*
X148963071Y-92478500D01*
X148963074Y-92478500D01*
X149232926Y-92478500D01*
X149232929Y-92478500D01*
X149499772Y-92438280D01*
X149757641Y-92358738D01*
X150000775Y-92241651D01*
X150223741Y-92089635D01*
X150223747Y-92089628D01*
X150227731Y-92086913D01*
X150317139Y-92048896D01*
X150414290Y-92047987D01*
X150504393Y-92084325D01*
X150508263Y-92086911D01*
X150528764Y-92100888D01*
X150596819Y-92170225D01*
X150633159Y-92260328D01*
X150637500Y-92306623D01*
X150637500Y-92954439D01*
X150618546Y-93049727D01*
X150564570Y-93130509D01*
X148968218Y-94726861D01*
X148968217Y-94726860D01*
X148828862Y-94866216D01*
X148828860Y-94866219D01*
X148719369Y-95030084D01*
X148719367Y-95030087D01*
X148679730Y-95125781D01*
X148660180Y-95172980D01*
X148643949Y-95212164D01*
X148635856Y-95252852D01*
X148630588Y-95279334D01*
X148605500Y-95405456D01*
X148605500Y-99812439D01*
X148586546Y-99907727D01*
X148532570Y-99988509D01*
X146470510Y-102050570D01*
X146389728Y-102104546D01*
X146294440Y-102123500D01*
X145037329Y-102123500D01*
X144942041Y-102104546D01*
X144861259Y-102050570D01*
X144807283Y-101969788D01*
X144788329Y-101874500D01*
X144807283Y-101779212D01*
X144861259Y-101698430D01*
X144907227Y-101662193D01*
X144961652Y-101628841D01*
X144961654Y-101628839D01*
X144961653Y-101628839D01*
X144961659Y-101628836D01*
X145153224Y-101465224D01*
X145316836Y-101273659D01*
X145316839Y-101273653D01*
X145316841Y-101273652D01*
X145373633Y-101180974D01*
X145448466Y-101058859D01*
X145544873Y-100826111D01*
X145603683Y-100581148D01*
X145621141Y-100359330D01*
X145623449Y-100330005D01*
X145623449Y-100329994D01*
X145603683Y-100078854D01*
X145603682Y-100078851D01*
X145544873Y-99833889D01*
X145514007Y-99759373D01*
X145504929Y-99733515D01*
X145496142Y-99703250D01*
X145496138Y-99703236D01*
X145284281Y-99194776D01*
X145037654Y-98602868D01*
X145018501Y-98507620D01*
X145018500Y-98507099D01*
X145018500Y-97326897D01*
X145037454Y-97231609D01*
X145037654Y-97231128D01*
X145121093Y-97030873D01*
X145496142Y-96130752D01*
X145511432Y-96083049D01*
X145518494Y-96063791D01*
X145544873Y-96000111D01*
X145603683Y-95755148D01*
X145616456Y-95592850D01*
X145623449Y-95504005D01*
X145623449Y-95503994D01*
X145603683Y-95252854D01*
X145593915Y-95212164D01*
X145544873Y-95007889D01*
X145448466Y-94775141D01*
X145420875Y-94730117D01*
X145316841Y-94560347D01*
X145316839Y-94560345D01*
X145316836Y-94560341D01*
X145153224Y-94368776D01*
X144961659Y-94205164D01*
X144961657Y-94205163D01*
X144961654Y-94205160D01*
X144961652Y-94205158D01*
X144746864Y-94073537D01*
X144746858Y-94073533D01*
X144514116Y-93977129D01*
X144514108Y-93977126D01*
X144269145Y-93918316D01*
X144018005Y-93898551D01*
X144017995Y-93898551D01*
X143766854Y-93918316D01*
X143521884Y-93977128D01*
X143447383Y-94007987D01*
X143421536Y-94017062D01*
X143391234Y-94025861D01*
X142435956Y-94423893D01*
X142292039Y-94483859D01*
X142290870Y-94484346D01*
X142195622Y-94503499D01*
X142195101Y-94503500D01*
X141965500Y-94503500D01*
X141870212Y-94484546D01*
X141789430Y-94430570D01*
X141735454Y-94349788D01*
X141716500Y-94254500D01*
X141716500Y-86261459D01*
X141716499Y-86261454D01*
X141682494Y-86090500D01*
X141682493Y-86090496D01*
X141678051Y-86068164D01*
X141640138Y-85976634D01*
X141640137Y-85976632D01*
X141602632Y-85886086D01*
X141493139Y-85722218D01*
X141353782Y-85582861D01*
X141353778Y-85582858D01*
X139207141Y-83436221D01*
X139207139Y-83436218D01*
X139067782Y-83296861D01*
X138903914Y-83187368D01*
X138876872Y-83176167D01*
X138766252Y-83130347D01*
X138759285Y-83127461D01*
X138721836Y-83111949D01*
X138721832Y-83111948D01*
X138621985Y-83092086D01*
X138621978Y-83092086D01*
X138528541Y-83073500D01*
X138528539Y-83073500D01*
X137712899Y-83073500D01*
X137617611Y-83054546D01*
X137617130Y-83054346D01*
X137500626Y-83005803D01*
X136516753Y-82595857D01*
X136510537Y-82593864D01*
X136469050Y-82580564D01*
X136449783Y-82573499D01*
X136386119Y-82547130D01*
X136386108Y-82547126D01*
X136141145Y-82488316D01*
X135890005Y-82468551D01*
X135889995Y-82468551D01*
X135638854Y-82488316D01*
X135393891Y-82547126D01*
X135393883Y-82547129D01*
X135161141Y-82643533D01*
X135161135Y-82643537D01*
X134946347Y-82775158D01*
X134946345Y-82775160D01*
X134754779Y-82938773D01*
X134754773Y-82938779D01*
X134591160Y-83130345D01*
X134591158Y-83130347D01*
X134459537Y-83345135D01*
X134459533Y-83345141D01*
X134363129Y-83577883D01*
X134363126Y-83577891D01*
X134304316Y-83822854D01*
X134284551Y-84073994D01*
X134284551Y-84074005D01*
X134304316Y-84325145D01*
X134363126Y-84570108D01*
X134363129Y-84570116D01*
X134459533Y-84802858D01*
X134459537Y-84802864D01*
X134591158Y-85017652D01*
X134591160Y-85017654D01*
X134591163Y-85017657D01*
X134591164Y-85017659D01*
X134754776Y-85209224D01*
X134946341Y-85372836D01*
X134946345Y-85372839D01*
X134946347Y-85372841D01*
X135101990Y-85468218D01*
X135161141Y-85504466D01*
X135393889Y-85600873D01*
X135638852Y-85659683D01*
X135710608Y-85665330D01*
X135889995Y-85679449D01*
X135890000Y-85679449D01*
X135890005Y-85679449D01*
X136046967Y-85667095D01*
X136141148Y-85659683D01*
X136386111Y-85600873D01*
X136460623Y-85570007D01*
X136486477Y-85560930D01*
X136516763Y-85552138D01*
X137617128Y-85093653D01*
X137712376Y-85074501D01*
X137712897Y-85074500D01*
X137912440Y-85074500D01*
X138007728Y-85093454D01*
X138088510Y-85147430D01*
X139642570Y-86701490D01*
X139696546Y-86782272D01*
X139715500Y-86877560D01*
X139715500Y-95094543D01*
X139731102Y-95172977D01*
X139731102Y-95172979D01*
X139753947Y-95287832D01*
X139753950Y-95287840D01*
X139773092Y-95334052D01*
X139783886Y-95360111D01*
X139829368Y-95469914D01*
X139938861Y-95633782D01*
X140078218Y-95773139D01*
X140078220Y-95773140D01*
X140092412Y-95787332D01*
X140092411Y-95787332D01*
X140092414Y-95787334D01*
X140301017Y-95995938D01*
X140446860Y-96141781D01*
X140446862Y-96141784D01*
X140521930Y-96216851D01*
X140586218Y-96281139D01*
X140750086Y-96390632D01*
X140856745Y-96434811D01*
X140932164Y-96466051D01*
X141125459Y-96504500D01*
X142195103Y-96504500D01*
X142290391Y-96523454D01*
X142290792Y-96523621D01*
X142695623Y-96692299D01*
X142776289Y-96746443D01*
X142829698Y-96826375D01*
X142997455Y-97228993D01*
X142998346Y-97231130D01*
X143017499Y-97326378D01*
X143017500Y-97326899D01*
X143017500Y-98507099D01*
X142998546Y-98602387D01*
X142998346Y-98602868D01*
X142539858Y-99703242D01*
X142539855Y-99703250D01*
X142524562Y-99750956D01*
X142517495Y-99770227D01*
X142491126Y-99833889D01*
X142491125Y-99833892D01*
X142432316Y-100078851D01*
X142432316Y-100078854D01*
X142412551Y-100329994D01*
X142412551Y-100330005D01*
X142432316Y-100581145D01*
X142491126Y-100826108D01*
X142491129Y-100826116D01*
X142587533Y-101058858D01*
X142587537Y-101058864D01*
X142719158Y-101273652D01*
X142719160Y-101273654D01*
X142719163Y-101273657D01*
X142719164Y-101273659D01*
X142882776Y-101465224D01*
X143074341Y-101628836D01*
X143074345Y-101628839D01*
X143074347Y-101628841D01*
X143128773Y-101662193D01*
X143200116Y-101728142D01*
X143240791Y-101816372D01*
X143244605Y-101913452D01*
X143210978Y-102004602D01*
X143145029Y-102075945D01*
X143056799Y-102116620D01*
X142998671Y-102123500D01*
X141652667Y-102123500D01*
X141556020Y-102142724D01*
X141502196Y-102153430D01*
X141459370Y-102161949D01*
X141424352Y-102176455D01*
X141406842Y-102183708D01*
X141406840Y-102183708D01*
X141406839Y-102183709D01*
X141277299Y-102237365D01*
X141277292Y-102237369D01*
X141113427Y-102346860D01*
X141113424Y-102346862D01*
X140974068Y-102486217D01*
X140974069Y-102486218D01*
X140974066Y-102486221D01*
X140974065Y-102486220D01*
X140289719Y-103170569D01*
X140208938Y-103224546D01*
X140113649Y-103243500D01*
X136748899Y-103243500D01*
X136653611Y-103224546D01*
X136653130Y-103224346D01*
X136585519Y-103196175D01*
X136248376Y-103055699D01*
X136167708Y-103001554D01*
X136114301Y-102921626D01*
X135945652Y-102516866D01*
X135926501Y-102421619D01*
X135926500Y-102421099D01*
X135926500Y-101049558D01*
X135945454Y-100954270D01*
X135999428Y-100873491D01*
X136527778Y-100345141D01*
X136527782Y-100345139D01*
X136667139Y-100205782D01*
X136776632Y-100041914D01*
X136845166Y-99876457D01*
X136852051Y-99859836D01*
X136890500Y-99666540D01*
X136890500Y-99469460D01*
X136890500Y-96056897D01*
X136909454Y-95961609D01*
X136909654Y-95961128D01*
X136933457Y-95904000D01*
X137368142Y-94860752D01*
X137383432Y-94813049D01*
X137390494Y-94793791D01*
X137416873Y-94730111D01*
X137475683Y-94485148D01*
X137492007Y-94277732D01*
X137495449Y-94234005D01*
X137495449Y-94233994D01*
X137475683Y-93982854D01*
X137474309Y-93977128D01*
X137416873Y-93737889D01*
X137320466Y-93505141D01*
X137276585Y-93433534D01*
X137188841Y-93290347D01*
X137188839Y-93290345D01*
X137188836Y-93290341D01*
X137025224Y-93098776D01*
X136833659Y-92935164D01*
X136833657Y-92935163D01*
X136833654Y-92935160D01*
X136833652Y-92935158D01*
X136618864Y-92803537D01*
X136618858Y-92803533D01*
X136386116Y-92707129D01*
X136386108Y-92707126D01*
X136141145Y-92648316D01*
X135890005Y-92628551D01*
X135889995Y-92628551D01*
X135638854Y-92648316D01*
X135393891Y-92707126D01*
X135393883Y-92707129D01*
X135161141Y-92803533D01*
X135161135Y-92803537D01*
X134946347Y-92935158D01*
X134946345Y-92935160D01*
X134754779Y-93098773D01*
X134754773Y-93098779D01*
X134591160Y-93290345D01*
X134591158Y-93290347D01*
X134459537Y-93505135D01*
X134459533Y-93505141D01*
X134363129Y-93737883D01*
X134363126Y-93737891D01*
X134304316Y-93982854D01*
X134284551Y-94233994D01*
X134284551Y-94234005D01*
X134304316Y-94485145D01*
X134308723Y-94503500D01*
X134363127Y-94730111D01*
X134375730Y-94760537D01*
X134393989Y-94804621D01*
X134403063Y-94830466D01*
X134411861Y-94860765D01*
X134870346Y-95961130D01*
X134889499Y-96056378D01*
X134889500Y-96056899D01*
X134889500Y-99050440D01*
X134870546Y-99145728D01*
X134816570Y-99226510D01*
X134236219Y-99806861D01*
X134236218Y-99806860D01*
X134096862Y-99946217D01*
X134096860Y-99946220D01*
X133987369Y-100110085D01*
X133987368Y-100110087D01*
X133911949Y-100292163D01*
X133911949Y-100292164D01*
X133873500Y-100485460D01*
X133873500Y-100682540D01*
X133902058Y-100826111D01*
X133911950Y-100875841D01*
X133914778Y-100885163D01*
X133925500Y-100957444D01*
X133925500Y-102421099D01*
X133906546Y-102516387D01*
X133906346Y-102516868D01*
X133765153Y-102855731D01*
X133711008Y-102936400D01*
X133630114Y-102990207D01*
X133534786Y-103008961D01*
X133448291Y-102993263D01*
X133333378Y-102950403D01*
X133333371Y-102950401D01*
X133273832Y-102944000D01*
X132676001Y-102944000D01*
X132676000Y-102944001D01*
X132676000Y-103928314D01*
X132671606Y-103923920D01*
X132580394Y-103871259D01*
X132478661Y-103844000D01*
X132373339Y-103844000D01*
X132271606Y-103871259D01*
X132180394Y-103923920D01*
X132176000Y-103928314D01*
X132176000Y-102944001D01*
X132175999Y-102944000D01*
X131578167Y-102944000D01*
X131518628Y-102950401D01*
X131518621Y-102950403D01*
X131383912Y-103000646D01*
X131268812Y-103086810D01*
X131268810Y-103086812D01*
X131182646Y-103201912D01*
X131132403Y-103336621D01*
X131132401Y-103336628D01*
X131126000Y-103396167D01*
X131126000Y-103993999D01*
X131126001Y-103994000D01*
X132110314Y-103994000D01*
X132105920Y-103998394D01*
X132053259Y-104089606D01*
X132026000Y-104191339D01*
X132026000Y-104296661D01*
X132053259Y-104398394D01*
X132105920Y-104489606D01*
X132110314Y-104494000D01*
X131126001Y-104494000D01*
X131126000Y-104494001D01*
X131126000Y-105091832D01*
X131132401Y-105151371D01*
X131132403Y-105151378D01*
X131182646Y-105286087D01*
X131268810Y-105401187D01*
X131268812Y-105401189D01*
X131383912Y-105487353D01*
X131518621Y-105537596D01*
X131518628Y-105537598D01*
X131578167Y-105543999D01*
X131578175Y-105544000D01*
X132175999Y-105544000D01*
X132176000Y-105543999D01*
X132176000Y-104559686D01*
X132180394Y-104564080D01*
X132271606Y-104616741D01*
X132373339Y-104644000D01*
X132478661Y-104644000D01*
X132580394Y-104616741D01*
X132671606Y-104564080D01*
X132676000Y-104559686D01*
X132676000Y-105543999D01*
X132676001Y-105544000D01*
X133273825Y-105544000D01*
X133273832Y-105543999D01*
X133333371Y-105537598D01*
X133333379Y-105537596D01*
X133448289Y-105494737D01*
X133544193Y-105479196D01*
X133638744Y-105501538D01*
X133717548Y-105558363D01*
X133765153Y-105632267D01*
X133772083Y-105648899D01*
X133906346Y-105971131D01*
X133925499Y-106066378D01*
X133925500Y-106066899D01*
X133925500Y-107888439D01*
X133906546Y-107983727D01*
X133852570Y-108064509D01*
X132246510Y-109670570D01*
X132165728Y-109724546D01*
X132070440Y-109743500D01*
X129744394Y-109743500D01*
X129649106Y-109724546D01*
X129642671Y-109721774D01*
X128960915Y-109416633D01*
X128881684Y-109360405D01*
X128835364Y-109291082D01*
X128814291Y-109244000D01*
X128530226Y-108609330D01*
X128508599Y-108514613D01*
X128508500Y-108507607D01*
X128508500Y-106480392D01*
X128527454Y-106385104D01*
X128530226Y-106378669D01*
X128712633Y-105971129D01*
X129162185Y-104966725D01*
X129166947Y-104955872D01*
X129167073Y-104955579D01*
X129185400Y-104899477D01*
X129190292Y-104885859D01*
X129233334Y-104776195D01*
X129238747Y-104752482D01*
X129260324Y-104657944D01*
X129293383Y-104513103D01*
X129313549Y-104244000D01*
X129293383Y-103974897D01*
X129233334Y-103711805D01*
X129134743Y-103460602D01*
X128999815Y-103226898D01*
X128999813Y-103226895D01*
X128999811Y-103226892D01*
X128831562Y-103015916D01*
X128816083Y-103001554D01*
X128633741Y-102832365D01*
X128633738Y-102832362D01*
X128410778Y-102680350D01*
X128410773Y-102680348D01*
X128167649Y-102563265D01*
X128167644Y-102563263D01*
X128167641Y-102563262D01*
X127909772Y-102483720D01*
X127642929Y-102443500D01*
X127373071Y-102443500D01*
X127191290Y-102470899D01*
X127106227Y-102483720D01*
X126848353Y-102563264D01*
X126605227Y-102680348D01*
X126382257Y-102832366D01*
X126184437Y-103015916D01*
X126016189Y-103226892D01*
X126016188Y-103226892D01*
X125881257Y-103460601D01*
X125881256Y-103460604D01*
X125782667Y-103711801D01*
X125782663Y-103711812D01*
X125722616Y-103974899D01*
X125702451Y-104244000D01*
X125722616Y-104513100D01*
X125782664Y-104776190D01*
X125835127Y-104909864D01*
X125840572Y-104925193D01*
X125853814Y-104966727D01*
X126485774Y-106378670D01*
X126507401Y-106473387D01*
X126507500Y-106480393D01*
X126507500Y-108507605D01*
X126488546Y-108602893D01*
X126485774Y-108609328D01*
X125853810Y-110021281D01*
X125848010Y-110034558D01*
X125847923Y-110034762D01*
X125847922Y-110034764D01*
X125829876Y-110090297D01*
X125824854Y-110104311D01*
X125782664Y-110211809D01*
X125722616Y-110474899D01*
X125702451Y-110744000D01*
X125722616Y-111013100D01*
X125782663Y-111276187D01*
X125782666Y-111276195D01*
X125881257Y-111527398D01*
X125995500Y-111725275D01*
X126016188Y-111761107D01*
X126112598Y-111882000D01*
X126184439Y-111972085D01*
X126382259Y-112155635D01*
X126605226Y-112307651D01*
X126848359Y-112424738D01*
X127106228Y-112504280D01*
X127373071Y-112544500D01*
X127373074Y-112544500D01*
X127642926Y-112544500D01*
X127642929Y-112544500D01*
X127909772Y-112504280D01*
X128167641Y-112424738D01*
X128191460Y-112413266D01*
X128223862Y-112400372D01*
X128230725Y-112398185D01*
X129642670Y-111766225D01*
X129737387Y-111744599D01*
X129744393Y-111744500D01*
X132686539Y-111744500D01*
X132686540Y-111744500D01*
X132686541Y-111744500D01*
X132783188Y-111725275D01*
X132879836Y-111706051D01*
X132937142Y-111682314D01*
X133061914Y-111630632D01*
X133225782Y-111521139D01*
X133365139Y-111381782D01*
X133365140Y-111381779D01*
X135703139Y-109043782D01*
X135770145Y-108943500D01*
X135812632Y-108879914D01*
X135888051Y-108697835D01*
X135926500Y-108504541D01*
X135926500Y-106066897D01*
X135945454Y-105971609D01*
X135945654Y-105971129D01*
X136042958Y-105737598D01*
X136114300Y-105566374D01*
X136168444Y-105485708D01*
X136248374Y-105432300D01*
X136599289Y-105286087D01*
X136653129Y-105263654D01*
X136748377Y-105244501D01*
X136748897Y-105244500D01*
X140729747Y-105244500D01*
X140729748Y-105244500D01*
X140729749Y-105244500D01*
X140826396Y-105225275D01*
X140923044Y-105206051D01*
X140976373Y-105183961D01*
X141105122Y-105130632D01*
X141268990Y-105021139D01*
X141408347Y-104881782D01*
X141408349Y-104881778D01*
X141827917Y-104462209D01*
X141908692Y-104408239D01*
X142003980Y-104389285D01*
X142099268Y-104408239D01*
X142180050Y-104462215D01*
X142234026Y-104542997D01*
X142252980Y-104638285D01*
X142239009Y-104720518D01*
X142232634Y-104738738D01*
X142232630Y-104738754D01*
X142217500Y-104873031D01*
X142217500Y-106962968D01*
X142232630Y-107097245D01*
X142232631Y-107097251D01*
X142232632Y-107097255D01*
X142292211Y-107267522D01*
X142292212Y-107267523D01*
X142292214Y-107267529D01*
X142388180Y-107420257D01*
X142388182Y-107420259D01*
X142388184Y-107420262D01*
X142515738Y-107547816D01*
X142515740Y-107547817D01*
X142515742Y-107547819D01*
X142668470Y-107643785D01*
X142668474Y-107643786D01*
X142668478Y-107643789D01*
X142838745Y-107703368D01*
X142838748Y-107703368D01*
X142850739Y-107707564D01*
X142934420Y-107756926D01*
X142992841Y-107834554D01*
X143017108Y-107928629D01*
X143017500Y-107942591D01*
X143017500Y-110451164D01*
X142998546Y-110546452D01*
X142944570Y-110627234D01*
X142930214Y-110640504D01*
X142847316Y-110711306D01*
X142847308Y-110711314D01*
X142678587Y-110908861D01*
X142542846Y-111130372D01*
X142443427Y-111370388D01*
X142443426Y-111370391D01*
X142382778Y-111623008D01*
X142362396Y-111881994D01*
X142362396Y-111882005D01*
X142382778Y-112140991D01*
X142443426Y-112393608D01*
X142443427Y-112393611D01*
X142489268Y-112504279D01*
X142542846Y-112633628D01*
X142678588Y-112855140D01*
X142847311Y-113052689D01*
X143044860Y-113221412D01*
X143266372Y-113357154D01*
X143392847Y-113409542D01*
X143403914Y-113414126D01*
X143484696Y-113468103D01*
X143538672Y-113548884D01*
X143557626Y-113644172D01*
X143538672Y-113739460D01*
X143484695Y-113820242D01*
X143403915Y-113874218D01*
X143381125Y-113883658D01*
X143290087Y-113921367D01*
X143290080Y-113921371D01*
X143167047Y-114003578D01*
X143167046Y-114003580D01*
X143126219Y-114030860D01*
X141348220Y-115808859D01*
X141348218Y-115808861D01*
X141348217Y-115808860D01*
X141208862Y-115948216D01*
X141208860Y-115948219D01*
X141099369Y-116112084D01*
X141099365Y-116112091D01*
X141023949Y-116294164D01*
X141023947Y-116294169D01*
X140985500Y-116487454D01*
X140985500Y-117826675D01*
X140966546Y-117921963D01*
X140912570Y-118002745D01*
X140898215Y-118016014D01*
X140886247Y-118026235D01*
X140886231Y-118026251D01*
X140727742Y-118211818D01*
X140727735Y-118211827D01*
X140600230Y-118419898D01*
X140600221Y-118419914D01*
X140506828Y-118645386D01*
X140449854Y-118882693D01*
X140449852Y-118882708D01*
X140430706Y-119125994D01*
X140430706Y-119126005D01*
X140449852Y-119369291D01*
X140449854Y-119369306D01*
X140506828Y-119606613D01*
X140600221Y-119832085D01*
X140600230Y-119832101D01*
X140727735Y-120040172D01*
X140727742Y-120040181D01*
X140892595Y-120233199D01*
X140890483Y-120235002D01*
X140934389Y-120300712D01*
X140953343Y-120396000D01*
X140934389Y-120491288D01*
X140890486Y-120556994D01*
X140892598Y-120558798D01*
X140886242Y-120566240D01*
X140886241Y-120566241D01*
X140876018Y-120578210D01*
X140799723Y-120638359D01*
X140706216Y-120664732D01*
X140686676Y-120665500D01*
X139302849Y-120665500D01*
X139302829Y-120665499D01*
X139290541Y-120665499D01*
X139093460Y-120665499D01*
X139093455Y-120665499D01*
X138900168Y-120703946D01*
X138900165Y-120703947D01*
X138718090Y-120779365D01*
X138718085Y-120779368D01*
X138554222Y-120888857D01*
X138554219Y-120888860D01*
X128648220Y-130794859D01*
X128648218Y-130794861D01*
X128648217Y-130794860D01*
X128508862Y-130934216D01*
X128508861Y-130934218D01*
X128399368Y-131098086D01*
X128346038Y-131226834D01*
X128333704Y-131256613D01*
X128327818Y-131270824D01*
X128327817Y-131270826D01*
X128323950Y-131280161D01*
X128323947Y-131280172D01*
X128285500Y-131473454D01*
X128285500Y-131669882D01*
X128266546Y-131765170D01*
X128212570Y-131845952D01*
X128131788Y-131899928D01*
X128036500Y-131918882D01*
X127941212Y-131899928D01*
X127928530Y-131894256D01*
X127920619Y-131890449D01*
X127920617Y-131890448D01*
X127900856Y-131881265D01*
X127900265Y-131881000D01*
X127896565Y-131879760D01*
X127853897Y-131865467D01*
X127837715Y-131859413D01*
X127750111Y-131823127D01*
X127750110Y-131823126D01*
X127750108Y-131823126D01*
X127505145Y-131764316D01*
X127254005Y-131744551D01*
X127253995Y-131744551D01*
X127002854Y-131764316D01*
X126757891Y-131823126D01*
X126757883Y-131823129D01*
X126525141Y-131919533D01*
X126525135Y-131919537D01*
X126310347Y-132051158D01*
X126310345Y-132051160D01*
X126118779Y-132214773D01*
X126118773Y-132214779D01*
X125955160Y-132406345D01*
X125955158Y-132406347D01*
X125823537Y-132621135D01*
X125823533Y-132621141D01*
X125727129Y-132853883D01*
X125727126Y-132853891D01*
X125668316Y-133098854D01*
X125648551Y-133349994D01*
X125648551Y-133350005D01*
X125668316Y-133601145D01*
X125727126Y-133846108D01*
X125727129Y-133846116D01*
X125823533Y-134078858D01*
X125823537Y-134078864D01*
X125955158Y-134293652D01*
X125955160Y-134293654D01*
X125955163Y-134293657D01*
X125955164Y-134293659D01*
X126118776Y-134485224D01*
X126208414Y-134561782D01*
X126310345Y-134648839D01*
X126310347Y-134648841D01*
X126482971Y-134754624D01*
X126525141Y-134780466D01*
X126757889Y-134876873D01*
X127002852Y-134935683D01*
X127074608Y-134941330D01*
X127253995Y-134955449D01*
X127254000Y-134955449D01*
X127254005Y-134955449D01*
X127410967Y-134943095D01*
X127505148Y-134935683D01*
X127750111Y-134876873D01*
X127849219Y-134835820D01*
X127866197Y-134829503D01*
X127908420Y-134815522D01*
X128921139Y-134348641D01*
X128976798Y-134330556D01*
X129069836Y-134312051D01*
X129123165Y-134289961D01*
X129251914Y-134236632D01*
X129415782Y-134127139D01*
X129555139Y-133987782D01*
X129555139Y-133987780D01*
X129575639Y-133967281D01*
X129575640Y-133967278D01*
X130063139Y-133479782D01*
X130063507Y-133479231D01*
X130063510Y-133479233D01*
X130063530Y-133479195D01*
X130172632Y-133315914D01*
X130248051Y-133133835D01*
X130286500Y-132940541D01*
X130286500Y-132089560D01*
X130305454Y-131994272D01*
X130359430Y-131913490D01*
X139533491Y-122739430D01*
X139614273Y-122685454D01*
X139709561Y-122666500D01*
X140686676Y-122666500D01*
X140781964Y-122685454D01*
X140862746Y-122739430D01*
X140876011Y-122753782D01*
X140886241Y-122765759D01*
X140892598Y-122773202D01*
X140890486Y-122775005D01*
X140934389Y-122840712D01*
X140953343Y-122936000D01*
X140934389Y-123031288D01*
X140890483Y-123096997D01*
X140892595Y-123098801D01*
X140727742Y-123291818D01*
X140727735Y-123291827D01*
X140600230Y-123499898D01*
X140600221Y-123499914D01*
X140506828Y-123725386D01*
X140449854Y-123962693D01*
X140449852Y-123962708D01*
X140430706Y-124205994D01*
X140430706Y-124206005D01*
X140449852Y-124449291D01*
X140449854Y-124449306D01*
X140506828Y-124686613D01*
X140600221Y-124912085D01*
X140600230Y-124912101D01*
X140727735Y-125120172D01*
X140727737Y-125120174D01*
X140727740Y-125120177D01*
X140727741Y-125120179D01*
X140886241Y-125305759D01*
X140886245Y-125305762D01*
X140886753Y-125306357D01*
X140934225Y-125391124D01*
X140945644Y-125487606D01*
X140919273Y-125581113D01*
X140888335Y-125623697D01*
X140889483Y-125624556D01*
X140792646Y-125753912D01*
X140742403Y-125888621D01*
X140742401Y-125888628D01*
X140736000Y-125948167D01*
X140736000Y-126495999D01*
X140736001Y-126496000D01*
X141670314Y-126496000D01*
X141665920Y-126500394D01*
X141613259Y-126591606D01*
X141586000Y-126693339D01*
X141586000Y-126798661D01*
X141613259Y-126900394D01*
X141665920Y-126991606D01*
X141670314Y-126996000D01*
X140736001Y-126996000D01*
X140736000Y-126996001D01*
X140736000Y-127543832D01*
X140742401Y-127603371D01*
X140742403Y-127603378D01*
X140792646Y-127738087D01*
X140878810Y-127853187D01*
X140878812Y-127853189D01*
X140993912Y-127939353D01*
X141128621Y-127989596D01*
X141128628Y-127989598D01*
X141188167Y-127995999D01*
X141188175Y-127996000D01*
X141735999Y-127996000D01*
X141736000Y-127995999D01*
X141736000Y-127061686D01*
X141740394Y-127066080D01*
X141831606Y-127118741D01*
X141933339Y-127146000D01*
X142038661Y-127146000D01*
X142140394Y-127118741D01*
X142231606Y-127066080D01*
X142236000Y-127061686D01*
X142236000Y-127995999D01*
X142236001Y-127996000D01*
X142783825Y-127996000D01*
X142783832Y-127995999D01*
X142843371Y-127989598D01*
X142843378Y-127989596D01*
X142978087Y-127939353D01*
X143107444Y-127842517D01*
X143108899Y-127844461D01*
X143168625Y-127804548D01*
X143263912Y-127785587D01*
X143359201Y-127804534D01*
X143425642Y-127845246D01*
X143426236Y-127845753D01*
X143426241Y-127845759D01*
X143602150Y-127995999D01*
X143611825Y-128004262D01*
X143611827Y-128004264D01*
X143814749Y-128128613D01*
X143819911Y-128131777D01*
X144045388Y-128225172D01*
X144216661Y-128266291D01*
X144282693Y-128282145D01*
X144282694Y-128282145D01*
X144282698Y-128282146D01*
X144282704Y-128282146D01*
X144282708Y-128282147D01*
X144525994Y-128301294D01*
X144526000Y-128301294D01*
X144526006Y-128301294D01*
X144769291Y-128282147D01*
X144769293Y-128282146D01*
X144769302Y-128282146D01*
X145006612Y-128225172D01*
X145232089Y-128131777D01*
X145336831Y-128067591D01*
X145440172Y-128004264D01*
X145440176Y-128004260D01*
X145440179Y-128004259D01*
X145625759Y-127845759D01*
X145784259Y-127660179D01*
X145784260Y-127660176D01*
X145784264Y-127660172D01*
X145875398Y-127511454D01*
X145911777Y-127452089D01*
X146005172Y-127226612D01*
X146062146Y-126989302D01*
X146071080Y-126875782D01*
X146081294Y-126746005D01*
X146081294Y-126745994D01*
X146062147Y-126502708D01*
X146062145Y-126502693D01*
X146030892Y-126372519D01*
X146005172Y-126265388D01*
X145911777Y-126039911D01*
X145868774Y-125969736D01*
X145784264Y-125831827D01*
X145784257Y-125831818D01*
X145619405Y-125638801D01*
X145621516Y-125636997D01*
X145577611Y-125571288D01*
X145558657Y-125476000D01*
X145577611Y-125380712D01*
X145621513Y-125315005D01*
X145619402Y-125313202D01*
X145625759Y-125305759D01*
X145635981Y-125293789D01*
X145712277Y-125233641D01*
X145805784Y-125207268D01*
X145825324Y-125206500D01*
X148180539Y-125206500D01*
X148180540Y-125206500D01*
X148180541Y-125206500D01*
X148277188Y-125187275D01*
X148373836Y-125168051D01*
X148437935Y-125141500D01*
X148555914Y-125092632D01*
X148719782Y-124983139D01*
X148859139Y-124843782D01*
X148859141Y-124843778D01*
X153275750Y-120427169D01*
X153356530Y-120373195D01*
X153451818Y-120354241D01*
X153547106Y-120373195D01*
X153627888Y-120427171D01*
X153681864Y-120507953D01*
X153700818Y-120603241D01*
X153696034Y-120651817D01*
X153694434Y-120659860D01*
X153681634Y-120724210D01*
X153660500Y-120830454D01*
X153660500Y-121288118D01*
X153641546Y-121383406D01*
X153640600Y-121385659D01*
X153139161Y-122563409D01*
X153123173Y-122612658D01*
X153116388Y-122631056D01*
X153086427Y-122703390D01*
X153025778Y-122956008D01*
X153005396Y-123214994D01*
X153005396Y-123215005D01*
X153025778Y-123473991D01*
X153086426Y-123726608D01*
X153086427Y-123726611D01*
X153128334Y-123827782D01*
X153185846Y-123966628D01*
X153321588Y-124188140D01*
X153490311Y-124385689D01*
X153687860Y-124554412D01*
X153909372Y-124690154D01*
X154149390Y-124789573D01*
X154402006Y-124850221D01*
X154466754Y-124855316D01*
X154660994Y-124870604D01*
X154661000Y-124870604D01*
X154661006Y-124870604D01*
X154833662Y-124857015D01*
X154919994Y-124850221D01*
X155172610Y-124789573D01*
X155412628Y-124690154D01*
X155634140Y-124554412D01*
X155769288Y-124438984D01*
X155854054Y-124391512D01*
X155950535Y-124380092D01*
X156044043Y-124406464D01*
X156092710Y-124438983D01*
X156104797Y-124449306D01*
X156227857Y-124554410D01*
X156227859Y-124554411D01*
X156227860Y-124554412D01*
X156449372Y-124690154D01*
X156689390Y-124789573D01*
X156942006Y-124850221D01*
X157006754Y-124855316D01*
X157200994Y-124870604D01*
X157201000Y-124870604D01*
X157201006Y-124870604D01*
X157373662Y-124857015D01*
X157459994Y-124850221D01*
X157712610Y-124789573D01*
X157952628Y-124690154D01*
X158088857Y-124606673D01*
X158180002Y-124573049D01*
X158277082Y-124576863D01*
X158365313Y-124617538D01*
X158431262Y-124688881D01*
X158458715Y-124751783D01*
X158469307Y-124789573D01*
X158525061Y-124988500D01*
X158531261Y-125010619D01*
X158540500Y-125077819D01*
X158540500Y-128339476D01*
X158540501Y-128339492D01*
X158570059Y-128526114D01*
X158570060Y-128526118D01*
X158628453Y-128705832D01*
X158714240Y-128874199D01*
X158825310Y-129027074D01*
X164438310Y-134640073D01*
X164438309Y-134640073D01*
X164571926Y-134773689D01*
X164571927Y-134773690D01*
X164724801Y-134884760D01*
X164893168Y-134970547D01*
X165072882Y-135028940D01*
X165259519Y-135058500D01*
X171865596Y-135058500D01*
X171960884Y-135077454D01*
X172041666Y-135131430D01*
X173478570Y-136568334D01*
X173532546Y-136649116D01*
X173551500Y-136744404D01*
X173551500Y-143858476D01*
X173551501Y-143858492D01*
X173581059Y-144045114D01*
X173637952Y-144220214D01*
X173639453Y-144224832D01*
X173725240Y-144393199D01*
X173725243Y-144393203D01*
X173725244Y-144393205D01*
X173796496Y-144491275D01*
X173836310Y-144546074D01*
X175025927Y-145735690D01*
X175178801Y-145846760D01*
X175347168Y-145932547D01*
X175526882Y-145990940D01*
X175713519Y-146020500D01*
X175902482Y-146020500D01*
X175926129Y-146020500D01*
X175996889Y-146030766D01*
X176026593Y-146039571D01*
X176112560Y-146084821D01*
X176174671Y-146159530D01*
X176203465Y-146252320D01*
X176203258Y-146306180D01*
X176195501Y-146375028D01*
X176195500Y-146375046D01*
X176195500Y-148264968D01*
X176210630Y-148399245D01*
X176210631Y-148399248D01*
X176210632Y-148399255D01*
X176270211Y-148569522D01*
X176270212Y-148569523D01*
X176270214Y-148569529D01*
X176366182Y-148722260D01*
X176483075Y-148839154D01*
X176520226Y-148886624D01*
X176713909Y-149207757D01*
X176737501Y-149259409D01*
X176783453Y-149400832D01*
X176869240Y-149569199D01*
X176980310Y-149722074D01*
X177122568Y-149864332D01*
X177127670Y-149869908D01*
X177133835Y-149876277D01*
X177134990Y-149877309D01*
X177145153Y-149886916D01*
X178287927Y-151029690D01*
X178440801Y-151140760D01*
X178609168Y-151226547D01*
X178788882Y-151284940D01*
X178975519Y-151314500D01*
X178975523Y-151314500D01*
X187546477Y-151314500D01*
X187546481Y-151314500D01*
X187733118Y-151284940D01*
X187912832Y-151226547D01*
X188081199Y-151140760D01*
X188234074Y-151029690D01*
X191120493Y-148143269D01*
X191147775Y-148119684D01*
X191160678Y-148110069D01*
X191804330Y-147507266D01*
X191886834Y-147455966D01*
X191946651Y-147441576D01*
X192037255Y-147431368D01*
X192207522Y-147371789D01*
X192207527Y-147371785D01*
X192207529Y-147371785D01*
X192360257Y-147275819D01*
X192360256Y-147275819D01*
X192360262Y-147275816D01*
X192487816Y-147148262D01*
X192583789Y-146995522D01*
X192605566Y-146933287D01*
X198555500Y-146933287D01*
X198587162Y-147173790D01*
X198587163Y-147173795D01*
X198649940Y-147408082D01*
X198649948Y-147408105D01*
X198742770Y-147632201D01*
X198742778Y-147632217D01*
X198864058Y-147842279D01*
X198864064Y-147842289D01*
X199011729Y-148034731D01*
X199011738Y-148034741D01*
X199183258Y-148206261D01*
X199183268Y-148206270D01*
X199221609Y-148235690D01*
X199375711Y-148353936D01*
X199375720Y-148353941D01*
X199585782Y-148475221D01*
X199585798Y-148475229D01*
X199725858Y-148533242D01*
X199809900Y-148568054D01*
X199809911Y-148568057D01*
X199809917Y-148568059D01*
X199993021Y-148617121D01*
X200044211Y-148630838D01*
X200284712Y-148662500D01*
X200527288Y-148662500D01*
X200767789Y-148630838D01*
X200949053Y-148582268D01*
X201002082Y-148568059D01*
X201002084Y-148568058D01*
X201002100Y-148568054D01*
X201160712Y-148502355D01*
X201226201Y-148475229D01*
X201226206Y-148475226D01*
X201226212Y-148475224D01*
X201436289Y-148353936D01*
X201628738Y-148206265D01*
X201800265Y-148034738D01*
X201947936Y-147842289D01*
X202069224Y-147632212D01*
X202162054Y-147408100D01*
X202224838Y-147173789D01*
X202256500Y-146933288D01*
X202256500Y-146690712D01*
X202224838Y-146450211D01*
X202204697Y-146375046D01*
X202162059Y-146215917D01*
X202162057Y-146215911D01*
X202162054Y-146215900D01*
X202113168Y-146097879D01*
X202069229Y-145991798D01*
X202069221Y-145991782D01*
X201947941Y-145781720D01*
X201947935Y-145781710D01*
X201947096Y-145780617D01*
X201800265Y-145589262D01*
X201628738Y-145417735D01*
X201628735Y-145417733D01*
X201628731Y-145417729D01*
X201436289Y-145270064D01*
X201436279Y-145270058D01*
X201226217Y-145148778D01*
X201226201Y-145148770D01*
X201002105Y-145055948D01*
X201002103Y-145055947D01*
X201002100Y-145055946D01*
X201002096Y-145055945D01*
X201002082Y-145055940D01*
X200767795Y-144993163D01*
X200767790Y-144993162D01*
X200527288Y-144961500D01*
X200284712Y-144961500D01*
X200044209Y-144993162D01*
X200044204Y-144993163D01*
X199809917Y-145055940D01*
X199809894Y-145055948D01*
X199585798Y-145148770D01*
X199585782Y-145148778D01*
X199375720Y-145270058D01*
X199375710Y-145270064D01*
X199183268Y-145417729D01*
X199183258Y-145417738D01*
X199011738Y-145589258D01*
X199011729Y-145589268D01*
X198864064Y-145781710D01*
X198864058Y-145781720D01*
X198742778Y-145991782D01*
X198742770Y-145991798D01*
X198649948Y-146215894D01*
X198649940Y-146215917D01*
X198587163Y-146450204D01*
X198587162Y-146450209D01*
X198555500Y-146690712D01*
X198555500Y-146933287D01*
X192605566Y-146933287D01*
X192643368Y-146825255D01*
X192646091Y-146801079D01*
X192658499Y-146690968D01*
X192658500Y-146690953D01*
X192658500Y-144901046D01*
X192658499Y-144901031D01*
X192643369Y-144766754D01*
X192643368Y-144766745D01*
X192583789Y-144596478D01*
X192583786Y-144596473D01*
X192583785Y-144596470D01*
X192487819Y-144443742D01*
X192487817Y-144443740D01*
X192487816Y-144443738D01*
X192360262Y-144316184D01*
X192360259Y-144316182D01*
X192360257Y-144316180D01*
X192207529Y-144220214D01*
X192207524Y-144220212D01*
X192207522Y-144220211D01*
X192037255Y-144160632D01*
X192037251Y-144160631D01*
X192037245Y-144160630D01*
X191902968Y-144145500D01*
X191902954Y-144145500D01*
X190113046Y-144145500D01*
X190113031Y-144145500D01*
X189978750Y-144160630D01*
X189972909Y-144161964D01*
X189964929Y-144162187D01*
X189964849Y-144162197D01*
X189964848Y-144162190D01*
X189875792Y-144164689D01*
X189785025Y-144130042D01*
X189714426Y-144063297D01*
X189674743Y-143974616D01*
X189668500Y-143919207D01*
X189668500Y-143354792D01*
X189687454Y-143259504D01*
X189741430Y-143178722D01*
X189822212Y-143124746D01*
X189917500Y-143105792D01*
X189972918Y-143112037D01*
X189978735Y-143113364D01*
X189978745Y-143113368D01*
X190086361Y-143125493D01*
X190098663Y-143127193D01*
X190111021Y-143129219D01*
X190116842Y-143128892D01*
X190130808Y-143128500D01*
X191902954Y-143128500D01*
X191902968Y-143128499D01*
X192013079Y-143116091D01*
X192037255Y-143113368D01*
X192207522Y-143053789D01*
X192207527Y-143053785D01*
X192207529Y-143053785D01*
X192320184Y-142982998D01*
X192360262Y-142957816D01*
X192487816Y-142830262D01*
X192583789Y-142677522D01*
X192643368Y-142507255D01*
X192651332Y-142436570D01*
X192658499Y-142372968D01*
X192658500Y-142372953D01*
X192658500Y-140583046D01*
X192658499Y-140583031D01*
X192643369Y-140448750D01*
X192642036Y-140442909D01*
X192641812Y-140434929D01*
X192641803Y-140434849D01*
X192641809Y-140434848D01*
X192639311Y-140345792D01*
X192673958Y-140255025D01*
X192740703Y-140184426D01*
X192829384Y-140144743D01*
X192884793Y-140138500D01*
X200754477Y-140138500D01*
X200754481Y-140138500D01*
X200941118Y-140108940D01*
X201120832Y-140050547D01*
X201289199Y-139964760D01*
X201442074Y-139853690D01*
X202185690Y-139110074D01*
X202296760Y-138957199D01*
X202382547Y-138788832D01*
X202440940Y-138609118D01*
X202470500Y-138422482D01*
X202470500Y-138233519D01*
X202470500Y-138102905D01*
X202489454Y-138007617D01*
X202543430Y-137926835D01*
X202550099Y-137920411D01*
X202593561Y-137880085D01*
X202761815Y-137669102D01*
X202896743Y-137435398D01*
X202995334Y-137184195D01*
X203055383Y-136921103D01*
X203075549Y-136652000D01*
X203055383Y-136382897D01*
X202995334Y-136119805D01*
X202896743Y-135868602D01*
X202761815Y-135634898D01*
X202761813Y-135634895D01*
X202761811Y-135634892D01*
X202593562Y-135423916D01*
X202395738Y-135240362D01*
X202172778Y-135088350D01*
X202172773Y-135088348D01*
X201929649Y-134971265D01*
X201929644Y-134971263D01*
X201929641Y-134971262D01*
X201671772Y-134891720D01*
X201404929Y-134851500D01*
X201404926Y-134851500D01*
X201270403Y-134851500D01*
X201175115Y-134832546D01*
X201094333Y-134778570D01*
X198722104Y-132406341D01*
X196210074Y-129894310D01*
X196057199Y-129783240D01*
X195888832Y-129697453D01*
X195888829Y-129697452D01*
X195888827Y-129697451D01*
X195788893Y-129664980D01*
X195709118Y-129639060D01*
X195709116Y-129639059D01*
X195709114Y-129639059D01*
X195522492Y-129609501D01*
X195522483Y-129609500D01*
X195522481Y-129609500D01*
X195522477Y-129609500D01*
X167224403Y-129609500D01*
X167129115Y-129590546D01*
X167048333Y-129536570D01*
X165142177Y-127630413D01*
X165088201Y-127549631D01*
X165069247Y-127454343D01*
X165088201Y-127359055D01*
X165142177Y-127278273D01*
X165222959Y-127224297D01*
X165318247Y-127205343D01*
X165366827Y-127210128D01*
X165376879Y-127212128D01*
X165407596Y-127218239D01*
X165407605Y-127218239D01*
X165407606Y-127218240D01*
X165509459Y-127238500D01*
X172564541Y-127238500D01*
X172666394Y-127218240D01*
X172757836Y-127200051D01*
X172811165Y-127177961D01*
X172939914Y-127124632D01*
X173103782Y-127015139D01*
X173243139Y-126875782D01*
X173243140Y-126875779D01*
X178914430Y-121204489D01*
X178995212Y-121150513D01*
X179090500Y-121131559D01*
X179185788Y-121150513D01*
X179266570Y-121204489D01*
X179320546Y-121285271D01*
X179339500Y-121380559D01*
X179339500Y-125320544D01*
X179377948Y-125513833D01*
X179377949Y-125513838D01*
X179392675Y-125549388D01*
X179400038Y-125567165D01*
X179407542Y-125585281D01*
X179453365Y-125695909D01*
X179453368Y-125695914D01*
X179559420Y-125854633D01*
X179562861Y-125859782D01*
X179702218Y-125999139D01*
X179702221Y-125999141D01*
X180832858Y-127129778D01*
X180832861Y-127129782D01*
X180972218Y-127269139D01*
X181136086Y-127378632D01*
X181264834Y-127431961D01*
X181318164Y-127454051D01*
X181414812Y-127473275D01*
X181511459Y-127492500D01*
X181511460Y-127492500D01*
X181708540Y-127492500D01*
X181775810Y-127492500D01*
X181871098Y-127511454D01*
X181951880Y-127565430D01*
X181973355Y-127589919D01*
X182019691Y-127650306D01*
X182019695Y-127650310D01*
X182019697Y-127650313D01*
X182182187Y-127812803D01*
X182364496Y-127952693D01*
X182563504Y-128067591D01*
X182563509Y-128067593D01*
X182775800Y-128155527D01*
X182775801Y-128155527D01*
X182775808Y-128155530D01*
X182997773Y-128215005D01*
X183225602Y-128245000D01*
X183550398Y-128245000D01*
X183778227Y-128215005D01*
X184000192Y-128155530D01*
X184212496Y-128067591D01*
X184411504Y-127952693D01*
X184593813Y-127812803D01*
X184756303Y-127650313D01*
X184802645Y-127589919D01*
X184875689Y-127525860D01*
X184967688Y-127494630D01*
X185000190Y-127492500D01*
X189074539Y-127492500D01*
X189074540Y-127492500D01*
X189074541Y-127492500D01*
X189171188Y-127473275D01*
X189267836Y-127454051D01*
X189321165Y-127431961D01*
X189449914Y-127378632D01*
X189613782Y-127269139D01*
X189753139Y-127129782D01*
X189753140Y-127129779D01*
X192547140Y-124335781D01*
X192656632Y-124171914D01*
X192732052Y-123989835D01*
X192770500Y-123796540D01*
X192770500Y-123599460D01*
X192770500Y-122780623D01*
X192789454Y-122685335D01*
X192843430Y-122604553D01*
X192879230Y-122574891D01*
X192895741Y-122563635D01*
X193093561Y-122380085D01*
X193261815Y-122169102D01*
X193396743Y-121935398D01*
X193495334Y-121684195D01*
X193555383Y-121421103D01*
X193575549Y-121152000D01*
X193555383Y-120882897D01*
X193505764Y-120665500D01*
X193495336Y-120619812D01*
X193495334Y-120619809D01*
X193495334Y-120619805D01*
X193396743Y-120368602D01*
X193261815Y-120134898D01*
X193261813Y-120134895D01*
X193261811Y-120134892D01*
X193172379Y-120022749D01*
X193127787Y-119936432D01*
X193119621Y-119839621D01*
X193149124Y-119747054D01*
X193211806Y-119672824D01*
X193298123Y-119628232D01*
X193367055Y-119618500D01*
X194808440Y-119618500D01*
X194903728Y-119637454D01*
X194984510Y-119691430D01*
X195522570Y-120229490D01*
X195576546Y-120310272D01*
X195595500Y-120405560D01*
X195595500Y-123288543D01*
X195600472Y-123313538D01*
X195600472Y-123313541D01*
X195600473Y-123313541D01*
X195630240Y-123463192D01*
X195632388Y-123473991D01*
X195633950Y-123481838D01*
X195671658Y-123572874D01*
X195709368Y-123663914D01*
X195818861Y-123827782D01*
X195958218Y-123967139D01*
X195958220Y-123967140D01*
X197736219Y-125745140D01*
X197764574Y-125764086D01*
X197900086Y-125854632D01*
X197900091Y-125854634D01*
X197991121Y-125892340D01*
X197991124Y-125892340D01*
X197991125Y-125892341D01*
X198082165Y-125930052D01*
X198243389Y-125962121D01*
X198243388Y-125962121D01*
X198259204Y-125965266D01*
X198275459Y-125968500D01*
X198275460Y-125968500D01*
X203298539Y-125968500D01*
X203298540Y-125968500D01*
X203298541Y-125968500D01*
X203395188Y-125949275D01*
X203491836Y-125930051D01*
X203545165Y-125907961D01*
X203673914Y-125854632D01*
X203837782Y-125745139D01*
X203977139Y-125605782D01*
X203977139Y-125605780D01*
X203997639Y-125585281D01*
X203997640Y-125585278D01*
X204739140Y-124843781D01*
X204809152Y-124739000D01*
X204848632Y-124679914D01*
X204885015Y-124592077D01*
X204901960Y-124551168D01*
X204901961Y-124551164D01*
X204924051Y-124497836D01*
X204962500Y-124304540D01*
X204962500Y-124107460D01*
X204962500Y-124107459D01*
X204962500Y-79149459D01*
X204940959Y-79041168D01*
X204924051Y-78956164D01*
X204874026Y-78835393D01*
X204848632Y-78774086D01*
X204739139Y-78610218D01*
X204684382Y-78555461D01*
X204599782Y-78470860D01*
X204599782Y-78470861D01*
X204599781Y-78470860D01*
X193052207Y-66923287D01*
X198809500Y-66923287D01*
X198841162Y-67163790D01*
X198841163Y-67163795D01*
X198903940Y-67398082D01*
X198903948Y-67398105D01*
X198996770Y-67622201D01*
X198996778Y-67622217D01*
X199118058Y-67832279D01*
X199118064Y-67832289D01*
X199265729Y-68024731D01*
X199265738Y-68024741D01*
X199437258Y-68196261D01*
X199437268Y-68196270D01*
X199525888Y-68264270D01*
X199629711Y-68343936D01*
X199629720Y-68343941D01*
X199839782Y-68465221D01*
X199839798Y-68465229D01*
X199979858Y-68523242D01*
X200063900Y-68558054D01*
X200063911Y-68558057D01*
X200063917Y-68558059D01*
X200247021Y-68607121D01*
X200298211Y-68620838D01*
X200538712Y-68652500D01*
X200781288Y-68652500D01*
X201021789Y-68620838D01*
X201209875Y-68570440D01*
X201256082Y-68558059D01*
X201256084Y-68558058D01*
X201256100Y-68558054D01*
X201407766Y-68495231D01*
X201480201Y-68465229D01*
X201480206Y-68465226D01*
X201480212Y-68465224D01*
X201690289Y-68343936D01*
X201882738Y-68196265D01*
X202054265Y-68024738D01*
X202201936Y-67832289D01*
X202323224Y-67622212D01*
X202330336Y-67605044D01*
X202387885Y-67466105D01*
X202416054Y-67398100D01*
X202478838Y-67163789D01*
X202510500Y-66923288D01*
X202510500Y-66680712D01*
X202478838Y-66440211D01*
X202460025Y-66370000D01*
X202416059Y-66205917D01*
X202416057Y-66205911D01*
X202416054Y-66205900D01*
X202351395Y-66049798D01*
X202323229Y-65981798D01*
X202323221Y-65981782D01*
X202237971Y-65834126D01*
X202201936Y-65771711D01*
X202100068Y-65638954D01*
X202054270Y-65579268D01*
X202054261Y-65579258D01*
X201882741Y-65407738D01*
X201882731Y-65407729D01*
X201690289Y-65260064D01*
X201690279Y-65260058D01*
X201480217Y-65138778D01*
X201480201Y-65138770D01*
X201256105Y-65045948D01*
X201256103Y-65045947D01*
X201256100Y-65045946D01*
X201256096Y-65045945D01*
X201256082Y-65045940D01*
X201021795Y-64983163D01*
X201021790Y-64983162D01*
X200781288Y-64951500D01*
X200538712Y-64951500D01*
X200298209Y-64983162D01*
X200298204Y-64983163D01*
X200063917Y-65045940D01*
X200063894Y-65045948D01*
X199839798Y-65138770D01*
X199839782Y-65138778D01*
X199629720Y-65260058D01*
X199629710Y-65260064D01*
X199437268Y-65407729D01*
X199437258Y-65407738D01*
X199265738Y-65579258D01*
X199265729Y-65579268D01*
X199118064Y-65771710D01*
X199118058Y-65771720D01*
X198996778Y-65981782D01*
X198996770Y-65981798D01*
X198903948Y-66205894D01*
X198903940Y-66205917D01*
X198841163Y-66440204D01*
X198841162Y-66440209D01*
X198809500Y-66680712D01*
X198809500Y-66923287D01*
X193052207Y-66923287D01*
X188737140Y-62608220D01*
X188737139Y-62608218D01*
X188597782Y-62468861D01*
X188597778Y-62468858D01*
X188597776Y-62468856D01*
X188542670Y-62432036D01*
X188473971Y-62363338D01*
X188436791Y-62273578D01*
X188436790Y-62176423D01*
X188473970Y-62086664D01*
X188542668Y-62017965D01*
X188632428Y-61980785D01*
X188681006Y-61976000D01*
X205491000Y-61976000D01*
X205586288Y-61994954D01*
X205667070Y-62048930D01*
X205721046Y-62129712D01*
X205740000Y-62225000D01*
X205740000Y-151643000D01*
X205721046Y-151738288D01*
X205667070Y-151819070D01*
X205586288Y-151873046D01*
X205491000Y-151892000D01*
X173223000Y-151892000D01*
X173127712Y-151873046D01*
X173046930Y-151819070D01*
X172992954Y-151738288D01*
X172974000Y-151643000D01*
X172974000Y-136906001D01*
X172974000Y-136906000D01*
X172973999Y-136906000D01*
X148844001Y-136906000D01*
X148844000Y-136906000D01*
X148844000Y-136906001D01*
X148844000Y-151643000D01*
X148825046Y-151738288D01*
X148771070Y-151819070D01*
X148690288Y-151873046D01*
X148595000Y-151892000D01*
X116327000Y-151892000D01*
X116231712Y-151873046D01*
X116150930Y-151819070D01*
X116096954Y-151738288D01*
X116078000Y-151643000D01*
X116078000Y-146933287D01*
X119307500Y-146933287D01*
X119339162Y-147173790D01*
X119339163Y-147173795D01*
X119401940Y-147408082D01*
X119401948Y-147408105D01*
X119494770Y-147632201D01*
X119494778Y-147632217D01*
X119616058Y-147842279D01*
X119616064Y-147842289D01*
X119763729Y-148034731D01*
X119763738Y-148034741D01*
X119935258Y-148206261D01*
X119935268Y-148206270D01*
X119973609Y-148235690D01*
X120127711Y-148353936D01*
X120127720Y-148353941D01*
X120337782Y-148475221D01*
X120337798Y-148475229D01*
X120477858Y-148533242D01*
X120561900Y-148568054D01*
X120561911Y-148568057D01*
X120561917Y-148568059D01*
X120745021Y-148617121D01*
X120796211Y-148630838D01*
X121036712Y-148662500D01*
X121279288Y-148662500D01*
X121519789Y-148630838D01*
X121701053Y-148582268D01*
X121754082Y-148568059D01*
X121754084Y-148568058D01*
X121754100Y-148568054D01*
X121912712Y-148502355D01*
X121978201Y-148475229D01*
X121978206Y-148475226D01*
X121978212Y-148475224D01*
X122188289Y-148353936D01*
X122380738Y-148206265D01*
X122552265Y-148034738D01*
X122699936Y-147842289D01*
X122821224Y-147632212D01*
X122914054Y-147408100D01*
X122976838Y-147173789D01*
X123008500Y-146933288D01*
X123008500Y-146690712D01*
X122976838Y-146450211D01*
X122956697Y-146375046D01*
X122914059Y-146215917D01*
X122914057Y-146215911D01*
X122914054Y-146215900D01*
X122865168Y-146097879D01*
X122821229Y-145991798D01*
X122821221Y-145991782D01*
X122699941Y-145781720D01*
X122699935Y-145781710D01*
X122699096Y-145780617D01*
X122552265Y-145589262D01*
X122380738Y-145417735D01*
X122380735Y-145417733D01*
X122380731Y-145417729D01*
X122188289Y-145270064D01*
X122188279Y-145270058D01*
X121978217Y-145148778D01*
X121978201Y-145148770D01*
X121754105Y-145055948D01*
X121754103Y-145055947D01*
X121754100Y-145055946D01*
X121754096Y-145055945D01*
X121754082Y-145055940D01*
X121519795Y-144993163D01*
X121519790Y-144993162D01*
X121279288Y-144961500D01*
X121036712Y-144961500D01*
X120796209Y-144993162D01*
X120796204Y-144993163D01*
X120561917Y-145055940D01*
X120561894Y-145055948D01*
X120337798Y-145148770D01*
X120337782Y-145148778D01*
X120127720Y-145270058D01*
X120127710Y-145270064D01*
X119935268Y-145417729D01*
X119935258Y-145417738D01*
X119763738Y-145589258D01*
X119763729Y-145589268D01*
X119616064Y-145781710D01*
X119616058Y-145781720D01*
X119494778Y-145991782D01*
X119494770Y-145991798D01*
X119401948Y-146215894D01*
X119401940Y-146215917D01*
X119339163Y-146450204D01*
X119339162Y-146450209D01*
X119307500Y-146690712D01*
X119307500Y-146933287D01*
X116078000Y-146933287D01*
X116078000Y-143510005D01*
X125648551Y-143510005D01*
X125668316Y-143761145D01*
X125727126Y-144006108D01*
X125727129Y-144006116D01*
X125823533Y-144238858D01*
X125823537Y-144238864D01*
X125955158Y-144453652D01*
X125955160Y-144453654D01*
X125955163Y-144453657D01*
X125955164Y-144453659D01*
X126118776Y-144645224D01*
X126285948Y-144788002D01*
X126310345Y-144808839D01*
X126310347Y-144808841D01*
X126482971Y-144914624D01*
X126525141Y-144940466D01*
X126757889Y-145036873D01*
X127002852Y-145095683D01*
X127074608Y-145101330D01*
X127253995Y-145115449D01*
X127254000Y-145115449D01*
X127254005Y-145115449D01*
X127410967Y-145103095D01*
X127505148Y-145095683D01*
X127750111Y-145036873D01*
X127824623Y-145006007D01*
X127850477Y-144996930D01*
X127880763Y-144988138D01*
X128981128Y-144529653D01*
X129076376Y-144510501D01*
X129076897Y-144510500D01*
X133194539Y-144510500D01*
X133194540Y-144510500D01*
X133194541Y-144510500D01*
X133291188Y-144491275D01*
X133387836Y-144472051D01*
X133467490Y-144439057D01*
X133569914Y-144396632D01*
X133733782Y-144287139D01*
X133873139Y-144147782D01*
X133873141Y-144147778D01*
X134749778Y-143271141D01*
X134749782Y-143271139D01*
X134889139Y-143131782D01*
X134998632Y-142967914D01*
X135058807Y-142822637D01*
X135074051Y-142785836D01*
X135095595Y-142677529D01*
X135100372Y-142653517D01*
X135105576Y-142627350D01*
X135112500Y-142592541D01*
X135112500Y-141217410D01*
X135131454Y-141122122D01*
X135133038Y-141118385D01*
X135677788Y-139862735D01*
X135697228Y-139803552D01*
X135701995Y-139790312D01*
X135741508Y-139689637D01*
X135743725Y-139679926D01*
X135753003Y-139639270D01*
X135798222Y-139441157D01*
X135817268Y-139187000D01*
X135798222Y-138932843D01*
X135741508Y-138684363D01*
X135648393Y-138447112D01*
X135520959Y-138226388D01*
X135497354Y-138196788D01*
X135438232Y-138122651D01*
X135393639Y-138036334D01*
X135385474Y-137939522D01*
X135414978Y-137846956D01*
X135433576Y-137818178D01*
X135455353Y-137789088D01*
X135505596Y-137654378D01*
X135505598Y-137654371D01*
X135511999Y-137594832D01*
X135512000Y-137594825D01*
X135512000Y-136897001D01*
X135511999Y-136897000D01*
X134487278Y-136897000D01*
X134531333Y-136820694D01*
X134562000Y-136706244D01*
X134562000Y-136587756D01*
X134531333Y-136473306D01*
X134487278Y-136397000D01*
X135511999Y-136397000D01*
X135512000Y-136396999D01*
X135512000Y-135699175D01*
X135511999Y-135699167D01*
X135505598Y-135639628D01*
X135505596Y-135639621D01*
X135455353Y-135504912D01*
X135454137Y-135503287D01*
X140643500Y-135503287D01*
X140675162Y-135743790D01*
X140675163Y-135743795D01*
X140737940Y-135978082D01*
X140737948Y-135978105D01*
X140830770Y-136202201D01*
X140830778Y-136202217D01*
X140952058Y-136412279D01*
X140952064Y-136412289D01*
X141099729Y-136604731D01*
X141099738Y-136604741D01*
X141271258Y-136776261D01*
X141271268Y-136776270D01*
X141329163Y-136820694D01*
X141463711Y-136923936D01*
X141463720Y-136923941D01*
X141673782Y-137045221D01*
X141673798Y-137045229D01*
X141813858Y-137103242D01*
X141897900Y-137138054D01*
X141897911Y-137138057D01*
X141897917Y-137138059D01*
X142070069Y-137184187D01*
X142132211Y-137200838D01*
X142372712Y-137232500D01*
X142615288Y-137232500D01*
X142855789Y-137200838D01*
X143017275Y-137157567D01*
X143090082Y-137138059D01*
X143090084Y-137138058D01*
X143090100Y-137138054D01*
X143241766Y-137075231D01*
X143314201Y-137045229D01*
X143314206Y-137045226D01*
X143314212Y-137045224D01*
X143524289Y-136923936D01*
X143716738Y-136776265D01*
X143888265Y-136604738D01*
X144035936Y-136412289D01*
X144157224Y-136202212D01*
X144250054Y-135978100D01*
X144312838Y-135743789D01*
X144344500Y-135503288D01*
X144344500Y-135260712D01*
X144312838Y-135020211D01*
X144276543Y-134884758D01*
X144250059Y-134785917D01*
X144250057Y-134785911D01*
X144250054Y-134785900D01*
X144215242Y-134701858D01*
X144157229Y-134561798D01*
X144157221Y-134561782D01*
X144035941Y-134351720D01*
X144035935Y-134351710D01*
X144033582Y-134348644D01*
X143947633Y-134236632D01*
X143888270Y-134159268D01*
X143888261Y-134159258D01*
X143716741Y-133987738D01*
X143716731Y-133987729D01*
X143524289Y-133840064D01*
X143524279Y-133840058D01*
X143314217Y-133718778D01*
X143314201Y-133718770D01*
X143090105Y-133625948D01*
X143090103Y-133625947D01*
X143090100Y-133625946D01*
X143090096Y-133625945D01*
X143090082Y-133625940D01*
X142855795Y-133563163D01*
X142855790Y-133563162D01*
X142615288Y-133531500D01*
X142372712Y-133531500D01*
X142132209Y-133563162D01*
X142132204Y-133563163D01*
X141897917Y-133625940D01*
X141897894Y-133625948D01*
X141673798Y-133718770D01*
X141673782Y-133718778D01*
X141463720Y-133840058D01*
X141463710Y-133840064D01*
X141271268Y-133987729D01*
X141271258Y-133987738D01*
X141099738Y-134159258D01*
X141099729Y-134159268D01*
X140952064Y-134351710D01*
X140952058Y-134351720D01*
X140830778Y-134561782D01*
X140830770Y-134561798D01*
X140737948Y-134785894D01*
X140737940Y-134785917D01*
X140675163Y-135020204D01*
X140675162Y-135020209D01*
X140643500Y-135260712D01*
X140643500Y-135503287D01*
X135454137Y-135503287D01*
X135369189Y-135389812D01*
X135369187Y-135389810D01*
X135254087Y-135303646D01*
X135119378Y-135253403D01*
X135119371Y-135253401D01*
X135059832Y-135247000D01*
X134362001Y-135247000D01*
X134362000Y-135247001D01*
X134362000Y-136271722D01*
X134285694Y-136227667D01*
X134171244Y-136197000D01*
X134052756Y-136197000D01*
X133938306Y-136227667D01*
X133862000Y-136271722D01*
X133862000Y-135247001D01*
X133861999Y-135247000D01*
X133164167Y-135247000D01*
X133104628Y-135253401D01*
X133104621Y-135253403D01*
X132969912Y-135303646D01*
X132854812Y-135389810D01*
X132854810Y-135389812D01*
X132768646Y-135504912D01*
X132718403Y-135639621D01*
X132718401Y-135639628D01*
X132712000Y-135699167D01*
X132712000Y-136396999D01*
X132712001Y-136397000D01*
X133736722Y-136397000D01*
X133692667Y-136473306D01*
X133662000Y-136587756D01*
X133662000Y-136706244D01*
X133692667Y-136820694D01*
X133736722Y-136897000D01*
X132712001Y-136897000D01*
X132712000Y-136897001D01*
X132712000Y-137594832D01*
X132718401Y-137654371D01*
X132718403Y-137654378D01*
X132768647Y-137789089D01*
X132790427Y-137818184D01*
X132832357Y-137905825D01*
X132837556Y-138002841D01*
X132805234Y-138094462D01*
X132785767Y-138122651D01*
X132703050Y-138226375D01*
X132703041Y-138226388D01*
X132575609Y-138447107D01*
X132575600Y-138447127D01*
X132482495Y-138684354D01*
X132482489Y-138684370D01*
X132425777Y-138932845D01*
X132406732Y-139187000D01*
X132425777Y-139441154D01*
X132482489Y-139689629D01*
X132482491Y-139689634D01*
X132527841Y-139805183D01*
X132534141Y-139823249D01*
X132546284Y-139862905D01*
X132546285Y-139862909D01*
X132882264Y-140637338D01*
X133078914Y-141090615D01*
X133090929Y-141118308D01*
X133111466Y-141213268D01*
X133111500Y-141217410D01*
X133111500Y-141976440D01*
X133092546Y-142071728D01*
X133038570Y-142152510D01*
X132754510Y-142436570D01*
X132673728Y-142490546D01*
X132578440Y-142509500D01*
X129076899Y-142509500D01*
X128981611Y-142490546D01*
X128981130Y-142490346D01*
X128703768Y-142374779D01*
X127880753Y-142031857D01*
X127874537Y-142029864D01*
X127833050Y-142016564D01*
X127813783Y-142009499D01*
X127750119Y-141983130D01*
X127750108Y-141983126D01*
X127505145Y-141924316D01*
X127254005Y-141904551D01*
X127253995Y-141904551D01*
X127002854Y-141924316D01*
X126757891Y-141983126D01*
X126757883Y-141983129D01*
X126525141Y-142079533D01*
X126525135Y-142079537D01*
X126310347Y-142211158D01*
X126310345Y-142211160D01*
X126118779Y-142374773D01*
X126118773Y-142374779D01*
X125955160Y-142566345D01*
X125955158Y-142566347D01*
X125823537Y-142781135D01*
X125823533Y-142781141D01*
X125727129Y-143013883D01*
X125727126Y-143013891D01*
X125668316Y-143258854D01*
X125648551Y-143509994D01*
X125648551Y-143510005D01*
X116078000Y-143510005D01*
X116078000Y-111791832D01*
X121508000Y-111791832D01*
X121514401Y-111851371D01*
X121514403Y-111851378D01*
X121564646Y-111986087D01*
X121650810Y-112101187D01*
X121650812Y-112101189D01*
X121765912Y-112187353D01*
X121900621Y-112237596D01*
X121900628Y-112237598D01*
X121960167Y-112243999D01*
X121960175Y-112244000D01*
X122757999Y-112244000D01*
X122758000Y-112243999D01*
X122758000Y-111234747D01*
X122795708Y-111256518D01*
X122935591Y-111294000D01*
X123080409Y-111294000D01*
X123220292Y-111256518D01*
X123258000Y-111234747D01*
X123258000Y-112243999D01*
X123258001Y-112244000D01*
X124055825Y-112244000D01*
X124055832Y-112243999D01*
X124115371Y-112237598D01*
X124115378Y-112237596D01*
X124250087Y-112187353D01*
X124365187Y-112101189D01*
X124365189Y-112101187D01*
X124451353Y-111986087D01*
X124501596Y-111851378D01*
X124501598Y-111851371D01*
X124507999Y-111791832D01*
X124508000Y-111791825D01*
X124508000Y-110994001D01*
X124507999Y-110994000D01*
X123498748Y-110994000D01*
X123520518Y-110956292D01*
X123558000Y-110816409D01*
X123558000Y-110671591D01*
X123520518Y-110531708D01*
X123498748Y-110494000D01*
X124507999Y-110494000D01*
X124508000Y-110493999D01*
X124508000Y-109696175D01*
X124507999Y-109696167D01*
X124501598Y-109636628D01*
X124501596Y-109636621D01*
X124451353Y-109501912D01*
X124365189Y-109386812D01*
X124365187Y-109386810D01*
X124250087Y-109300646D01*
X124115378Y-109250403D01*
X124115371Y-109250401D01*
X124055832Y-109244000D01*
X123258001Y-109244000D01*
X123258000Y-109244001D01*
X123258000Y-110253252D01*
X123220292Y-110231482D01*
X123080409Y-110194000D01*
X122935591Y-110194000D01*
X122795708Y-110231482D01*
X122758000Y-110253252D01*
X122758000Y-109244001D01*
X122757999Y-109244000D01*
X121960167Y-109244000D01*
X121900628Y-109250401D01*
X121900621Y-109250403D01*
X121765912Y-109300646D01*
X121650812Y-109386810D01*
X121650810Y-109386812D01*
X121564646Y-109501912D01*
X121514403Y-109636621D01*
X121514401Y-109636628D01*
X121508000Y-109696167D01*
X121508000Y-110493999D01*
X121508001Y-110494000D01*
X122517252Y-110494000D01*
X122495482Y-110531708D01*
X122458000Y-110671591D01*
X122458000Y-110816409D01*
X122495482Y-110956292D01*
X122517252Y-110994000D01*
X121508001Y-110994000D01*
X121508000Y-110994001D01*
X121508000Y-111791832D01*
X116078000Y-111791832D01*
X116078000Y-105291832D01*
X121508000Y-105291832D01*
X121514401Y-105351371D01*
X121514403Y-105351378D01*
X121564646Y-105486087D01*
X121650810Y-105601187D01*
X121650812Y-105601189D01*
X121765912Y-105687353D01*
X121900621Y-105737596D01*
X121900628Y-105737598D01*
X121960167Y-105743999D01*
X121960175Y-105744000D01*
X122757999Y-105744000D01*
X122758000Y-105743999D01*
X122758000Y-104734747D01*
X122795708Y-104756518D01*
X122935591Y-104794000D01*
X123080409Y-104794000D01*
X123220292Y-104756518D01*
X123258000Y-104734747D01*
X123258000Y-105743999D01*
X123258001Y-105744000D01*
X124055825Y-105744000D01*
X124055832Y-105743999D01*
X124115371Y-105737598D01*
X124115378Y-105737596D01*
X124250087Y-105687353D01*
X124365187Y-105601189D01*
X124365189Y-105601187D01*
X124451353Y-105486087D01*
X124501596Y-105351378D01*
X124501598Y-105351371D01*
X124507999Y-105291832D01*
X124508000Y-105291825D01*
X124508000Y-104494001D01*
X124507999Y-104494000D01*
X123498748Y-104494000D01*
X123520518Y-104456292D01*
X123558000Y-104316409D01*
X123558000Y-104171591D01*
X123520518Y-104031708D01*
X123498748Y-103994000D01*
X124507999Y-103994000D01*
X124508000Y-103993999D01*
X124508000Y-103196175D01*
X124507999Y-103196167D01*
X124501598Y-103136628D01*
X124501596Y-103136621D01*
X124451353Y-103001912D01*
X124365189Y-102886812D01*
X124365187Y-102886810D01*
X124250087Y-102800646D01*
X124115378Y-102750403D01*
X124115371Y-102750401D01*
X124055832Y-102744000D01*
X123258001Y-102744000D01*
X123258000Y-102744001D01*
X123258000Y-103753252D01*
X123220292Y-103731482D01*
X123080409Y-103694000D01*
X122935591Y-103694000D01*
X122795708Y-103731482D01*
X122758000Y-103753252D01*
X122758000Y-102744001D01*
X122757999Y-102744000D01*
X121960167Y-102744000D01*
X121900628Y-102750401D01*
X121900621Y-102750403D01*
X121765912Y-102800646D01*
X121650812Y-102886810D01*
X121650810Y-102886812D01*
X121564646Y-103001912D01*
X121514403Y-103136621D01*
X121514401Y-103136628D01*
X121508000Y-103196167D01*
X121508000Y-103993999D01*
X121508001Y-103994000D01*
X122517252Y-103994000D01*
X122495482Y-104031708D01*
X122458000Y-104171591D01*
X122458000Y-104316409D01*
X122495482Y-104456292D01*
X122517252Y-104494000D01*
X121508001Y-104494000D01*
X121508000Y-104494001D01*
X121508000Y-105291832D01*
X116078000Y-105291832D01*
X116078000Y-66991287D01*
X119307500Y-66991287D01*
X119339162Y-67231790D01*
X119339163Y-67231795D01*
X119401940Y-67466082D01*
X119401948Y-67466105D01*
X119494770Y-67690201D01*
X119494778Y-67690217D01*
X119616058Y-67900279D01*
X119616064Y-67900289D01*
X119763729Y-68092731D01*
X119763738Y-68092741D01*
X119935258Y-68264261D01*
X119935268Y-68264270D01*
X119996227Y-68311045D01*
X120127711Y-68411936D01*
X120127720Y-68411941D01*
X120337782Y-68533221D01*
X120337798Y-68533229D01*
X120477858Y-68591242D01*
X120561900Y-68626054D01*
X120561911Y-68626057D01*
X120561917Y-68626059D01*
X120709964Y-68665728D01*
X120796211Y-68688838D01*
X121036712Y-68720500D01*
X121279288Y-68720500D01*
X121519789Y-68688838D01*
X121685823Y-68644349D01*
X121754082Y-68626059D01*
X121754084Y-68626058D01*
X121754100Y-68626054D01*
X121918274Y-68558051D01*
X121978201Y-68533229D01*
X121978206Y-68533226D01*
X121978212Y-68533224D01*
X122188289Y-68411936D01*
X122380738Y-68264265D01*
X122552265Y-68092738D01*
X122699936Y-67900289D01*
X122821224Y-67690212D01*
X122914054Y-67466100D01*
X122976838Y-67231789D01*
X123008500Y-66991288D01*
X123008500Y-66748712D01*
X122976838Y-66508211D01*
X122914054Y-66273900D01*
X122854031Y-66128991D01*
X122821229Y-66049798D01*
X122821221Y-66049782D01*
X122699941Y-65839720D01*
X122699935Y-65839710D01*
X122672667Y-65804174D01*
X122552265Y-65647262D01*
X122380738Y-65475735D01*
X122380735Y-65475733D01*
X122380731Y-65475729D01*
X122188289Y-65328064D01*
X122188279Y-65328058D01*
X121978217Y-65206778D01*
X121978201Y-65206770D01*
X121754105Y-65113948D01*
X121754103Y-65113947D01*
X121754100Y-65113946D01*
X121754096Y-65113945D01*
X121754082Y-65113940D01*
X121519795Y-65051163D01*
X121519790Y-65051162D01*
X121279288Y-65019500D01*
X121036712Y-65019500D01*
X120796209Y-65051162D01*
X120796204Y-65051163D01*
X120561917Y-65113940D01*
X120561894Y-65113948D01*
X120337798Y-65206770D01*
X120337782Y-65206778D01*
X120127720Y-65328058D01*
X120127710Y-65328064D01*
X119935268Y-65475729D01*
X119935258Y-65475738D01*
X119763738Y-65647258D01*
X119763729Y-65647268D01*
X119616064Y-65839710D01*
X119616058Y-65839720D01*
X119494778Y-66049782D01*
X119494770Y-66049798D01*
X119401948Y-66273894D01*
X119401940Y-66273917D01*
X119339163Y-66508204D01*
X119339162Y-66508209D01*
X119307500Y-66748712D01*
X119307500Y-66991287D01*
X116078000Y-66991287D01*
X116078000Y-62225000D01*
X116096954Y-62129712D01*
X116150930Y-62048930D01*
X116231712Y-61994954D01*
X116327000Y-61976000D01*
X129580994Y-61976000D01*
X129676282Y-61994954D01*
G37*
%TD.AperFunction*%
%TA.AperFunction,Conductor*%
G36*
X179409728Y-64265454D02*
G01*
X179490510Y-64319430D01*
X180282570Y-65111490D01*
X180336546Y-65192272D01*
X180355500Y-65287560D01*
X180355500Y-69186545D01*
X180393947Y-69379830D01*
X180393949Y-69379835D01*
X180469365Y-69561908D01*
X180469366Y-69561911D01*
X180469368Y-69561914D01*
X180578861Y-69725782D01*
X180718218Y-69865139D01*
X180718221Y-69865141D01*
X185663858Y-74810778D01*
X185663861Y-74810782D01*
X185803218Y-74950139D01*
X185967086Y-75059632D01*
X186061600Y-75098780D01*
X186061602Y-75098782D01*
X186116816Y-75121652D01*
X186149164Y-75135051D01*
X186245812Y-75154275D01*
X186342459Y-75173500D01*
X186342460Y-75173500D01*
X186539540Y-75173500D01*
X186738166Y-75173500D01*
X186833454Y-75192454D01*
X186914236Y-75246430D01*
X186927493Y-75260772D01*
X186998311Y-75343689D01*
X187195860Y-75512412D01*
X187417372Y-75648154D01*
X187657390Y-75747573D01*
X187910006Y-75808221D01*
X187974754Y-75813316D01*
X188168994Y-75828604D01*
X188169000Y-75828604D01*
X188169006Y-75828604D01*
X188341662Y-75815015D01*
X188427994Y-75808221D01*
X188680610Y-75747573D01*
X188920628Y-75648154D01*
X189142140Y-75512412D01*
X189241172Y-75427829D01*
X189325936Y-75380359D01*
X189422418Y-75368939D01*
X189515925Y-75395311D01*
X189552105Y-75417839D01*
X189616909Y-75466352D01*
X189751621Y-75516596D01*
X189751628Y-75516598D01*
X189811167Y-75522999D01*
X189811175Y-75523000D01*
X190458999Y-75523000D01*
X190459000Y-75522999D01*
X190459000Y-74606012D01*
X190516007Y-74638925D01*
X190643174Y-74673000D01*
X190774826Y-74673000D01*
X190901993Y-74638925D01*
X190959000Y-74606012D01*
X190959000Y-75522999D01*
X190959001Y-75523000D01*
X191606825Y-75523000D01*
X191606832Y-75522999D01*
X191666371Y-75516598D01*
X191666378Y-75516596D01*
X191801087Y-75466353D01*
X191916187Y-75380189D01*
X191916189Y-75380187D01*
X192002353Y-75265087D01*
X192052596Y-75130378D01*
X192052598Y-75130371D01*
X192058999Y-75070832D01*
X192059000Y-75070825D01*
X192059000Y-74423001D01*
X192058999Y-74423000D01*
X191142012Y-74423000D01*
X191174925Y-74365993D01*
X191209000Y-74238826D01*
X191209000Y-74107174D01*
X191174925Y-73980007D01*
X191142012Y-73923000D01*
X192058999Y-73923000D01*
X192059000Y-73922999D01*
X192059000Y-73275175D01*
X192058999Y-73275167D01*
X192052598Y-73215628D01*
X192052596Y-73215621D01*
X192002353Y-73080912D01*
X191916189Y-72965812D01*
X191916187Y-72965810D01*
X191801087Y-72879646D01*
X191666378Y-72829403D01*
X191666371Y-72829401D01*
X191606832Y-72823000D01*
X190959001Y-72823000D01*
X190959000Y-72823001D01*
X190959000Y-73739988D01*
X190901993Y-73707075D01*
X190774826Y-73673000D01*
X190643174Y-73673000D01*
X190516007Y-73707075D01*
X190459000Y-73739988D01*
X190459000Y-72823001D01*
X190458999Y-72823000D01*
X189811167Y-72823000D01*
X189751628Y-72829401D01*
X189751621Y-72829403D01*
X189616909Y-72879647D01*
X189552104Y-72928161D01*
X189464463Y-72970092D01*
X189367447Y-72975293D01*
X189275827Y-72942971D01*
X189241170Y-72918168D01*
X189142140Y-72833588D01*
X188920628Y-72697846D01*
X188769822Y-72635380D01*
X188680611Y-72598427D01*
X188680608Y-72598426D01*
X188427991Y-72537778D01*
X188169006Y-72517396D01*
X188168994Y-72517396D01*
X187910008Y-72537778D01*
X187657391Y-72598426D01*
X187657388Y-72598427D01*
X187417372Y-72697846D01*
X187195861Y-72833587D01*
X187004475Y-72997045D01*
X186919707Y-73044516D01*
X186823225Y-73055935D01*
X186729718Y-73029563D01*
X186666693Y-72983773D01*
X182429430Y-68746510D01*
X182375454Y-68665728D01*
X182356500Y-68570440D01*
X182356500Y-64671459D01*
X182356499Y-64671456D01*
X182351541Y-64646533D01*
X182331161Y-64544077D01*
X182331161Y-64446924D01*
X182368340Y-64357164D01*
X182437039Y-64288465D01*
X182526798Y-64251285D01*
X182575377Y-64246500D01*
X187442440Y-64246500D01*
X187537728Y-64265454D01*
X187618510Y-64319430D01*
X202888570Y-79589490D01*
X202942546Y-79670272D01*
X202961500Y-79765560D01*
X202961500Y-120162167D01*
X202942546Y-120257455D01*
X202888570Y-120338237D01*
X202807788Y-120392213D01*
X202712500Y-120411167D01*
X202617212Y-120392213D01*
X202536430Y-120338237D01*
X202504046Y-120298357D01*
X202493435Y-120282117D01*
X201752962Y-121022589D01*
X201735925Y-120959007D01*
X201670099Y-120844993D01*
X201577007Y-120751901D01*
X201462993Y-120686075D01*
X201399407Y-120669037D01*
X202140056Y-119928388D01*
X202093241Y-119891951D01*
X202093230Y-119891944D01*
X201874607Y-119773631D01*
X201639490Y-119692916D01*
X201639487Y-119692915D01*
X201394294Y-119652000D01*
X201145706Y-119652000D01*
X200900512Y-119692915D01*
X200900509Y-119692916D01*
X200665392Y-119773631D01*
X200446768Y-119891944D01*
X200446758Y-119891951D01*
X200399941Y-119928388D01*
X201140590Y-120669037D01*
X201077007Y-120686075D01*
X200962993Y-120751901D01*
X200869901Y-120844993D01*
X200804075Y-120959007D01*
X200787037Y-121022591D01*
X200046563Y-120282117D01*
X199946268Y-120435630D01*
X199946268Y-120435631D01*
X199846413Y-120663277D01*
X199846410Y-120663285D01*
X199785389Y-120904251D01*
X199785387Y-120904258D01*
X199764859Y-121152000D01*
X199785387Y-121399741D01*
X199785389Y-121399748D01*
X199846410Y-121640714D01*
X199846413Y-121640722D01*
X199946266Y-121868364D01*
X200046564Y-122021881D01*
X200787037Y-121281408D01*
X200804075Y-121344993D01*
X200869901Y-121459007D01*
X200962993Y-121552099D01*
X201077007Y-121617925D01*
X201140589Y-121634962D01*
X200399942Y-122375610D01*
X200446766Y-122412054D01*
X200446770Y-122412057D01*
X200665388Y-122530366D01*
X200665390Y-122530367D01*
X200900509Y-122611083D01*
X200900512Y-122611084D01*
X201145706Y-122652000D01*
X201394294Y-122652000D01*
X201639487Y-122611084D01*
X201639490Y-122611083D01*
X201874607Y-122530368D01*
X202093230Y-122412055D01*
X202093238Y-122412050D01*
X202140056Y-122375610D01*
X201399408Y-121634962D01*
X201462993Y-121617925D01*
X201577007Y-121552099D01*
X201670099Y-121459007D01*
X201735925Y-121344993D01*
X201752962Y-121281408D01*
X202493435Y-122021881D01*
X202504046Y-122005640D01*
X202572032Y-121936235D01*
X202661402Y-121898130D01*
X202758552Y-121897127D01*
X202848691Y-121933377D01*
X202918096Y-122001363D01*
X202956201Y-122090733D01*
X202961500Y-122141831D01*
X202961500Y-123688440D01*
X202942546Y-123783728D01*
X202888574Y-123864505D01*
X202858509Y-123894569D01*
X202777733Y-123948544D01*
X202682445Y-123967500D01*
X198891561Y-123967500D01*
X198796273Y-123948546D01*
X198715491Y-123894570D01*
X197669430Y-122848509D01*
X197615454Y-122767727D01*
X197596500Y-122672439D01*
X197596500Y-119789459D01*
X197596499Y-119789454D01*
X197577296Y-119692915D01*
X197558051Y-119596165D01*
X197556622Y-119592715D01*
X197554186Y-119586833D01*
X197554184Y-119586830D01*
X197520137Y-119504632D01*
X197482632Y-119414086D01*
X197373139Y-119250218D01*
X197233782Y-119110861D01*
X197233778Y-119110858D01*
X196103141Y-117980221D01*
X196103139Y-117980218D01*
X195963782Y-117840861D01*
X195942551Y-117826675D01*
X195799914Y-117731368D01*
X195799909Y-117731365D01*
X195710868Y-117694483D01*
X195671165Y-117678038D01*
X195617836Y-117655949D01*
X195617833Y-117655948D01*
X195521189Y-117636724D01*
X195521188Y-117636724D01*
X195424541Y-117617500D01*
X189639459Y-117617500D01*
X189542812Y-117636724D01*
X189542810Y-117636724D01*
X189446165Y-117655948D01*
X189392830Y-117678039D01*
X189264088Y-117731366D01*
X189264084Y-117731368D01*
X189100219Y-117840860D01*
X189100216Y-117840862D01*
X188960860Y-117980217D01*
X188960861Y-117980218D01*
X188960858Y-117980221D01*
X187830221Y-119110858D01*
X187830218Y-119110861D01*
X187830217Y-119110860D01*
X187690862Y-119250216D01*
X187690860Y-119250219D01*
X187581369Y-119414083D01*
X187581368Y-119414086D01*
X187543863Y-119504632D01*
X187509816Y-119586830D01*
X187509815Y-119586829D01*
X187505950Y-119596161D01*
X187505947Y-119596172D01*
X187467500Y-119789454D01*
X187467500Y-122672440D01*
X187448546Y-122767728D01*
X187394574Y-122848505D01*
X187364509Y-122878569D01*
X187283733Y-122932544D01*
X187188445Y-122951500D01*
X185061336Y-122951500D01*
X184966048Y-122932546D01*
X184885266Y-122878570D01*
X184831290Y-122797788D01*
X184812336Y-122702500D01*
X184828035Y-122615484D01*
X184881596Y-122471878D01*
X184881598Y-122471871D01*
X184887999Y-122412332D01*
X184888000Y-122412325D01*
X184888000Y-121662001D01*
X184887999Y-121662000D01*
X183878748Y-121662000D01*
X183900518Y-121624292D01*
X183938000Y-121484409D01*
X183938000Y-121339591D01*
X183900518Y-121199708D01*
X183878748Y-121162000D01*
X184887999Y-121162000D01*
X184888000Y-121161999D01*
X184888000Y-120411675D01*
X184887999Y-120411667D01*
X184881598Y-120352128D01*
X184881596Y-120352121D01*
X184831353Y-120217412D01*
X184745189Y-120102312D01*
X184745187Y-120102310D01*
X184630087Y-120016146D01*
X184495378Y-119965903D01*
X184495371Y-119965901D01*
X184435832Y-119959500D01*
X183638001Y-119959500D01*
X183638000Y-119959501D01*
X183638000Y-120921252D01*
X183600292Y-120899482D01*
X183460409Y-120862000D01*
X183315591Y-120862000D01*
X183175708Y-120899482D01*
X183138000Y-120921252D01*
X183138000Y-119959501D01*
X183094779Y-119916280D01*
X183040803Y-119835498D01*
X183021849Y-119740210D01*
X183040803Y-119644922D01*
X183094776Y-119564143D01*
X187975140Y-114683781D01*
X188084632Y-114519914D01*
X188160052Y-114337835D01*
X188198501Y-114144540D01*
X188198501Y-113947459D01*
X188198501Y-113937186D01*
X188198500Y-113937160D01*
X188198500Y-113312834D01*
X188217454Y-113217546D01*
X188271430Y-113136764D01*
X188285782Y-113123498D01*
X188368689Y-113052689D01*
X188484335Y-112917284D01*
X188560629Y-112857140D01*
X188654136Y-112830768D01*
X188750618Y-112842187D01*
X188835385Y-112889658D01*
X188849743Y-112902930D01*
X188866923Y-112920110D01*
X189060423Y-113055600D01*
X189274511Y-113155431D01*
X189488000Y-113212635D01*
X189488000Y-112315012D01*
X189545007Y-112347925D01*
X189672174Y-112382000D01*
X189803826Y-112382000D01*
X189930993Y-112347925D01*
X189988000Y-112315012D01*
X189988000Y-113212635D01*
X190201488Y-113155431D01*
X190425432Y-113051005D01*
X190426899Y-113054151D01*
X190496691Y-113029973D01*
X190593675Y-113035721D01*
X190681078Y-113078146D01*
X190741568Y-113144159D01*
X190798180Y-113234257D01*
X190798182Y-113234259D01*
X190798184Y-113234262D01*
X190925738Y-113361816D01*
X190925740Y-113361817D01*
X190925742Y-113361819D01*
X191078470Y-113457785D01*
X191078473Y-113457786D01*
X191078478Y-113457789D01*
X191248745Y-113517368D01*
X191248754Y-113517369D01*
X191383031Y-113532499D01*
X191383046Y-113532500D01*
X193172954Y-113532500D01*
X193172968Y-113532499D01*
X193283079Y-113520091D01*
X193307255Y-113517368D01*
X193477522Y-113457789D01*
X193477527Y-113457785D01*
X193477529Y-113457785D01*
X193630257Y-113361819D01*
X193630256Y-113361819D01*
X193630262Y-113361816D01*
X193757816Y-113234262D01*
X193827414Y-113123498D01*
X193853785Y-113081529D01*
X193853785Y-113081527D01*
X193853789Y-113081522D01*
X193913368Y-112911255D01*
X193922437Y-112830768D01*
X193928499Y-112776968D01*
X193928500Y-112776953D01*
X193928500Y-110987046D01*
X193928499Y-110987031D01*
X193913369Y-110852754D01*
X193913368Y-110852745D01*
X193853789Y-110682478D01*
X193853786Y-110682473D01*
X193853785Y-110682470D01*
X193757819Y-110529742D01*
X193757817Y-110529740D01*
X193757816Y-110529738D01*
X193630262Y-110402184D01*
X193630259Y-110402182D01*
X193630257Y-110402180D01*
X193477529Y-110306214D01*
X193477524Y-110306212D01*
X193477522Y-110306211D01*
X193307255Y-110246632D01*
X193307251Y-110246631D01*
X193307245Y-110246630D01*
X193172968Y-110231500D01*
X193172954Y-110231500D01*
X191383046Y-110231500D01*
X191383031Y-110231500D01*
X191248754Y-110246630D01*
X191248746Y-110246631D01*
X191248745Y-110246632D01*
X191078478Y-110306211D01*
X191078476Y-110306211D01*
X191078476Y-110306212D01*
X191078470Y-110306214D01*
X190925742Y-110402180D01*
X190798182Y-110529740D01*
X190741568Y-110619841D01*
X190674822Y-110690439D01*
X190586141Y-110730121D01*
X190489024Y-110732846D01*
X190426595Y-110710500D01*
X190425432Y-110712995D01*
X190201484Y-110608566D01*
X189988001Y-110551363D01*
X189988000Y-110551364D01*
X189988000Y-111448988D01*
X189930993Y-111416075D01*
X189803826Y-111382000D01*
X189672174Y-111382000D01*
X189545007Y-111416075D01*
X189488000Y-111448988D01*
X189488000Y-110551364D01*
X189487998Y-110551363D01*
X189274516Y-110608566D01*
X189274505Y-110608570D01*
X189060428Y-110708396D01*
X189060420Y-110708400D01*
X188866918Y-110843892D01*
X188849739Y-110861072D01*
X188768957Y-110915047D01*
X188673668Y-110933999D01*
X188578380Y-110915043D01*
X188497600Y-110861065D01*
X188484338Y-110846719D01*
X188368689Y-110711311D01*
X188334921Y-110682470D01*
X188285786Y-110640504D01*
X188225638Y-110564206D01*
X188199267Y-110470698D01*
X188198500Y-110451164D01*
X188198500Y-107546623D01*
X188217454Y-107451335D01*
X188271430Y-107370553D01*
X188307230Y-107340891D01*
X188323741Y-107329635D01*
X188521561Y-107146085D01*
X188521564Y-107146080D01*
X188526983Y-107141053D01*
X188609726Y-107090135D01*
X188705656Y-107074757D01*
X188800169Y-107097261D01*
X188849286Y-107127088D01*
X188914760Y-107178049D01*
X188914769Y-107178055D01*
X189133392Y-107296368D01*
X189368509Y-107377083D01*
X189368513Y-107377084D01*
X189487999Y-107397022D01*
X189488000Y-107397022D01*
X189488000Y-106351012D01*
X189545007Y-106383925D01*
X189672174Y-106418000D01*
X189803826Y-106418000D01*
X189930993Y-106383925D01*
X189988000Y-106351012D01*
X189988000Y-107397022D01*
X190107486Y-107377084D01*
X190107490Y-107377083D01*
X190342607Y-107296368D01*
X190561230Y-107178055D01*
X190561240Y-107178048D01*
X190626712Y-107127089D01*
X190713549Y-107083518D01*
X190810450Y-107076495D01*
X190902662Y-107107089D01*
X190949016Y-107141053D01*
X190954437Y-107146083D01*
X190954439Y-107146085D01*
X191152259Y-107329635D01*
X191375226Y-107481651D01*
X191618359Y-107598738D01*
X191876228Y-107678280D01*
X192143071Y-107718500D01*
X192143074Y-107718500D01*
X192412926Y-107718500D01*
X192412929Y-107718500D01*
X192679772Y-107678280D01*
X192937641Y-107598738D01*
X193180775Y-107481651D01*
X193403741Y-107329635D01*
X193601561Y-107146085D01*
X193769815Y-106935102D01*
X193904743Y-106701398D01*
X194003334Y-106450195D01*
X194063383Y-106187103D01*
X194083549Y-105918000D01*
X194063383Y-105648897D01*
X194013946Y-105432299D01*
X194003336Y-105385812D01*
X194003334Y-105385809D01*
X194003334Y-105385805D01*
X193904743Y-105134602D01*
X193769815Y-104900898D01*
X193769813Y-104900895D01*
X193769811Y-104900892D01*
X193601562Y-104689916D01*
X193567105Y-104657945D01*
X193406674Y-104509086D01*
X193403738Y-104506362D01*
X193180778Y-104354350D01*
X193180773Y-104354348D01*
X192937649Y-104237265D01*
X192937644Y-104237263D01*
X192937641Y-104237262D01*
X192679772Y-104157720D01*
X192412929Y-104117500D01*
X192143071Y-104117500D01*
X191942938Y-104147665D01*
X191876227Y-104157720D01*
X191618353Y-104237264D01*
X191375227Y-104354348D01*
X191152253Y-104506369D01*
X190949015Y-104694946D01*
X190866272Y-104745864D01*
X190770342Y-104761242D01*
X190675829Y-104738738D01*
X190626713Y-104708912D01*
X190561231Y-104657945D01*
X190561230Y-104657944D01*
X190342606Y-104539630D01*
X190107487Y-104458915D01*
X189988000Y-104438976D01*
X189988000Y-105484988D01*
X189930993Y-105452075D01*
X189803826Y-105418000D01*
X189672174Y-105418000D01*
X189545007Y-105452075D01*
X189488000Y-105484988D01*
X189488000Y-104438976D01*
X189487999Y-104438976D01*
X189368512Y-104458915D01*
X189133393Y-104539630D01*
X188914769Y-104657944D01*
X188914763Y-104657948D01*
X188849284Y-104708913D01*
X188762447Y-104752482D01*
X188665546Y-104759504D01*
X188573334Y-104728909D01*
X188526983Y-104694946D01*
X188487105Y-104657945D01*
X188326674Y-104509086D01*
X188323738Y-104506362D01*
X188100778Y-104354350D01*
X188100773Y-104354348D01*
X187857649Y-104237265D01*
X187857644Y-104237263D01*
X187857641Y-104237262D01*
X187599772Y-104157720D01*
X187332929Y-104117500D01*
X187063071Y-104117500D01*
X186862938Y-104147665D01*
X186796227Y-104157720D01*
X186538353Y-104237264D01*
X186295223Y-104354350D01*
X186068266Y-104509087D01*
X185978858Y-104547104D01*
X185881708Y-104548012D01*
X185791605Y-104511673D01*
X185787733Y-104509086D01*
X185560778Y-104354350D01*
X185560773Y-104354348D01*
X185317649Y-104237265D01*
X185317644Y-104237263D01*
X185317641Y-104237262D01*
X185059772Y-104157720D01*
X184792929Y-104117500D01*
X184523071Y-104117500D01*
X184322938Y-104147665D01*
X184256227Y-104157720D01*
X183998353Y-104237264D01*
X183755223Y-104354350D01*
X183528266Y-104509087D01*
X183438858Y-104547104D01*
X183341708Y-104548012D01*
X183251605Y-104511673D01*
X183247733Y-104509086D01*
X183020778Y-104354350D01*
X183020773Y-104354348D01*
X182777649Y-104237265D01*
X182777644Y-104237263D01*
X182777641Y-104237262D01*
X182519772Y-104157720D01*
X182252929Y-104117500D01*
X181983071Y-104117500D01*
X181782938Y-104147665D01*
X181716227Y-104157720D01*
X181458353Y-104237264D01*
X181215223Y-104354350D01*
X180988266Y-104509087D01*
X180898858Y-104547104D01*
X180801708Y-104548012D01*
X180711605Y-104511673D01*
X180707733Y-104509086D01*
X180480778Y-104354350D01*
X180480773Y-104354348D01*
X180237649Y-104237265D01*
X180237644Y-104237263D01*
X180237641Y-104237262D01*
X179979772Y-104157720D01*
X179712929Y-104117500D01*
X179443071Y-104117500D01*
X179242938Y-104147665D01*
X179176227Y-104157720D01*
X178918353Y-104237264D01*
X178675223Y-104354350D01*
X178448266Y-104509087D01*
X178358858Y-104547104D01*
X178261708Y-104548012D01*
X178171605Y-104511673D01*
X178167733Y-104509086D01*
X177940778Y-104354350D01*
X177940773Y-104354348D01*
X177697649Y-104237265D01*
X177697644Y-104237263D01*
X177697641Y-104237262D01*
X177439772Y-104157720D01*
X177172929Y-104117500D01*
X176903071Y-104117500D01*
X176702938Y-104147665D01*
X176636227Y-104157720D01*
X176378353Y-104237264D01*
X176135223Y-104354350D01*
X175908266Y-104509087D01*
X175818858Y-104547104D01*
X175721708Y-104548012D01*
X175631605Y-104511673D01*
X175627733Y-104509086D01*
X175400778Y-104354350D01*
X175400773Y-104354348D01*
X175157649Y-104237265D01*
X175157644Y-104237263D01*
X175157641Y-104237262D01*
X174899772Y-104157720D01*
X174632929Y-104117500D01*
X174363071Y-104117500D01*
X174162938Y-104147665D01*
X174096227Y-104157720D01*
X173838353Y-104237264D01*
X173595223Y-104354350D01*
X173368266Y-104509087D01*
X173278858Y-104547104D01*
X173181708Y-104548012D01*
X173091605Y-104511673D01*
X173087733Y-104509086D01*
X172860778Y-104354350D01*
X172860773Y-104354348D01*
X172617649Y-104237265D01*
X172617644Y-104237263D01*
X172617641Y-104237262D01*
X172359772Y-104157720D01*
X172092929Y-104117500D01*
X171823071Y-104117500D01*
X171622938Y-104147665D01*
X171556227Y-104157720D01*
X171298353Y-104237264D01*
X171055223Y-104354350D01*
X170828266Y-104509087D01*
X170738858Y-104547104D01*
X170641708Y-104548012D01*
X170551605Y-104511673D01*
X170547733Y-104509086D01*
X170320778Y-104354350D01*
X170320773Y-104354348D01*
X170077649Y-104237265D01*
X170077644Y-104237263D01*
X170077641Y-104237262D01*
X169819772Y-104157720D01*
X169552929Y-104117500D01*
X169283071Y-104117500D01*
X169082938Y-104147665D01*
X169016227Y-104157720D01*
X168758353Y-104237264D01*
X168515223Y-104354350D01*
X168288266Y-104509087D01*
X168198858Y-104547104D01*
X168101708Y-104548012D01*
X168011605Y-104511673D01*
X168007733Y-104509086D01*
X167780778Y-104354350D01*
X167780773Y-104354348D01*
X167537649Y-104237265D01*
X167537644Y-104237263D01*
X167537641Y-104237262D01*
X167279772Y-104157720D01*
X167012929Y-104117500D01*
X166743071Y-104117500D01*
X166542938Y-104147665D01*
X166476227Y-104157720D01*
X166218353Y-104237264D01*
X165975223Y-104354350D01*
X165748266Y-104509087D01*
X165658858Y-104547104D01*
X165561708Y-104548012D01*
X165471605Y-104511673D01*
X165467733Y-104509086D01*
X165240778Y-104354350D01*
X165240773Y-104354348D01*
X164997649Y-104237265D01*
X164997644Y-104237263D01*
X164997641Y-104237262D01*
X164739772Y-104157720D01*
X164472929Y-104117500D01*
X164203071Y-104117500D01*
X164002938Y-104147665D01*
X163936227Y-104157720D01*
X163678353Y-104237264D01*
X163435223Y-104354350D01*
X163208266Y-104509087D01*
X163118858Y-104547104D01*
X163021708Y-104548012D01*
X162931605Y-104511673D01*
X162927733Y-104509086D01*
X162700778Y-104354350D01*
X162700773Y-104354348D01*
X162457649Y-104237265D01*
X162457644Y-104237263D01*
X162457641Y-104237262D01*
X162199772Y-104157720D01*
X161932929Y-104117500D01*
X161663071Y-104117500D01*
X161462938Y-104147665D01*
X161396227Y-104157720D01*
X161138353Y-104237264D01*
X160895223Y-104354350D01*
X160668266Y-104509087D01*
X160578858Y-104547104D01*
X160481708Y-104548012D01*
X160391605Y-104511673D01*
X160387733Y-104509086D01*
X160160778Y-104354350D01*
X160160773Y-104354348D01*
X159917649Y-104237265D01*
X159917644Y-104237263D01*
X159917641Y-104237262D01*
X159659772Y-104157720D01*
X159392929Y-104117500D01*
X159123071Y-104117500D01*
X158922938Y-104147665D01*
X158856227Y-104157720D01*
X158598353Y-104237264D01*
X158355223Y-104354350D01*
X158128266Y-104509087D01*
X158038858Y-104547104D01*
X157941708Y-104548012D01*
X157851605Y-104511673D01*
X157847733Y-104509086D01*
X157620778Y-104354350D01*
X157620773Y-104354348D01*
X157377649Y-104237265D01*
X157377644Y-104237263D01*
X157377641Y-104237262D01*
X157119772Y-104157720D01*
X156852929Y-104117500D01*
X156583071Y-104117500D01*
X156382938Y-104147665D01*
X156316227Y-104157720D01*
X156058353Y-104237264D01*
X155815223Y-104354350D01*
X155588266Y-104509087D01*
X155498858Y-104547104D01*
X155401708Y-104548012D01*
X155311605Y-104511673D01*
X155307733Y-104509086D01*
X155080778Y-104354350D01*
X155080773Y-104354348D01*
X154837649Y-104237265D01*
X154837644Y-104237263D01*
X154837641Y-104237262D01*
X154579772Y-104157720D01*
X154312929Y-104117500D01*
X154043071Y-104117500D01*
X153842938Y-104147665D01*
X153776227Y-104157720D01*
X153518353Y-104237264D01*
X153275223Y-104354350D01*
X153048266Y-104509087D01*
X152958858Y-104547104D01*
X152861708Y-104548012D01*
X152771605Y-104511673D01*
X152767733Y-104509086D01*
X152540778Y-104354350D01*
X152540773Y-104354348D01*
X152297649Y-104237265D01*
X152297644Y-104237263D01*
X152297641Y-104237262D01*
X152039772Y-104157720D01*
X151772929Y-104117500D01*
X151503071Y-104117500D01*
X151302938Y-104147665D01*
X151236227Y-104157720D01*
X150978353Y-104237264D01*
X150735223Y-104354350D01*
X150508266Y-104509087D01*
X150418858Y-104547104D01*
X150321708Y-104548012D01*
X150231605Y-104511673D01*
X150227733Y-104509086D01*
X150000778Y-104354350D01*
X150000773Y-104354348D01*
X149757649Y-104237265D01*
X149757644Y-104237263D01*
X149757641Y-104237262D01*
X149499772Y-104157720D01*
X149232929Y-104117500D01*
X148963071Y-104117500D01*
X148762938Y-104147665D01*
X148696227Y-104157720D01*
X148438353Y-104237264D01*
X148195223Y-104354350D01*
X147968266Y-104509087D01*
X147878858Y-104547104D01*
X147781708Y-104548012D01*
X147691605Y-104511673D01*
X147687733Y-104509086D01*
X147460780Y-104354351D01*
X147456129Y-104352111D01*
X147453000Y-104350605D01*
X147375376Y-104292183D01*
X147326015Y-104208502D01*
X147312435Y-104112301D01*
X147336703Y-104018225D01*
X147395126Y-103940599D01*
X147422703Y-103919232D01*
X147449782Y-103901139D01*
X147589139Y-103761782D01*
X147589140Y-103761779D01*
X150383140Y-100967781D01*
X150492632Y-100803914D01*
X150568052Y-100621835D01*
X150606500Y-100428540D01*
X150606500Y-100231460D01*
X150606500Y-100231459D01*
X150606500Y-96021559D01*
X150625454Y-95926271D01*
X150679428Y-95845491D01*
X152275778Y-94249141D01*
X152275782Y-94249139D01*
X152415139Y-94109782D01*
X152524632Y-93945914D01*
X152594855Y-93776380D01*
X152600051Y-93763836D01*
X152638500Y-93570540D01*
X152638500Y-93373460D01*
X152638500Y-92306623D01*
X152657454Y-92211335D01*
X152711430Y-92130553D01*
X152747220Y-92100898D01*
X152763741Y-92089635D01*
X152763747Y-92089629D01*
X152767725Y-92086917D01*
X152857132Y-92048897D01*
X152954283Y-92047985D01*
X153044387Y-92084321D01*
X153048263Y-92086911D01*
X153068764Y-92100888D01*
X153136819Y-92170225D01*
X153173159Y-92260328D01*
X153177500Y-92306623D01*
X153177500Y-93681099D01*
X153158546Y-93776387D01*
X153158346Y-93776868D01*
X152699858Y-94877242D01*
X152699855Y-94877250D01*
X152684562Y-94924956D01*
X152677495Y-94944227D01*
X152651126Y-95007889D01*
X152651125Y-95007892D01*
X152592317Y-95252849D01*
X152572551Y-95503994D01*
X152572551Y-95504005D01*
X152592316Y-95755145D01*
X152651126Y-96000108D01*
X152651129Y-96000116D01*
X152747533Y-96232858D01*
X152747537Y-96232864D01*
X152879158Y-96447652D01*
X152879160Y-96447654D01*
X152879163Y-96447657D01*
X152879164Y-96447659D01*
X153042776Y-96639224D01*
X153218727Y-96789500D01*
X153234345Y-96802839D01*
X153234347Y-96802841D01*
X153406971Y-96908624D01*
X153449141Y-96934466D01*
X153681889Y-97030873D01*
X153926852Y-97089683D01*
X153998608Y-97095330D01*
X154177995Y-97109449D01*
X154178000Y-97109449D01*
X154178005Y-97109449D01*
X154334967Y-97097095D01*
X154429148Y-97089683D01*
X154674111Y-97030873D01*
X154906859Y-96934466D01*
X155070703Y-96834062D01*
X155121652Y-96802841D01*
X155121654Y-96802839D01*
X155121653Y-96802839D01*
X155121659Y-96802836D01*
X155306789Y-96644719D01*
X155391554Y-96597249D01*
X155488036Y-96585830D01*
X155581543Y-96612201D01*
X155657841Y-96672349D01*
X155705313Y-96757116D01*
X155717500Y-96834062D01*
X155717500Y-98796440D01*
X155698546Y-98891728D01*
X155644570Y-98972510D01*
X155644568Y-98972511D01*
X155578450Y-99038628D01*
X155497668Y-99092604D01*
X155402380Y-99111557D01*
X155307092Y-99092602D01*
X155294396Y-99086923D01*
X154924840Y-98909058D01*
X154914655Y-98903505D01*
X154906861Y-98899534D01*
X154900313Y-98896822D01*
X154887620Y-98891144D01*
X154844657Y-98870467D01*
X154844641Y-98870459D01*
X154844617Y-98870448D01*
X154824856Y-98861265D01*
X154824265Y-98861000D01*
X154820565Y-98859760D01*
X154777897Y-98845467D01*
X154761715Y-98839413D01*
X154674111Y-98803127D01*
X154674110Y-98803126D01*
X154674108Y-98803126D01*
X154429145Y-98744316D01*
X154178005Y-98724551D01*
X154177995Y-98724551D01*
X153926854Y-98744316D01*
X153681891Y-98803126D01*
X153681883Y-98803129D01*
X153449141Y-98899533D01*
X153449135Y-98899537D01*
X153234347Y-99031158D01*
X153234345Y-99031160D01*
X153042779Y-99194773D01*
X153042773Y-99194779D01*
X152879160Y-99386345D01*
X152879158Y-99386347D01*
X152747537Y-99601135D01*
X152747533Y-99601141D01*
X152651129Y-99833883D01*
X152651126Y-99833891D01*
X152592316Y-100078854D01*
X152572551Y-100329994D01*
X152572551Y-100330005D01*
X152592316Y-100581145D01*
X152651126Y-100826108D01*
X152651129Y-100826116D01*
X152747533Y-101058858D01*
X152747537Y-101058864D01*
X152879158Y-101273652D01*
X152879160Y-101273654D01*
X152879163Y-101273657D01*
X152879164Y-101273659D01*
X153042776Y-101465224D01*
X153234341Y-101628836D01*
X153234345Y-101628839D01*
X153234347Y-101628841D01*
X153396393Y-101728142D01*
X153449141Y-101760466D01*
X153681889Y-101856873D01*
X153926852Y-101915683D01*
X153998608Y-101921330D01*
X154177995Y-101935449D01*
X154178000Y-101935449D01*
X154178005Y-101935449D01*
X154334967Y-101923095D01*
X154429148Y-101915683D01*
X154674111Y-101856873D01*
X154773219Y-101815820D01*
X154790197Y-101809503D01*
X154832420Y-101795522D01*
X155845139Y-101328641D01*
X155900798Y-101310556D01*
X155993836Y-101292051D01*
X156047165Y-101269961D01*
X156175914Y-101216632D01*
X156339782Y-101107139D01*
X156479139Y-100967782D01*
X156479141Y-100967778D01*
X157355778Y-100091141D01*
X157355782Y-100091139D01*
X157495139Y-99951782D01*
X157604632Y-99787914D01*
X157657961Y-99659165D01*
X157680051Y-99605836D01*
X157694553Y-99532926D01*
X157705232Y-99479245D01*
X157705232Y-99479238D01*
X157705234Y-99479232D01*
X157718500Y-99412541D01*
X157718500Y-92306623D01*
X157737454Y-92211335D01*
X157791430Y-92130553D01*
X157827220Y-92100898D01*
X157843741Y-92089635D01*
X157843747Y-92089629D01*
X157847725Y-92086917D01*
X157937132Y-92048897D01*
X158034283Y-92047985D01*
X158124387Y-92084321D01*
X158128266Y-92086912D01*
X158132256Y-92089632D01*
X158132259Y-92089635D01*
X158355226Y-92241651D01*
X158598359Y-92358738D01*
X158856228Y-92438280D01*
X159123071Y-92478500D01*
X159123074Y-92478500D01*
X159392926Y-92478500D01*
X159392929Y-92478500D01*
X159659772Y-92438280D01*
X159917641Y-92358738D01*
X160160775Y-92241651D01*
X160383741Y-92089635D01*
X160383747Y-92089628D01*
X160387731Y-92086913D01*
X160477139Y-92048896D01*
X160574290Y-92047987D01*
X160664393Y-92084325D01*
X160668263Y-92086911D01*
X160688764Y-92100888D01*
X160756819Y-92170225D01*
X160793159Y-92260328D01*
X160797500Y-92306623D01*
X160797500Y-93681099D01*
X160778546Y-93776387D01*
X160778346Y-93776868D01*
X160319858Y-94877242D01*
X160319855Y-94877250D01*
X160304562Y-94924956D01*
X160297495Y-94944227D01*
X160271126Y-95007889D01*
X160271125Y-95007892D01*
X160212317Y-95252849D01*
X160192551Y-95503994D01*
X160192551Y-95504005D01*
X160212316Y-95755145D01*
X160271126Y-96000108D01*
X160271129Y-96000116D01*
X160367533Y-96232858D01*
X160367537Y-96232864D01*
X160499158Y-96447652D01*
X160499160Y-96447654D01*
X160499163Y-96447657D01*
X160499164Y-96447659D01*
X160662776Y-96639224D01*
X160838727Y-96789500D01*
X160854345Y-96802839D01*
X160854347Y-96802841D01*
X161026971Y-96908624D01*
X161069141Y-96934466D01*
X161301889Y-97030873D01*
X161546852Y-97089683D01*
X161618608Y-97095330D01*
X161797995Y-97109449D01*
X161798000Y-97109449D01*
X161798005Y-97109449D01*
X161954967Y-97097095D01*
X162049148Y-97089683D01*
X162294111Y-97030873D01*
X162526859Y-96934466D01*
X162690703Y-96834062D01*
X162741652Y-96802841D01*
X162741654Y-96802839D01*
X162741653Y-96802839D01*
X162741659Y-96802836D01*
X162933224Y-96639224D01*
X163096836Y-96447659D01*
X163108185Y-96429138D01*
X163174131Y-96357796D01*
X163195065Y-96348144D01*
X163211238Y-96266838D01*
X163228981Y-96232018D01*
X163233456Y-96224716D01*
X163269690Y-96178755D01*
X163898000Y-95550445D01*
X163898000Y-95556661D01*
X163925259Y-95658394D01*
X163977920Y-95749606D01*
X164052394Y-95824080D01*
X164143606Y-95876741D01*
X164245339Y-95904000D01*
X164251552Y-95904000D01*
X163617353Y-96538197D01*
X163571296Y-96568970D01*
X163572525Y-96583023D01*
X163645515Y-96634132D01*
X163851676Y-96730267D01*
X164071396Y-96789140D01*
X164298000Y-96808965D01*
X164524602Y-96789140D01*
X164524603Y-96789140D01*
X164744326Y-96730266D01*
X164950476Y-96634137D01*
X164950483Y-96634133D01*
X165023471Y-96583025D01*
X164344446Y-95904000D01*
X164350661Y-95904000D01*
X164452394Y-95876741D01*
X164543606Y-95824080D01*
X164618080Y-95749606D01*
X164670741Y-95658394D01*
X164698000Y-95556661D01*
X164698000Y-95550446D01*
X165377025Y-96229471D01*
X165428133Y-96156483D01*
X165428137Y-96156476D01*
X165524266Y-95950326D01*
X165583140Y-95730603D01*
X165583140Y-95730602D01*
X165602965Y-95504000D01*
X165583140Y-95277397D01*
X165583140Y-95277396D01*
X165524267Y-95057676D01*
X165428132Y-94851515D01*
X165377025Y-94778527D01*
X165377023Y-94778527D01*
X164698000Y-95457551D01*
X164698000Y-95451339D01*
X164670741Y-95349606D01*
X164618080Y-95258394D01*
X164543606Y-95183920D01*
X164452394Y-95131259D01*
X164350661Y-95104000D01*
X164344446Y-95104000D01*
X165023471Y-94424974D01*
X165023471Y-94424972D01*
X164950488Y-94373869D01*
X164950486Y-94373867D01*
X164744323Y-94277732D01*
X164524603Y-94218859D01*
X164298000Y-94199034D01*
X164071396Y-94218859D01*
X163851676Y-94277732D01*
X163645514Y-94373867D01*
X163645510Y-94373870D01*
X163560360Y-94433492D01*
X163559632Y-94435990D01*
X163631049Y-94483497D01*
X163631413Y-94483859D01*
X164251554Y-95104000D01*
X164245339Y-95104000D01*
X164143606Y-95131259D01*
X164052394Y-95183920D01*
X163977920Y-95258394D01*
X163925259Y-95349606D01*
X163898000Y-95451339D01*
X163898000Y-95457552D01*
X163281292Y-94840844D01*
X163227514Y-94760539D01*
X163225493Y-94755688D01*
X163206344Y-94660443D01*
X163222329Y-94579202D01*
X163213648Y-94576672D01*
X163137879Y-94515860D01*
X163098781Y-94451578D01*
X162956367Y-94109782D01*
X162817654Y-93776867D01*
X162798501Y-93681619D01*
X162798500Y-93681099D01*
X162798500Y-92306623D01*
X162817454Y-92211335D01*
X162871430Y-92130553D01*
X162907220Y-92100898D01*
X162923741Y-92089635D01*
X162923747Y-92089629D01*
X162927725Y-92086917D01*
X163017132Y-92048897D01*
X163114283Y-92047985D01*
X163204387Y-92084321D01*
X163208266Y-92086912D01*
X163212256Y-92089632D01*
X163212259Y-92089635D01*
X163435226Y-92241651D01*
X163678359Y-92358738D01*
X163936228Y-92438280D01*
X164203071Y-92478500D01*
X164203074Y-92478500D01*
X164472926Y-92478500D01*
X164472929Y-92478500D01*
X164739772Y-92438280D01*
X164997641Y-92358738D01*
X165240775Y-92241651D01*
X165463741Y-92089635D01*
X165463742Y-92089633D01*
X165467733Y-92086913D01*
X165557140Y-92048896D01*
X165654291Y-92047987D01*
X165744394Y-92084325D01*
X165748267Y-92086913D01*
X165975222Y-92241649D01*
X165975225Y-92241650D01*
X165975226Y-92241651D01*
X166218359Y-92358738D01*
X166476228Y-92438280D01*
X166743071Y-92478500D01*
X166743074Y-92478500D01*
X167012926Y-92478500D01*
X167012929Y-92478500D01*
X167279772Y-92438280D01*
X167537641Y-92358738D01*
X167780775Y-92241651D01*
X168003741Y-92089635D01*
X168003742Y-92089633D01*
X168007733Y-92086913D01*
X168097140Y-92048896D01*
X168194291Y-92047987D01*
X168284394Y-92084325D01*
X168288267Y-92086913D01*
X168515222Y-92241649D01*
X168515225Y-92241650D01*
X168515226Y-92241651D01*
X168758359Y-92358738D01*
X169016228Y-92438280D01*
X169283071Y-92478500D01*
X169283074Y-92478500D01*
X169552926Y-92478500D01*
X169552929Y-92478500D01*
X169819772Y-92438280D01*
X170077641Y-92358738D01*
X170320775Y-92241651D01*
X170543741Y-92089635D01*
X170543742Y-92089633D01*
X170547733Y-92086913D01*
X170637140Y-92048896D01*
X170734291Y-92047987D01*
X170824394Y-92084325D01*
X170828267Y-92086913D01*
X171055222Y-92241649D01*
X171055225Y-92241650D01*
X171055226Y-92241651D01*
X171298359Y-92358738D01*
X171556228Y-92438280D01*
X171823071Y-92478500D01*
X171823074Y-92478500D01*
X172092926Y-92478500D01*
X172092929Y-92478500D01*
X172359772Y-92438280D01*
X172617641Y-92358738D01*
X172860775Y-92241651D01*
X173083741Y-92089635D01*
X173083742Y-92089633D01*
X173087733Y-92086913D01*
X173177140Y-92048896D01*
X173274291Y-92047987D01*
X173364394Y-92084325D01*
X173368267Y-92086913D01*
X173595222Y-92241649D01*
X173595225Y-92241650D01*
X173595226Y-92241651D01*
X173838359Y-92358738D01*
X174096228Y-92438280D01*
X174363071Y-92478500D01*
X174363074Y-92478500D01*
X174632926Y-92478500D01*
X174632929Y-92478500D01*
X174899772Y-92438280D01*
X175157641Y-92358738D01*
X175400775Y-92241651D01*
X175623741Y-92089635D01*
X175623742Y-92089633D01*
X175627733Y-92086913D01*
X175717140Y-92048896D01*
X175814291Y-92047987D01*
X175904394Y-92084325D01*
X175908267Y-92086913D01*
X176135222Y-92241649D01*
X176135225Y-92241650D01*
X176135226Y-92241651D01*
X176378359Y-92358738D01*
X176636228Y-92438280D01*
X176903071Y-92478500D01*
X176903074Y-92478500D01*
X177172926Y-92478500D01*
X177172929Y-92478500D01*
X177439772Y-92438280D01*
X177697641Y-92358738D01*
X177940775Y-92241651D01*
X178163741Y-92089635D01*
X178163742Y-92089633D01*
X178167733Y-92086913D01*
X178257140Y-92048896D01*
X178354291Y-92047987D01*
X178444394Y-92084325D01*
X178448267Y-92086913D01*
X178675222Y-92241649D01*
X178675225Y-92241650D01*
X178675226Y-92241651D01*
X178918359Y-92358738D01*
X179176228Y-92438280D01*
X179443071Y-92478500D01*
X179443074Y-92478500D01*
X179712926Y-92478500D01*
X179712929Y-92478500D01*
X179979772Y-92438280D01*
X180237641Y-92358738D01*
X180480775Y-92241651D01*
X180703741Y-92089635D01*
X180703742Y-92089633D01*
X180707733Y-92086913D01*
X180797140Y-92048896D01*
X180894291Y-92047987D01*
X180984394Y-92084325D01*
X180988267Y-92086913D01*
X181215222Y-92241649D01*
X181215225Y-92241650D01*
X181215226Y-92241651D01*
X181458359Y-92358738D01*
X181716228Y-92438280D01*
X181983071Y-92478500D01*
X181983074Y-92478500D01*
X182252926Y-92478500D01*
X182252929Y-92478500D01*
X182519772Y-92438280D01*
X182777641Y-92358738D01*
X183020775Y-92241651D01*
X183243741Y-92089635D01*
X183243742Y-92089633D01*
X183247733Y-92086913D01*
X183337140Y-92048896D01*
X183434291Y-92047987D01*
X183524394Y-92084325D01*
X183528267Y-92086913D01*
X183755222Y-92241649D01*
X183755225Y-92241650D01*
X183755226Y-92241651D01*
X183998359Y-92358738D01*
X184256228Y-92438280D01*
X184523071Y-92478500D01*
X184523074Y-92478500D01*
X184792926Y-92478500D01*
X184792929Y-92478500D01*
X185059772Y-92438280D01*
X185317641Y-92358738D01*
X185560775Y-92241651D01*
X185783741Y-92089635D01*
X185783742Y-92089633D01*
X185787733Y-92086913D01*
X185877140Y-92048896D01*
X185974291Y-92047987D01*
X186064394Y-92084325D01*
X186068267Y-92086913D01*
X186295222Y-92241649D01*
X186295225Y-92241650D01*
X186295226Y-92241651D01*
X186538359Y-92358738D01*
X186796228Y-92438280D01*
X187063071Y-92478500D01*
X187063074Y-92478500D01*
X187332926Y-92478500D01*
X187332929Y-92478500D01*
X187599772Y-92438280D01*
X187857641Y-92358738D01*
X188100775Y-92241651D01*
X188323741Y-92089635D01*
X188323747Y-92089628D01*
X188327731Y-92086913D01*
X188417139Y-92048896D01*
X188514290Y-92047987D01*
X188604393Y-92084325D01*
X188608263Y-92086911D01*
X188628764Y-92100888D01*
X188696819Y-92170225D01*
X188733159Y-92260328D01*
X188737500Y-92306623D01*
X188737500Y-92849996D01*
X188718546Y-92945284D01*
X188664570Y-93026066D01*
X188583788Y-93080042D01*
X188583307Y-93080241D01*
X187865983Y-93375609D01*
X187821500Y-93398501D01*
X187802859Y-93407140D01*
X187739135Y-93433536D01*
X187524347Y-93565158D01*
X187524345Y-93565160D01*
X187332779Y-93728773D01*
X187332773Y-93728779D01*
X187169160Y-93920345D01*
X187169158Y-93920347D01*
X187037537Y-94135135D01*
X187037533Y-94135141D01*
X186941129Y-94367883D01*
X186941126Y-94367891D01*
X186882316Y-94612854D01*
X186862551Y-94863994D01*
X186862551Y-94864005D01*
X186882316Y-95115145D01*
X186941126Y-95360108D01*
X186941129Y-95360116D01*
X187037533Y-95592858D01*
X187037537Y-95592864D01*
X187169158Y-95807652D01*
X187169160Y-95807654D01*
X187169163Y-95807657D01*
X187169164Y-95807659D01*
X187332776Y-95999224D01*
X187516903Y-96156483D01*
X187524345Y-96162839D01*
X187524347Y-96162841D01*
X187686011Y-96261908D01*
X187739141Y-96294466D01*
X187777741Y-96310454D01*
X187858521Y-96364429D01*
X187912497Y-96445211D01*
X187931452Y-96540499D01*
X187912499Y-96635787D01*
X187858523Y-96716569D01*
X187777741Y-96770545D01*
X187682453Y-96789500D01*
X180095560Y-96789500D01*
X180000272Y-96770546D01*
X179919490Y-96716570D01*
X179582740Y-96379820D01*
X179528764Y-96299038D01*
X179509810Y-96203750D01*
X179528764Y-96108462D01*
X179528964Y-96107981D01*
X179570998Y-96007100D01*
X179786142Y-95490752D01*
X179801432Y-95443049D01*
X179808494Y-95423791D01*
X179834873Y-95360111D01*
X179893683Y-95115148D01*
X179905743Y-94961914D01*
X179913449Y-94864005D01*
X179913449Y-94863994D01*
X179898624Y-94675639D01*
X179893683Y-94612852D01*
X179834873Y-94367889D01*
X179738466Y-94135141D01*
X179700713Y-94073534D01*
X179606841Y-93920347D01*
X179606839Y-93920345D01*
X179605106Y-93918316D01*
X179443224Y-93728776D01*
X179251659Y-93565164D01*
X179251657Y-93565163D01*
X179251654Y-93565160D01*
X179251652Y-93565158D01*
X179036864Y-93433537D01*
X179036858Y-93433533D01*
X178804116Y-93337129D01*
X178804108Y-93337126D01*
X178559145Y-93278316D01*
X178308005Y-93258551D01*
X178307995Y-93258551D01*
X178056854Y-93278316D01*
X177811891Y-93337126D01*
X177811883Y-93337129D01*
X177579141Y-93433533D01*
X177579135Y-93433537D01*
X177364347Y-93565158D01*
X177364345Y-93565160D01*
X177172779Y-93728773D01*
X177172773Y-93728779D01*
X177009160Y-93920345D01*
X177009158Y-93920347D01*
X176877537Y-94135135D01*
X176877533Y-94135141D01*
X176781129Y-94367883D01*
X176781126Y-94367891D01*
X176722316Y-94612854D01*
X176702551Y-94863994D01*
X176702551Y-94864005D01*
X176722316Y-95115145D01*
X176724870Y-95125782D01*
X176781127Y-95360111D01*
X176786259Y-95372500D01*
X176811989Y-95434621D01*
X176821063Y-95460466D01*
X176829861Y-95490765D01*
X177305030Y-96631172D01*
X177319398Y-96678358D01*
X177324597Y-96704492D01*
X177324597Y-96704499D01*
X177324599Y-96704499D01*
X177345949Y-96811838D01*
X177363576Y-96854390D01*
X177404030Y-96952056D01*
X177421369Y-96993916D01*
X177530858Y-97157778D01*
X177530861Y-97157782D01*
X177670218Y-97297139D01*
X177670221Y-97297141D01*
X178800858Y-98427778D01*
X178800861Y-98427782D01*
X178940218Y-98567139D01*
X179104086Y-98676632D01*
X179219773Y-98724550D01*
X179219775Y-98724552D01*
X179248728Y-98736544D01*
X179286164Y-98752051D01*
X179382812Y-98771275D01*
X179479459Y-98790500D01*
X179479460Y-98790500D01*
X192122539Y-98790500D01*
X192122540Y-98790500D01*
X192122541Y-98790500D01*
X192219188Y-98771275D01*
X192315836Y-98752051D01*
X192382226Y-98724551D01*
X192497914Y-98676632D01*
X192661782Y-98567139D01*
X192801139Y-98427782D01*
X192801141Y-98427778D01*
X195963778Y-95265141D01*
X195963782Y-95265139D01*
X196103139Y-95125782D01*
X196212632Y-94961914D01*
X196288051Y-94779835D01*
X196290911Y-94765460D01*
X196326500Y-94586540D01*
X196326500Y-94389460D01*
X196326500Y-83115071D01*
X196345454Y-83019783D01*
X196399430Y-82939001D01*
X196480212Y-82885025D01*
X196575500Y-82866071D01*
X196668227Y-82883982D01*
X197215871Y-83103741D01*
X197215885Y-83103745D01*
X197220641Y-83105433D01*
X197220550Y-83105686D01*
X197239285Y-83113052D01*
X197239313Y-83112982D01*
X197247984Y-83116384D01*
X197247988Y-83116385D01*
X197247996Y-83116389D01*
X197491542Y-83191513D01*
X197743565Y-83229500D01*
X197743569Y-83229500D01*
X197998431Y-83229500D01*
X197998435Y-83229500D01*
X198250458Y-83191513D01*
X198494004Y-83116389D01*
X198723634Y-83005805D01*
X198723637Y-83005803D01*
X198934210Y-82862237D01*
X198934211Y-82862235D01*
X198934217Y-82862232D01*
X198934221Y-82862227D01*
X198939282Y-82858192D01*
X199025597Y-82813595D01*
X199122408Y-82805424D01*
X199214976Y-82834923D01*
X199243765Y-82853528D01*
X199268911Y-82872353D01*
X199403621Y-82922596D01*
X199403628Y-82922598D01*
X199463167Y-82928999D01*
X199463175Y-82929000D01*
X200160999Y-82929000D01*
X200161000Y-82928999D01*
X200161000Y-81904277D01*
X200237306Y-81948333D01*
X200351756Y-81979000D01*
X200470244Y-81979000D01*
X200584694Y-81948333D01*
X200661000Y-81904277D01*
X200661000Y-82928999D01*
X200661001Y-82929000D01*
X201358825Y-82929000D01*
X201358832Y-82928999D01*
X201418371Y-82922598D01*
X201418378Y-82922596D01*
X201553087Y-82872353D01*
X201668187Y-82786189D01*
X201668189Y-82786187D01*
X201754353Y-82671087D01*
X201804596Y-82536378D01*
X201804598Y-82536371D01*
X201810999Y-82476832D01*
X201811000Y-82476825D01*
X201811000Y-81779001D01*
X201810999Y-81779000D01*
X200786278Y-81779000D01*
X200830333Y-81702694D01*
X200861000Y-81588244D01*
X200861000Y-81469756D01*
X200830333Y-81355306D01*
X200786278Y-81279000D01*
X201810999Y-81279000D01*
X201811000Y-81278999D01*
X201811000Y-80581175D01*
X201810999Y-80581167D01*
X201804598Y-80521628D01*
X201804596Y-80521621D01*
X201754353Y-80386912D01*
X201668189Y-80271812D01*
X201668187Y-80271810D01*
X201553087Y-80185646D01*
X201418378Y-80135403D01*
X201418371Y-80135401D01*
X201358832Y-80129000D01*
X200661001Y-80129000D01*
X200661000Y-80129001D01*
X200661000Y-81153722D01*
X200584694Y-81109667D01*
X200470244Y-81079000D01*
X200351756Y-81079000D01*
X200237306Y-81109667D01*
X200161000Y-81153722D01*
X200161000Y-80129001D01*
X200160999Y-80129000D01*
X199463167Y-80129000D01*
X199403628Y-80135401D01*
X199403621Y-80135403D01*
X199268908Y-80185648D01*
X199243758Y-80204475D01*
X199156117Y-80246405D01*
X199059101Y-80251604D01*
X198967480Y-80219281D01*
X198939291Y-80199815D01*
X198934226Y-80195776D01*
X198934217Y-80195768D01*
X198811364Y-80112008D01*
X198723637Y-80052196D01*
X198723632Y-80052194D01*
X198494010Y-79941613D01*
X198494005Y-79941611D01*
X198250464Y-79866488D01*
X198250461Y-79866487D01*
X198142448Y-79850206D01*
X197998435Y-79828500D01*
X197743565Y-79828500D01*
X197617553Y-79847493D01*
X197491538Y-79866487D01*
X197491535Y-79866488D01*
X197247994Y-79941611D01*
X197247989Y-79941613D01*
X197018364Y-80052195D01*
X196930635Y-80112008D01*
X196915918Y-80121305D01*
X196239064Y-80516494D01*
X196162101Y-80545677D01*
X196151817Y-80547723D01*
X196151810Y-80547724D01*
X196055164Y-80566948D01*
X196001830Y-80589039D01*
X195873088Y-80642366D01*
X195873084Y-80642368D01*
X195709219Y-80751860D01*
X195709216Y-80751862D01*
X195569860Y-80891217D01*
X195569861Y-80891218D01*
X195569858Y-80891221D01*
X195569856Y-80891222D01*
X195494689Y-80966388D01*
X195490953Y-80969799D01*
X195491048Y-80969897D01*
X195483398Y-80977276D01*
X195476397Y-80984680D01*
X194688221Y-81772857D01*
X194688221Y-81772858D01*
X194688218Y-81772861D01*
X194688217Y-81772860D01*
X194548862Y-81912216D01*
X194548860Y-81912219D01*
X194439369Y-82076084D01*
X194439368Y-82076085D01*
X194401800Y-82166783D01*
X194377032Y-82226581D01*
X194377028Y-82226589D01*
X194363950Y-82258160D01*
X194363948Y-82258166D01*
X194325500Y-82451454D01*
X194325500Y-83452328D01*
X194306546Y-83547616D01*
X194252570Y-83628398D01*
X194171788Y-83682374D01*
X194076500Y-83701328D01*
X193981212Y-83682374D01*
X193900430Y-83628398D01*
X193846454Y-83547617D01*
X193831245Y-83510899D01*
X193753154Y-83322372D01*
X193617412Y-83100860D01*
X193448689Y-82903311D01*
X193251140Y-82734588D01*
X193029628Y-82598846D01*
X192904775Y-82547130D01*
X192789611Y-82499427D01*
X192789608Y-82499426D01*
X192536991Y-82438778D01*
X192278006Y-82418396D01*
X192277994Y-82418396D01*
X192019008Y-82438778D01*
X191766391Y-82499426D01*
X191766388Y-82499427D01*
X191526372Y-82598846D01*
X191304861Y-82734587D01*
X191304860Y-82734588D01*
X191186460Y-82835712D01*
X191169713Y-82850015D01*
X191084945Y-82897487D01*
X190988464Y-82908906D01*
X190894957Y-82882535D01*
X190846289Y-82850016D01*
X190711140Y-82734588D01*
X190489628Y-82598846D01*
X190364775Y-82547130D01*
X190249611Y-82499427D01*
X190249608Y-82499426D01*
X189996991Y-82438778D01*
X189738006Y-82418396D01*
X189737994Y-82418396D01*
X189479008Y-82438778D01*
X189226391Y-82499426D01*
X189226388Y-82499427D01*
X188986372Y-82598846D01*
X188764861Y-82734587D01*
X188764860Y-82734588D01*
X188646460Y-82835712D01*
X188629713Y-82850015D01*
X188544945Y-82897487D01*
X188448464Y-82908906D01*
X188354957Y-82882535D01*
X188306289Y-82850016D01*
X188171140Y-82734588D01*
X187949628Y-82598846D01*
X187824775Y-82547130D01*
X187709611Y-82499427D01*
X187709608Y-82499426D01*
X187456991Y-82438778D01*
X187198006Y-82418396D01*
X187197994Y-82418396D01*
X186939008Y-82438778D01*
X186686391Y-82499426D01*
X186686388Y-82499427D01*
X186446372Y-82598846D01*
X186224861Y-82734587D01*
X186224860Y-82734588D01*
X186106460Y-82835712D01*
X186089713Y-82850015D01*
X186004945Y-82897487D01*
X185908464Y-82908906D01*
X185814957Y-82882535D01*
X185766289Y-82850016D01*
X185631140Y-82734588D01*
X185409628Y-82598846D01*
X185284775Y-82547130D01*
X185169611Y-82499427D01*
X185169608Y-82499426D01*
X184916991Y-82438778D01*
X184658006Y-82418396D01*
X184657994Y-82418396D01*
X184399008Y-82438778D01*
X184146391Y-82499426D01*
X184146388Y-82499427D01*
X183906372Y-82598846D01*
X183684861Y-82734587D01*
X183549712Y-82850015D01*
X183464944Y-82897486D01*
X183368463Y-82908905D01*
X183274956Y-82882533D01*
X183226286Y-82850013D01*
X183205786Y-82832504D01*
X183145638Y-82756205D01*
X183119267Y-82662698D01*
X183118500Y-82643164D01*
X183118500Y-77879459D01*
X183118499Y-77879456D01*
X183093908Y-77755832D01*
X183092788Y-77750198D01*
X183080051Y-77686164D01*
X183036582Y-77581221D01*
X183004632Y-77504086D01*
X182895139Y-77340218D01*
X182847867Y-77292946D01*
X182755782Y-77200860D01*
X182755782Y-77200861D01*
X173433576Y-67878655D01*
X173379600Y-67797873D01*
X173360646Y-67702585D01*
X173379600Y-67607297D01*
X173380491Y-67605174D01*
X173841838Y-66521585D01*
X173857839Y-66472302D01*
X173864605Y-66453954D01*
X173894573Y-66381610D01*
X173955221Y-66128994D01*
X173962864Y-66031871D01*
X173975604Y-65870005D01*
X173975604Y-65869994D01*
X173958074Y-65647258D01*
X173955221Y-65611006D01*
X173894573Y-65358390D01*
X173795154Y-65118372D01*
X173659412Y-64896860D01*
X173490689Y-64699311D01*
X173473744Y-64684839D01*
X173413599Y-64608545D01*
X173387227Y-64515037D01*
X173398646Y-64418556D01*
X173446117Y-64333788D01*
X173522414Y-64273640D01*
X173615922Y-64247268D01*
X173635459Y-64246500D01*
X179314440Y-64246500D01*
X179409728Y-64265454D01*
G37*
%TD.AperFunction*%
%TA.AperFunction,Conductor*%
G36*
X181787747Y-121088553D02*
G01*
X181868529Y-121142529D01*
X181868530Y-121142529D01*
X181888001Y-121162000D01*
X182897252Y-121162000D01*
X182875482Y-121199708D01*
X182838000Y-121339591D01*
X182838000Y-121484409D01*
X182875482Y-121624292D01*
X182897252Y-121662000D01*
X181888001Y-121662000D01*
X181888000Y-121662001D01*
X181888000Y-122412332D01*
X181894401Y-122471871D01*
X181894403Y-122471878D01*
X181944648Y-122606593D01*
X181953181Y-122622219D01*
X181950873Y-122623479D01*
X181981438Y-122687365D01*
X181986637Y-122784381D01*
X181954315Y-122876002D01*
X181937719Y-122900522D01*
X181879806Y-122975996D01*
X181805140Y-123105322D01*
X181741080Y-123178367D01*
X181653945Y-123221337D01*
X181556998Y-123227691D01*
X181464999Y-123196461D01*
X181391954Y-123132401D01*
X181348984Y-123045266D01*
X181340500Y-122980821D01*
X181340500Y-121421560D01*
X181359454Y-121326272D01*
X181413430Y-121245491D01*
X181516390Y-121142530D01*
X181597171Y-121088553D01*
X181692459Y-121069599D01*
X181787747Y-121088553D01*
G37*
%TD.AperFunction*%
%TA.AperFunction,Conductor*%
G36*
X128893788Y-87125454D02*
G01*
X128974570Y-87179430D01*
X129028546Y-87260212D01*
X129047500Y-87355500D01*
X129047500Y-91811439D01*
X129028546Y-91906727D01*
X128974570Y-91987509D01*
X127663510Y-93298570D01*
X127582728Y-93352546D01*
X127487440Y-93371500D01*
X126763459Y-93371500D01*
X126666812Y-93390724D01*
X126640278Y-93396002D01*
X126570160Y-93409949D01*
X126523312Y-93429354D01*
X126523313Y-93429355D01*
X126388088Y-93485367D01*
X126388084Y-93485369D01*
X126224219Y-93594860D01*
X126224217Y-93594861D01*
X125600219Y-94218858D01*
X125600220Y-94218859D01*
X125600218Y-94218861D01*
X125600217Y-94218860D01*
X125460862Y-94358216D01*
X125460860Y-94358219D01*
X125351368Y-94522084D01*
X125351366Y-94522088D01*
X125298038Y-94650829D01*
X125298039Y-94650830D01*
X125275950Y-94704160D01*
X125275949Y-94704163D01*
X125275949Y-94704164D01*
X125262949Y-94769519D01*
X125237500Y-94897454D01*
X125237500Y-95609117D01*
X125218546Y-95704405D01*
X125217600Y-95706659D01*
X125055284Y-96087896D01*
X125000517Y-96168143D01*
X124919209Y-96221324D01*
X124823740Y-96239342D01*
X124739168Y-96223655D01*
X124655377Y-96192402D01*
X124655371Y-96192401D01*
X124595832Y-96186000D01*
X123948001Y-96186000D01*
X123948000Y-96186001D01*
X123948000Y-97102988D01*
X123890993Y-97070075D01*
X123763826Y-97036000D01*
X123632174Y-97036000D01*
X123505007Y-97070075D01*
X123448000Y-97102988D01*
X123448000Y-96186001D01*
X123447999Y-96186000D01*
X122800167Y-96186000D01*
X122740628Y-96192401D01*
X122740615Y-96192404D01*
X122656827Y-96223655D01*
X122560923Y-96239195D01*
X122466372Y-96216851D01*
X122387569Y-96160025D01*
X122340715Y-96087897D01*
X122228393Y-95824080D01*
X122178400Y-95706658D01*
X122158512Y-95611561D01*
X122158500Y-95609118D01*
X122158500Y-93481560D01*
X122177454Y-93386272D01*
X122231430Y-93305490D01*
X123277491Y-92259430D01*
X123358273Y-92205454D01*
X123453561Y-92186500D01*
X123833119Y-92186500D01*
X123928407Y-92205454D01*
X123930660Y-92206400D01*
X125108417Y-92707840D01*
X125157677Y-92723834D01*
X125176062Y-92730613D01*
X125248390Y-92760573D01*
X125501006Y-92821221D01*
X125565754Y-92826316D01*
X125759994Y-92841604D01*
X125760000Y-92841604D01*
X125760006Y-92841604D01*
X125932662Y-92828015D01*
X126018994Y-92821221D01*
X126271610Y-92760573D01*
X126511628Y-92661154D01*
X126733140Y-92525412D01*
X126930689Y-92356689D01*
X127099412Y-92159140D01*
X127235154Y-91937628D01*
X127334573Y-91697610D01*
X127335176Y-91695101D01*
X127354753Y-91613551D01*
X127395221Y-91444994D01*
X127415604Y-91186000D01*
X127414974Y-91178000D01*
X127395221Y-90927008D01*
X127335439Y-90678000D01*
X127334573Y-90674390D01*
X127235154Y-90434372D01*
X127099412Y-90212860D01*
X127014830Y-90113827D01*
X126967359Y-90029061D01*
X126955940Y-89932580D01*
X126982311Y-89839073D01*
X127004840Y-89802892D01*
X127053353Y-89738088D01*
X127103596Y-89603378D01*
X127103598Y-89603371D01*
X127109999Y-89543832D01*
X127110000Y-89543825D01*
X127110000Y-88896001D01*
X127109999Y-88896000D01*
X126193012Y-88896000D01*
X126225925Y-88838993D01*
X126260000Y-88711826D01*
X126260000Y-88580174D01*
X126225925Y-88453007D01*
X126193012Y-88396000D01*
X127109999Y-88396000D01*
X127110000Y-88395999D01*
X127110000Y-87748175D01*
X127109999Y-87748167D01*
X127103598Y-87688628D01*
X127103596Y-87688621D01*
X127072344Y-87604829D01*
X127056804Y-87508925D01*
X127079147Y-87414374D01*
X127135972Y-87335571D01*
X127208100Y-87288715D01*
X127589339Y-87126400D01*
X127684437Y-87106512D01*
X127686880Y-87106500D01*
X128798500Y-87106500D01*
X128893788Y-87125454D01*
G37*
%TD.AperFunction*%
%TA.AperFunction,Conductor*%
G36*
X146092075Y-90485007D02*
G01*
X146058000Y-90612174D01*
X146058000Y-90743826D01*
X146092075Y-90870993D01*
X146124988Y-90928000D01*
X144451012Y-90928000D01*
X144483925Y-90870993D01*
X144518000Y-90743826D01*
X144518000Y-90612174D01*
X144483925Y-90485007D01*
X144451012Y-90428000D01*
X146124988Y-90428000D01*
X146092075Y-90485007D01*
G37*
%TD.AperFunction*%
%TA.AperFunction,Conductor*%
G36*
X122502788Y-85557763D02*
G01*
X122583570Y-85611739D01*
X122614535Y-85649471D01*
X122666861Y-85727782D01*
X122806218Y-85867139D01*
X122806221Y-85867141D01*
X123443885Y-86504805D01*
X123461865Y-86524845D01*
X123464552Y-86528187D01*
X123464555Y-86528190D01*
X123472849Y-86535137D01*
X123489033Y-86549953D01*
X123682858Y-86743778D01*
X123682861Y-86743782D01*
X123822218Y-86883139D01*
X123986086Y-86992632D01*
X124114834Y-87045961D01*
X124168164Y-87068051D01*
X124226997Y-87079753D01*
X124315925Y-87116381D01*
X124415751Y-87182508D01*
X124484723Y-87250933D01*
X124522259Y-87340544D01*
X124522646Y-87437698D01*
X124485824Y-87527605D01*
X124477577Y-87539309D01*
X124466647Y-87553909D01*
X124416403Y-87688621D01*
X124416401Y-87688628D01*
X124410000Y-87748167D01*
X124410000Y-88395999D01*
X124410001Y-88396000D01*
X125326988Y-88396000D01*
X125294075Y-88453007D01*
X125260000Y-88580174D01*
X125260000Y-88711826D01*
X125294075Y-88838993D01*
X125326988Y-88896000D01*
X124410001Y-88896000D01*
X124410000Y-88896001D01*
X124410000Y-89543832D01*
X124416401Y-89603371D01*
X124416404Y-89603384D01*
X124447654Y-89687170D01*
X124463194Y-89783074D01*
X124440850Y-89877625D01*
X124384024Y-89956427D01*
X124311895Y-90003283D01*
X123930659Y-90165599D01*
X123835561Y-90185488D01*
X123833117Y-90185500D01*
X122837459Y-90185500D01*
X122805389Y-90191878D01*
X122805386Y-90191878D01*
X122644168Y-90223946D01*
X122644163Y-90223948D01*
X122553124Y-90261657D01*
X122553125Y-90261658D01*
X122502789Y-90282508D01*
X122407501Y-90301462D01*
X122312212Y-90282508D01*
X122231431Y-90228532D01*
X122177454Y-90147751D01*
X122158500Y-90052463D01*
X122158500Y-85787809D01*
X122177454Y-85692521D01*
X122231430Y-85611739D01*
X122312212Y-85557763D01*
X122407500Y-85538809D01*
X122502788Y-85557763D01*
G37*
%TD.AperFunction*%
%TA.AperFunction,Conductor*%
G36*
X146092075Y-83881007D02*
G01*
X146058000Y-84008174D01*
X146058000Y-84139826D01*
X146092075Y-84266993D01*
X146124988Y-84324000D01*
X144451012Y-84324000D01*
X144483925Y-84266993D01*
X144518000Y-84139826D01*
X144518000Y-84008174D01*
X144483925Y-83881007D01*
X144451012Y-83824000D01*
X146124988Y-83824000D01*
X146092075Y-83881007D01*
G37*
%TD.AperFunction*%
%TA.AperFunction,Conductor*%
G36*
X148163271Y-64265454D02*
G01*
X148244053Y-64319430D01*
X148298029Y-64400212D01*
X148316983Y-64495500D01*
X148298029Y-64590788D01*
X148260781Y-64646533D01*
X148263483Y-64648556D01*
X148166646Y-64777912D01*
X148116403Y-64912621D01*
X148116401Y-64912628D01*
X148110000Y-64972167D01*
X148110000Y-65619999D01*
X148110001Y-65620000D01*
X149026988Y-65620000D01*
X148994075Y-65677007D01*
X148960000Y-65804174D01*
X148960000Y-65935826D01*
X148994075Y-66062993D01*
X149026988Y-66120000D01*
X148110001Y-66120000D01*
X148110000Y-66120001D01*
X148110000Y-66767832D01*
X148116401Y-66827371D01*
X148116403Y-66827378D01*
X148166646Y-66962087D01*
X148252810Y-67077187D01*
X148252812Y-67077189D01*
X148367912Y-67163353D01*
X148502621Y-67213596D01*
X148502628Y-67213598D01*
X148562167Y-67219999D01*
X148562175Y-67220000D01*
X149209999Y-67220000D01*
X149210000Y-67219999D01*
X149210000Y-66303012D01*
X149267007Y-66335925D01*
X149394174Y-66370000D01*
X149525826Y-66370000D01*
X149652993Y-66335925D01*
X149710000Y-66303012D01*
X149710000Y-67219999D01*
X149710001Y-67220000D01*
X150357825Y-67220000D01*
X150357832Y-67219999D01*
X150417371Y-67213598D01*
X150417379Y-67213596D01*
X150501167Y-67182345D01*
X150597071Y-67166804D01*
X150691622Y-67189146D01*
X150770426Y-67245971D01*
X150817285Y-67318104D01*
X150979600Y-67699340D01*
X150999488Y-67794437D01*
X150999500Y-67796881D01*
X150999500Y-68113171D01*
X150998856Y-68131067D01*
X150998042Y-68142359D01*
X150998213Y-68148874D01*
X150999500Y-68169532D01*
X150999500Y-68532545D01*
X151037947Y-68725830D01*
X151037949Y-68725835D01*
X151113365Y-68907908D01*
X151113367Y-68907913D01*
X151164573Y-68984548D01*
X151199600Y-69064522D01*
X151315400Y-69544818D01*
X151321567Y-69583629D01*
X151322316Y-69593148D01*
X151322317Y-69593151D01*
X151381126Y-69838111D01*
X151394418Y-69870201D01*
X151400343Y-69886000D01*
X151405658Y-69901779D01*
X151405660Y-69901783D01*
X151405664Y-69901793D01*
X151416089Y-69923503D01*
X151421674Y-69936001D01*
X151477535Y-70070862D01*
X151477537Y-70070864D01*
X151609158Y-70285652D01*
X151609160Y-70285654D01*
X151609163Y-70285657D01*
X151609164Y-70285659D01*
X151772776Y-70477224D01*
X151964341Y-70640836D01*
X151964345Y-70640839D01*
X151964347Y-70640841D01*
X152126480Y-70740195D01*
X152179141Y-70772466D01*
X152411889Y-70868873D01*
X152656852Y-70927683D01*
X152728608Y-70933330D01*
X152907995Y-70947449D01*
X152908000Y-70947449D01*
X152908005Y-70947449D01*
X153064967Y-70935095D01*
X153159148Y-70927683D01*
X153404111Y-70868873D01*
X153636859Y-70772466D01*
X153810677Y-70665950D01*
X153851652Y-70640841D01*
X153851654Y-70640839D01*
X153851653Y-70640839D01*
X153851659Y-70640836D01*
X154043224Y-70477224D01*
X154206836Y-70285659D01*
X154206839Y-70285653D01*
X154206841Y-70285652D01*
X154298798Y-70135591D01*
X154338466Y-70070859D01*
X154434873Y-69838111D01*
X154447686Y-69784737D01*
X154488360Y-69696509D01*
X154559703Y-69630559D01*
X154650853Y-69596932D01*
X154747933Y-69600746D01*
X154836163Y-69641420D01*
X154865876Y-69666796D01*
X163264570Y-78065490D01*
X163318546Y-78146272D01*
X163337500Y-78241560D01*
X163337500Y-82643164D01*
X163318546Y-82738452D01*
X163264570Y-82819234D01*
X163250214Y-82832504D01*
X163229714Y-82850013D01*
X163144948Y-82897485D01*
X163048466Y-82908906D01*
X162954959Y-82882535D01*
X162906286Y-82850013D01*
X162885786Y-82832504D01*
X162825638Y-82756205D01*
X162799267Y-82662698D01*
X162798500Y-82643164D01*
X162798500Y-81181459D01*
X162787242Y-81124861D01*
X162778120Y-81079000D01*
X162760052Y-80988165D01*
X162719895Y-80891219D01*
X162684632Y-80806086D01*
X162575240Y-80642369D01*
X162575140Y-80642219D01*
X160797140Y-78864220D01*
X160797139Y-78864218D01*
X160657782Y-78724861D01*
X160493914Y-78615368D01*
X160481483Y-78610219D01*
X160349285Y-78555461D01*
X160311836Y-78539949D01*
X160215188Y-78520724D01*
X160118541Y-78501500D01*
X160118538Y-78501500D01*
X154730899Y-78501500D01*
X154635611Y-78482546D01*
X154635130Y-78482346D01*
X154568443Y-78454560D01*
X153534753Y-78023857D01*
X153528537Y-78021864D01*
X153487050Y-78008564D01*
X153467783Y-78001499D01*
X153404119Y-77975130D01*
X153404108Y-77975126D01*
X153159145Y-77916316D01*
X152908005Y-77896551D01*
X152907995Y-77896551D01*
X152656854Y-77916316D01*
X152411884Y-77975128D01*
X152337383Y-78005987D01*
X152311536Y-78015062D01*
X152281234Y-78023861D01*
X151180870Y-78482346D01*
X151085622Y-78501499D01*
X151085101Y-78501500D01*
X150885560Y-78501500D01*
X150790272Y-78482546D01*
X150709491Y-78428570D01*
X150568347Y-78287427D01*
X150514370Y-78206646D01*
X150495416Y-78111358D01*
X150505933Y-78039756D01*
X150718313Y-77332453D01*
X150719116Y-77329067D01*
X150729614Y-77295534D01*
X150731025Y-77291936D01*
X150751334Y-77240195D01*
X150811383Y-76977103D01*
X150831549Y-76708000D01*
X150811383Y-76438897D01*
X150772352Y-76267890D01*
X150751336Y-76175812D01*
X150751334Y-76175806D01*
X150751334Y-76175805D01*
X150698860Y-76042106D01*
X150693433Y-76026829D01*
X150680185Y-75985274D01*
X150332292Y-75208000D01*
X150048226Y-74573329D01*
X150026599Y-74478612D01*
X150026500Y-74471606D01*
X150026500Y-72444392D01*
X150045454Y-72349104D01*
X150048226Y-72342669D01*
X150157661Y-72098165D01*
X150680185Y-70930725D01*
X150684947Y-70919872D01*
X150685073Y-70919579D01*
X150703400Y-70863477D01*
X150708292Y-70849859D01*
X150751334Y-70740195D01*
X150759674Y-70703658D01*
X150781382Y-70608546D01*
X150811383Y-70477103D01*
X150831549Y-70208000D01*
X150811383Y-69938897D01*
X150779464Y-69799054D01*
X150751336Y-69675812D01*
X150751334Y-69675809D01*
X150751334Y-69675805D01*
X150652743Y-69424602D01*
X150517815Y-69190898D01*
X150517813Y-69190895D01*
X150517811Y-69190892D01*
X150349562Y-68979916D01*
X150151738Y-68796362D01*
X149928778Y-68644350D01*
X149928773Y-68644348D01*
X149685649Y-68527265D01*
X149685644Y-68527263D01*
X149685641Y-68527262D01*
X149427772Y-68447720D01*
X149160929Y-68407500D01*
X148891071Y-68407500D01*
X148690938Y-68437665D01*
X148624227Y-68447720D01*
X148366353Y-68527264D01*
X148123227Y-68644348D01*
X147900257Y-68796366D01*
X147702437Y-68979916D01*
X147534189Y-69190892D01*
X147534188Y-69190892D01*
X147399257Y-69424601D01*
X147399256Y-69424604D01*
X147300667Y-69675801D01*
X147300663Y-69675812D01*
X147240616Y-69938899D01*
X147220451Y-70208000D01*
X147240616Y-70477100D01*
X147300664Y-70740190D01*
X147353127Y-70873864D01*
X147358572Y-70889193D01*
X147371814Y-70930727D01*
X148003774Y-72342670D01*
X148025401Y-72437387D01*
X148025500Y-72444393D01*
X148025500Y-74471605D01*
X148006546Y-74566893D01*
X148003774Y-74573328D01*
X147371810Y-75985281D01*
X147366010Y-75998558D01*
X147365923Y-75998762D01*
X147365922Y-75998764D01*
X147347876Y-76054297D01*
X147342854Y-76068311D01*
X147300664Y-76175809D01*
X147240616Y-76438899D01*
X147220451Y-76708000D01*
X147240616Y-76977100D01*
X147300663Y-77240187D01*
X147300666Y-77240195D01*
X147399257Y-77491398D01*
X147534185Y-77725102D01*
X147534189Y-77725107D01*
X147687197Y-77916973D01*
X147731789Y-78003290D01*
X147739955Y-78100101D01*
X147710452Y-78192668D01*
X147647770Y-78266898D01*
X147561453Y-78311490D01*
X147464642Y-78319656D01*
X147397228Y-78302266D01*
X147395374Y-78301498D01*
X147395370Y-78301495D01*
X147357840Y-78285950D01*
X147357833Y-78285948D01*
X147220049Y-78258540D01*
X147220042Y-78258540D01*
X147164541Y-78247500D01*
X147164539Y-78247500D01*
X146217053Y-78247500D01*
X146121765Y-78228546D01*
X146040983Y-78174570D01*
X145987007Y-78093788D01*
X145968053Y-77998500D01*
X145983752Y-77911485D01*
X146019596Y-77815381D01*
X146019598Y-77815371D01*
X146025999Y-77755832D01*
X146026000Y-77755825D01*
X146026000Y-76958001D01*
X146025999Y-76958000D01*
X145016748Y-76958000D01*
X145038518Y-76920292D01*
X145076000Y-76780409D01*
X145076000Y-76635591D01*
X145038518Y-76495708D01*
X145016748Y-76458000D01*
X146025999Y-76458000D01*
X146026000Y-76457999D01*
X146026000Y-75660175D01*
X146025999Y-75660167D01*
X146019598Y-75600628D01*
X146019596Y-75600621D01*
X145969353Y-75465912D01*
X145883189Y-75350812D01*
X145883187Y-75350810D01*
X145768087Y-75264646D01*
X145633378Y-75214403D01*
X145633371Y-75214401D01*
X145573832Y-75208000D01*
X144776001Y-75208000D01*
X144776000Y-75208001D01*
X144776000Y-76217252D01*
X144738292Y-76195482D01*
X144598409Y-76158000D01*
X144453591Y-76158000D01*
X144313708Y-76195482D01*
X144276000Y-76217252D01*
X144276000Y-75208001D01*
X144275999Y-75208000D01*
X143478167Y-75208000D01*
X143418628Y-75214401D01*
X143418621Y-75214403D01*
X143283912Y-75264646D01*
X143168812Y-75350810D01*
X143168810Y-75350812D01*
X143082646Y-75465912D01*
X143032403Y-75600621D01*
X143032401Y-75600628D01*
X143026000Y-75660167D01*
X143026000Y-76457999D01*
X143026001Y-76458000D01*
X144035252Y-76458000D01*
X144013482Y-76495708D01*
X143976000Y-76635591D01*
X143976000Y-76780409D01*
X144013482Y-76920292D01*
X144035252Y-76958000D01*
X143026001Y-76958000D01*
X143026000Y-76958001D01*
X143026000Y-77755832D01*
X143032401Y-77815371D01*
X143032403Y-77815381D01*
X143068248Y-77911485D01*
X143083788Y-78007389D01*
X143061445Y-78101940D01*
X143004619Y-78180743D01*
X142921962Y-78231801D01*
X142834947Y-78247500D01*
X136915561Y-78247500D01*
X136820273Y-78228546D01*
X136739491Y-78174570D01*
X129820752Y-71255832D01*
X143026000Y-71255832D01*
X143032401Y-71315371D01*
X143032403Y-71315378D01*
X143082646Y-71450087D01*
X143168810Y-71565187D01*
X143168812Y-71565189D01*
X143283912Y-71651353D01*
X143418621Y-71701596D01*
X143418628Y-71701598D01*
X143478167Y-71707999D01*
X143478175Y-71708000D01*
X144275999Y-71708000D01*
X144276000Y-71707999D01*
X144276000Y-70698747D01*
X144313708Y-70720518D01*
X144453591Y-70758000D01*
X144598409Y-70758000D01*
X144738292Y-70720518D01*
X144776000Y-70698747D01*
X144776000Y-71707999D01*
X144776001Y-71708000D01*
X145573825Y-71708000D01*
X145573832Y-71707999D01*
X145633371Y-71701598D01*
X145633378Y-71701596D01*
X145768087Y-71651353D01*
X145883187Y-71565189D01*
X145883189Y-71565187D01*
X145969353Y-71450087D01*
X146019596Y-71315378D01*
X146019598Y-71315371D01*
X146025999Y-71255832D01*
X146026000Y-71255825D01*
X146026000Y-70458001D01*
X146025999Y-70458000D01*
X145016748Y-70458000D01*
X145038518Y-70420292D01*
X145076000Y-70280409D01*
X145076000Y-70135591D01*
X145038518Y-69995708D01*
X145016748Y-69958000D01*
X146025999Y-69958000D01*
X146026000Y-69957999D01*
X146026000Y-69160175D01*
X146025999Y-69160167D01*
X146019598Y-69100628D01*
X146019596Y-69100621D01*
X145969353Y-68965912D01*
X145883189Y-68850812D01*
X145883187Y-68850810D01*
X145768087Y-68764646D01*
X145633378Y-68714403D01*
X145633371Y-68714401D01*
X145573832Y-68708000D01*
X144776001Y-68708000D01*
X144776000Y-68708001D01*
X144776000Y-69717252D01*
X144738292Y-69695482D01*
X144598409Y-69658000D01*
X144453591Y-69658000D01*
X144313708Y-69695482D01*
X144276000Y-69717252D01*
X144276000Y-68708001D01*
X144275999Y-68708000D01*
X143478167Y-68708000D01*
X143418628Y-68714401D01*
X143418621Y-68714403D01*
X143283912Y-68764646D01*
X143168812Y-68850810D01*
X143168810Y-68850812D01*
X143082646Y-68965912D01*
X143032403Y-69100621D01*
X143032401Y-69100628D01*
X143026000Y-69160167D01*
X143026000Y-69957999D01*
X143026001Y-69958000D01*
X144035252Y-69958000D01*
X144013482Y-69995708D01*
X143976000Y-70135591D01*
X143976000Y-70280409D01*
X144013482Y-70420292D01*
X144035252Y-70458000D01*
X143026001Y-70458000D01*
X143026000Y-70458001D01*
X143026000Y-71255832D01*
X129820752Y-71255832D01*
X129555140Y-70990220D01*
X129555139Y-70990218D01*
X129415782Y-70850861D01*
X129414255Y-70849841D01*
X129251914Y-70741368D01*
X129251909Y-70741365D01*
X129160875Y-70703658D01*
X129123165Y-70688038D01*
X129069836Y-70665949D01*
X128943585Y-70640836D01*
X128921237Y-70636390D01*
X128876543Y-70627500D01*
X128876541Y-70627500D01*
X124936559Y-70627500D01*
X124841271Y-70608546D01*
X124760489Y-70554570D01*
X124706513Y-70473788D01*
X124687559Y-70378500D01*
X124706513Y-70283212D01*
X124760489Y-70202430D01*
X127496815Y-67466105D01*
X130643490Y-64319430D01*
X130724272Y-64265454D01*
X130819560Y-64246500D01*
X148067983Y-64246500D01*
X148163271Y-64265454D01*
G37*
%TD.AperFunction*%
%TD*%
%TA.AperFunction,Conductor*%
%TO.N,Net-(J11-Pin_1)*%
G36*
X184251059Y-146493382D02*
G01*
X184251441Y-146493548D01*
X185404797Y-147020724D01*
X185408205Y-147023092D01*
X185958909Y-147573796D01*
X185962336Y-147582069D01*
X185958909Y-147590342D01*
X185954260Y-147593194D01*
X184250695Y-148148143D01*
X184241767Y-148147447D01*
X184236267Y-148141507D01*
X183897154Y-147325189D01*
X183897146Y-147316238D01*
X184235771Y-146499705D01*
X184242104Y-146493378D01*
X184251059Y-146493382D01*
G37*
%TD.AperFunction*%
%TD*%
%TA.AperFunction,Conductor*%
%TO.N,/PA5*%
G36*
X159624489Y-65870865D02*
G01*
X160394398Y-66190752D01*
X160400723Y-66197091D01*
X160400714Y-66206046D01*
X160400674Y-66206140D01*
X159823030Y-67562883D01*
X159816636Y-67569153D01*
X159812265Y-67570000D01*
X159427735Y-67570000D01*
X159419462Y-67566573D01*
X159416970Y-67562883D01*
X158839325Y-66206140D01*
X158839237Y-66197186D01*
X158845507Y-66190792D01*
X158845540Y-66190777D01*
X159615511Y-65870864D01*
X159624466Y-65870856D01*
X159624489Y-65870865D01*
G37*
%TD.AperFunction*%
%TD*%
%TA.AperFunction,Conductor*%
%TO.N,/I2C_SDA*%
G36*
X128978538Y-95839427D02*
G01*
X128981030Y-95843117D01*
X129558674Y-97199859D01*
X129558762Y-97208813D01*
X129552492Y-97215207D01*
X129552398Y-97215247D01*
X128782489Y-97535134D01*
X128773534Y-97535143D01*
X128773511Y-97535134D01*
X128003601Y-97215247D01*
X127997276Y-97208908D01*
X127997284Y-97199954D01*
X128574970Y-95843117D01*
X128581364Y-95836847D01*
X128585735Y-95836000D01*
X128970265Y-95836000D01*
X128978538Y-95839427D01*
G37*
%TD.AperFunction*%
%TD*%
%TA.AperFunction,Conductor*%
%TO.N,Net-(J11-Pin_1)*%
G36*
X190164948Y-140781884D02*
G01*
X190998766Y-141469100D01*
X191002971Y-141477006D01*
X191000354Y-141485569D01*
X190999598Y-141486401D01*
X190164441Y-142321558D01*
X190156168Y-142324985D01*
X190150176Y-142323334D01*
X189718037Y-142065643D01*
X189715756Y-142063867D01*
X189160842Y-141508953D01*
X189157415Y-141500680D01*
X189160842Y-141492407D01*
X189162274Y-141491189D01*
X190150687Y-140781409D01*
X190159402Y-140779368D01*
X190164948Y-140781884D01*
G37*
%TD.AperFunction*%
%TD*%
%TA.AperFunction,Conductor*%
%TO.N,/TC1*%
G36*
X154861538Y-121518427D02*
G01*
X154864030Y-121522117D01*
X155441674Y-122878859D01*
X155441762Y-122887813D01*
X155435492Y-122894207D01*
X155435398Y-122894247D01*
X154665489Y-123214134D01*
X154656534Y-123214143D01*
X154656511Y-123214134D01*
X153886601Y-122894247D01*
X153880276Y-122887908D01*
X153880284Y-122878954D01*
X154457970Y-121522117D01*
X154464364Y-121515847D01*
X154468735Y-121515000D01*
X154853265Y-121515000D01*
X154861538Y-121518427D01*
G37*
%TD.AperFunction*%
%TD*%
%TA.AperFunction,Conductor*%
%TO.N,/VCC_BAT*%
G36*
X162285484Y-123215863D02*
G01*
X163056722Y-123536302D01*
X163063047Y-123542641D01*
X163063499Y-123550265D01*
X162683394Y-124906458D01*
X162677861Y-124913499D01*
X162672128Y-124915000D01*
X161889872Y-124915000D01*
X161881599Y-124911573D01*
X161878606Y-124906458D01*
X161498500Y-123550265D01*
X161499567Y-123541374D01*
X161505275Y-123536303D01*
X162276511Y-123215864D01*
X162285466Y-123215856D01*
X162285484Y-123215863D01*
G37*
%TD.AperFunction*%
%TD*%
%TA.AperFunction,Conductor*%
%TO.N,Net-(J13-Pin_1)*%
G36*
X177903566Y-147327577D02*
G01*
X177903877Y-147327877D01*
X178788291Y-148212291D01*
X178791718Y-148220564D01*
X178788854Y-148228233D01*
X178306390Y-148784126D01*
X178305827Y-148784730D01*
X177751008Y-149339549D01*
X177742735Y-149342976D01*
X177734462Y-149339549D01*
X177732716Y-149337319D01*
X177377153Y-148747785D01*
X177063383Y-148227545D01*
X177062046Y-148218691D01*
X177064828Y-148213544D01*
X177887033Y-147328186D01*
X177895172Y-147324458D01*
X177903566Y-147327577D01*
G37*
%TD.AperFunction*%
%TD*%
%TA.AperFunction,Conductor*%
%TO.N,/GND_BAT*%
G36*
X159745484Y-123215863D02*
G01*
X160516722Y-123536302D01*
X160523047Y-123542641D01*
X160523499Y-123550265D01*
X160143394Y-124906458D01*
X160137861Y-124913499D01*
X160132128Y-124915000D01*
X159349872Y-124915000D01*
X159341599Y-124911573D01*
X159338606Y-124906458D01*
X158958500Y-123550265D01*
X158959567Y-123541374D01*
X158965275Y-123536303D01*
X159736511Y-123215864D01*
X159745466Y-123215856D01*
X159745484Y-123215863D01*
G37*
%TD.AperFunction*%
%TD*%
%TA.AperFunction,Conductor*%
%TO.N,/I2C_SCL*%
G36*
X154494699Y-99595994D02*
G01*
X154495290Y-99596259D01*
X155612526Y-100133976D01*
X155615725Y-100136245D01*
X155885291Y-100405811D01*
X155888718Y-100414084D01*
X155885291Y-100422357D01*
X155881916Y-100424709D01*
X154495184Y-101064015D01*
X154486237Y-101064367D01*
X154479661Y-101058288D01*
X154479494Y-101057908D01*
X154179157Y-100335192D01*
X154179146Y-100326239D01*
X154479409Y-99602317D01*
X154485744Y-99595989D01*
X154494699Y-99595994D01*
G37*
%TD.AperFunction*%
%TD*%
%TA.AperFunction,Conductor*%
%TO.N,/3v3*%
G36*
X144218473Y-98733427D02*
G01*
X144221000Y-98737200D01*
X144752599Y-100013043D01*
X144752618Y-100021998D01*
X144746299Y-100028343D01*
X144746289Y-100028347D01*
X144022490Y-100329134D01*
X144013536Y-100329144D01*
X143289709Y-100028346D01*
X143283385Y-100022008D01*
X143283396Y-100013053D01*
X143283400Y-100013043D01*
X143815000Y-98737200D01*
X143821345Y-98730881D01*
X143825800Y-98730000D01*
X144210200Y-98730000D01*
X144218473Y-98733427D01*
G37*
%TD.AperFunction*%
%TD*%
%TA.AperFunction,Conductor*%
%TO.N,/PA4*%
G36*
X162164489Y-65870865D02*
G01*
X162934398Y-66190752D01*
X162940723Y-66197091D01*
X162940714Y-66206046D01*
X162940674Y-66206140D01*
X162363030Y-67562883D01*
X162356636Y-67569153D01*
X162352265Y-67570000D01*
X161967735Y-67570000D01*
X161959462Y-67566573D01*
X161956970Y-67562883D01*
X161379325Y-66206140D01*
X161379237Y-66197186D01*
X161385507Y-66190792D01*
X161385540Y-66190777D01*
X162155511Y-65870864D01*
X162164466Y-65870856D01*
X162164489Y-65870865D01*
G37*
%TD.AperFunction*%
%TD*%
%TA.AperFunction,Conductor*%
%TO.N,Net-(U2-GPIO0)*%
G36*
X127570699Y-132615994D02*
G01*
X127571290Y-132616259D01*
X128688526Y-133153976D01*
X128691725Y-133156245D01*
X128961291Y-133425811D01*
X128964718Y-133434084D01*
X128961291Y-133442357D01*
X128957916Y-133444709D01*
X127571184Y-134084015D01*
X127562237Y-134084367D01*
X127555661Y-134078288D01*
X127555494Y-134077908D01*
X127255157Y-133355192D01*
X127255146Y-133346239D01*
X127555409Y-132622317D01*
X127561744Y-132615989D01*
X127570699Y-132615994D01*
G37*
%TD.AperFunction*%
%TD*%
%TA.AperFunction,Conductor*%
%TO.N,Net-(D4-A)*%
G36*
X127570946Y-142775396D02*
G01*
X127570956Y-142775400D01*
X128846800Y-143307000D01*
X128853119Y-143313345D01*
X128854000Y-143317800D01*
X128854000Y-143702199D01*
X128850573Y-143710472D01*
X128846800Y-143712999D01*
X127570956Y-144244599D01*
X127562001Y-144244618D01*
X127555657Y-144238300D01*
X127254864Y-143514487D01*
X127254854Y-143505538D01*
X127555653Y-142781708D01*
X127561991Y-142775385D01*
X127570946Y-142775396D01*
G37*
%TD.AperFunction*%
%TD*%
%TA.AperFunction,Conductor*%
%TO.N,/RESET*%
G36*
X127901363Y-109824905D02*
G01*
X127901638Y-109825023D01*
X129501081Y-110540903D01*
X129507231Y-110547410D01*
X129508000Y-110551581D01*
X129508000Y-110936418D01*
X129504573Y-110944691D01*
X129501080Y-110947097D01*
X127901656Y-111662968D01*
X127892705Y-111663220D01*
X127886197Y-111657069D01*
X127886087Y-111656814D01*
X127508862Y-110748485D01*
X127508854Y-110739535D01*
X127886072Y-109831221D01*
X127892409Y-109824896D01*
X127901363Y-109824905D01*
G37*
%TD.AperFunction*%
%TD*%
%TA.AperFunction,Conductor*%
%TO.N,/VCC_BAT*%
G36*
X185317786Y-144312863D02*
G01*
X185322685Y-144315793D01*
X185874501Y-144867609D01*
X185877928Y-144875882D01*
X185874501Y-144884155D01*
X185871197Y-144886474D01*
X184251494Y-145646294D01*
X184242549Y-145646706D01*
X184235933Y-145640671D01*
X184235720Y-145640190D01*
X184197346Y-145547815D01*
X183897154Y-144825189D01*
X183897146Y-144816238D01*
X184236363Y-143998277D01*
X184242697Y-143991949D01*
X184250542Y-143991557D01*
X185317786Y-144312863D01*
G37*
%TD.AperFunction*%
%TD*%
%TA.AperFunction,Conductor*%
%TO.N,/RESET*%
G36*
X128420776Y-104622071D02*
G01*
X128427103Y-104628409D01*
X128427094Y-104637363D01*
X128426968Y-104637656D01*
X127711097Y-106237080D01*
X127704589Y-106243231D01*
X127700418Y-106244000D01*
X127315582Y-106244000D01*
X127307309Y-106240573D01*
X127304903Y-106237080D01*
X126589031Y-104637656D01*
X126588779Y-104628705D01*
X126594930Y-104622197D01*
X126595156Y-104622099D01*
X127503514Y-104244862D01*
X127512464Y-104244854D01*
X128420776Y-104622071D01*
G37*
%TD.AperFunction*%
%TD*%
%TA.AperFunction,Conductor*%
%TO.N,/PB0*%
G36*
X152606343Y-78773700D02*
G01*
X152606347Y-78773710D01*
X152907134Y-79497510D01*
X152907144Y-79506463D01*
X152907135Y-79506485D01*
X152907134Y-79506490D01*
X152606347Y-80230289D01*
X152600008Y-80236614D01*
X152591053Y-80236603D01*
X152591043Y-80236599D01*
X151315200Y-79704999D01*
X151308881Y-79698654D01*
X151308000Y-79694199D01*
X151308000Y-79309800D01*
X151311427Y-79301527D01*
X151315200Y-79299000D01*
X152591043Y-78767400D01*
X152599998Y-78767381D01*
X152606343Y-78773700D01*
G37*
%TD.AperFunction*%
%TD*%
%TA.AperFunction,Conductor*%
%TO.N,/3v3*%
G36*
X144746290Y-95805653D02*
G01*
X144752614Y-95811991D01*
X144752603Y-95820946D01*
X144752599Y-95820956D01*
X144221000Y-97096800D01*
X144214655Y-97103119D01*
X144210200Y-97104000D01*
X143825800Y-97104000D01*
X143817527Y-97100573D01*
X143815000Y-97096800D01*
X143283400Y-95820956D01*
X143283381Y-95812001D01*
X143289697Y-95805658D01*
X144013512Y-95504864D01*
X144022461Y-95504854D01*
X144746290Y-95805653D01*
G37*
%TD.AperFunction*%
%TD*%
%TA.AperFunction,Conductor*%
%TO.N,/3v3*%
G36*
X152202393Y-68119250D02*
G01*
X153204142Y-68598113D01*
X153210128Y-68604773D01*
X153209908Y-68613141D01*
X152909856Y-69338510D01*
X152903527Y-69344845D01*
X152903509Y-69344853D01*
X152181530Y-69642930D01*
X152172575Y-69642919D01*
X152166250Y-69636580D01*
X152165693Y-69634866D01*
X151803482Y-68132548D01*
X151804874Y-68123702D01*
X151812114Y-68118432D01*
X151814856Y-68118106D01*
X152197347Y-68118106D01*
X152202393Y-68119250D01*
G37*
%TD.AperFunction*%
%TD*%
%TA.AperFunction,Conductor*%
%TO.N,/3v3*%
G36*
X143716343Y-94775700D02*
G01*
X143716347Y-94775710D01*
X144017134Y-95499510D01*
X144017144Y-95508463D01*
X144017135Y-95508485D01*
X144017134Y-95508490D01*
X143716347Y-96232289D01*
X143710008Y-96238614D01*
X143701053Y-96238603D01*
X143701043Y-96238599D01*
X142425200Y-95706999D01*
X142418881Y-95700654D01*
X142418000Y-95696199D01*
X142418000Y-95311800D01*
X142421427Y-95303527D01*
X142425200Y-95301000D01*
X143701043Y-94769400D01*
X143709998Y-94769381D01*
X143716343Y-94775700D01*
G37*
%TD.AperFunction*%
%TD*%
%TA.AperFunction,Conductor*%
%TO.N,/I2C_SDA*%
G36*
X126096045Y-82785284D02*
G01*
X127452884Y-83362970D01*
X127459153Y-83369363D01*
X127460000Y-83373734D01*
X127460000Y-83758265D01*
X127456573Y-83766538D01*
X127452883Y-83769030D01*
X126096140Y-84346674D01*
X126087186Y-84346762D01*
X126080792Y-84340492D01*
X126080752Y-84340398D01*
X125838883Y-83758265D01*
X125760864Y-83570488D01*
X125760856Y-83561534D01*
X125760865Y-83561511D01*
X125842097Y-83366000D01*
X126080753Y-82791599D01*
X126087091Y-82785276D01*
X126096045Y-82785284D01*
G37*
%TD.AperFunction*%
%TD*%
%TA.AperFunction,Conductor*%
%TO.N,/TC4*%
G36*
X164825489Y-123215865D02*
G01*
X165595398Y-123535752D01*
X165601723Y-123542091D01*
X165601714Y-123551046D01*
X165601674Y-123551140D01*
X165024030Y-124907883D01*
X165017636Y-124914153D01*
X165013265Y-124915000D01*
X164628735Y-124915000D01*
X164620462Y-124911573D01*
X164617970Y-124907883D01*
X164040325Y-123551140D01*
X164040237Y-123542186D01*
X164046507Y-123535792D01*
X164046540Y-123535777D01*
X164816511Y-123215864D01*
X164825466Y-123215856D01*
X164825489Y-123215865D01*
G37*
%TD.AperFunction*%
%TD*%
%TA.AperFunction,Conductor*%
%TO.N,/RESET*%
G36*
X136618290Y-94535653D02*
G01*
X136624614Y-94541991D01*
X136624603Y-94550946D01*
X136624599Y-94550956D01*
X136093000Y-95826800D01*
X136086655Y-95833119D01*
X136082200Y-95834000D01*
X135697800Y-95834000D01*
X135689527Y-95830573D01*
X135687000Y-95826800D01*
X135155400Y-94550956D01*
X135155381Y-94542001D01*
X135161697Y-94535658D01*
X135885512Y-94234864D01*
X135894461Y-94234854D01*
X136618290Y-94535653D01*
G37*
%TD.AperFunction*%
%TD*%
%TA.AperFunction,Conductor*%
%TO.N,/3v3*%
G36*
X121358538Y-95839427D02*
G01*
X121361030Y-95843117D01*
X121938674Y-97199859D01*
X121938762Y-97208813D01*
X121932492Y-97215207D01*
X121932398Y-97215247D01*
X121162489Y-97535134D01*
X121153534Y-97535143D01*
X121153511Y-97535134D01*
X120383601Y-97215247D01*
X120377276Y-97208908D01*
X120377284Y-97199954D01*
X120954970Y-95843117D01*
X120961364Y-95836847D01*
X120965735Y-95836000D01*
X121350265Y-95836000D01*
X121358538Y-95839427D01*
G37*
%TD.AperFunction*%
%TD*%
%TA.AperFunction,Conductor*%
%TO.N,/3v3*%
G36*
X136206946Y-83339396D02*
G01*
X136206956Y-83339400D01*
X137482800Y-83871000D01*
X137489119Y-83877345D01*
X137490000Y-83881800D01*
X137490000Y-84266199D01*
X137486573Y-84274472D01*
X137482800Y-84276999D01*
X136206956Y-84808599D01*
X136198001Y-84808618D01*
X136191657Y-84802300D01*
X135890864Y-84078487D01*
X135890854Y-84069538D01*
X136191653Y-83345708D01*
X136197991Y-83339385D01*
X136206946Y-83339396D01*
G37*
%TD.AperFunction*%
%TD*%
%TA.AperFunction,Conductor*%
%TO.N,/TC3*%
G36*
X167561538Y-121518427D02*
G01*
X167564030Y-121522117D01*
X168141674Y-122878859D01*
X168141762Y-122887813D01*
X168135492Y-122894207D01*
X168135398Y-122894247D01*
X167365489Y-123214134D01*
X167356534Y-123214143D01*
X167356511Y-123214134D01*
X166586601Y-122894247D01*
X166580276Y-122887908D01*
X166580284Y-122878954D01*
X167157970Y-121522117D01*
X167164364Y-121515847D01*
X167168735Y-121515000D01*
X167553265Y-121515000D01*
X167561538Y-121518427D01*
G37*
%TD.AperFunction*%
%TD*%
%TA.AperFunction,Conductor*%
%TO.N,/I2C_SCL*%
G36*
X126438538Y-95839427D02*
G01*
X126441030Y-95843117D01*
X127018674Y-97199859D01*
X127018762Y-97208813D01*
X127012492Y-97215207D01*
X127012398Y-97215247D01*
X126242489Y-97535134D01*
X126233534Y-97535143D01*
X126233511Y-97535134D01*
X125463601Y-97215247D01*
X125457276Y-97208908D01*
X125457284Y-97199954D01*
X126034970Y-95843117D01*
X126041364Y-95836847D01*
X126045735Y-95836000D01*
X126430265Y-95836000D01*
X126438538Y-95839427D01*
G37*
%TD.AperFunction*%
%TD*%
%TA.AperFunction,Conductor*%
%TO.N,/RESET*%
G36*
X127708691Y-108747427D02*
G01*
X127711097Y-108750920D01*
X128426968Y-110350343D01*
X128427220Y-110359294D01*
X128421069Y-110365802D01*
X128420776Y-110365928D01*
X127512487Y-110743136D01*
X127503533Y-110743145D01*
X127503513Y-110743136D01*
X126595223Y-110365928D01*
X126588896Y-110359590D01*
X126588905Y-110350636D01*
X126589012Y-110350385D01*
X127304903Y-108750920D01*
X127311411Y-108744769D01*
X127315582Y-108744000D01*
X127700418Y-108744000D01*
X127708691Y-108747427D01*
G37*
%TD.AperFunction*%
%TD*%
%TA.AperFunction,Conductor*%
%TO.N,/GND_BAT*%
G36*
X179687625Y-144417517D02*
G01*
X179694583Y-144423154D01*
X179696000Y-144428735D01*
X179696000Y-145211264D01*
X179692573Y-145219537D01*
X179687625Y-145222482D01*
X178250506Y-145648500D01*
X178241600Y-145647565D01*
X178236376Y-145641770D01*
X177896864Y-144824488D01*
X177896855Y-144815534D01*
X177896864Y-144815512D01*
X178236377Y-143998227D01*
X178242715Y-143991903D01*
X178250504Y-143991499D01*
X179687625Y-144417517D01*
G37*
%TD.AperFunction*%
%TD*%
%TA.AperFunction,Conductor*%
%TO.N,Net-(J13-Pin_1)*%
G36*
X190171013Y-145608032D02*
G01*
X191003961Y-145794232D01*
X191011285Y-145799379D01*
X191011300Y-145799403D01*
X191011302Y-145799405D01*
X191540423Y-146637824D01*
X191541941Y-146646649D01*
X191538527Y-146652608D01*
X190610066Y-147522143D01*
X190601685Y-147525297D01*
X190593795Y-147521876D01*
X190039985Y-146968066D01*
X190036558Y-146959793D01*
X190036604Y-146958765D01*
X190156809Y-145618403D01*
X190160960Y-145610471D01*
X190169506Y-145607797D01*
X190171013Y-145608032D01*
G37*
%TD.AperFunction*%
%TD*%
%TA.AperFunction,Conductor*%
%TO.N,/I2C_SCL*%
G36*
X126096045Y-85325284D02*
G01*
X127452884Y-85902970D01*
X127459153Y-85909363D01*
X127460000Y-85913734D01*
X127460000Y-86298265D01*
X127456573Y-86306538D01*
X127452883Y-86309030D01*
X126096140Y-86886674D01*
X126087186Y-86886762D01*
X126080792Y-86880492D01*
X126080752Y-86880398D01*
X125838883Y-86298265D01*
X125760864Y-86110488D01*
X125760856Y-86101534D01*
X125760865Y-86101511D01*
X125842097Y-85906000D01*
X126080753Y-85331599D01*
X126087091Y-85325276D01*
X126096045Y-85325284D01*
G37*
%TD.AperFunction*%
%TD*%
D27*
X205740000Y-151892000D02*
X172974000Y-151892000D01*
X172974000Y-136906000D01*
X148844000Y-136906000D01*
X148844000Y-151892000D01*
X116078000Y-151892000D01*
X116078000Y-61870000D01*
X205740000Y-61870000D01*
X205740000Y-151892000D01*
M02*
