%TF.GenerationSoftware,KiCad,Pcbnew,8.0.0*%
%TF.CreationDate,2024-07-22T23:58:40-03:00*%
%TF.ProjectId,PCB_Micro,5043425f-4d69-4637-926f-2e6b69636164,rev?*%
%TF.SameCoordinates,Original*%
%TF.FileFunction,Soldermask,Bot*%
%TF.FilePolarity,Negative*%
%FSLAX46Y46*%
G04 Gerber Fmt 4.6, Leading zero omitted, Abs format (unit mm)*
G04 Created by KiCad (PCBNEW 8.0.0) date 2024-07-22 23:58:40*
%MOMM*%
%LPD*%
G01*
G04 APERTURE LIST*
G04 Aperture macros list*
%AMRoundRect*
0 Rectangle with rounded corners*
0 $1 Rounding radius*
0 $2 $3 $4 $5 $6 $7 $8 $9 X,Y pos of 4 corners*
0 Add a 4 corners polygon primitive as box body*
4,1,4,$2,$3,$4,$5,$6,$7,$8,$9,$2,$3,0*
0 Add four circle primitives for the rounded corners*
1,1,$1+$1,$2,$3*
1,1,$1+$1,$4,$5*
1,1,$1+$1,$6,$7*
1,1,$1+$1,$8,$9*
0 Add four rect primitives between the rounded corners*
20,1,$1+$1,$2,$3,$4,$5,0*
20,1,$1+$1,$4,$5,$6,$7,0*
20,1,$1+$1,$6,$7,$8,$9,0*
20,1,$1+$1,$8,$9,$2,$3,0*%
G04 Aperture macros list end*
%ADD10R,1.800000X1.800000*%
%ADD11C,1.800000*%
%ADD12C,1.600000*%
%ADD13O,1.600000X1.600000*%
%ADD14R,2.000000X1.905000*%
%ADD15O,2.000000X1.905000*%
%ADD16R,1.700000X1.700000*%
%ADD17O,1.700000X1.700000*%
%ADD18C,2.000000*%
%ADD19C,3.200000*%
%ADD20R,1.600000X1.600000*%
%ADD21RoundRect,0.102000X0.750000X-0.750000X0.750000X0.750000X-0.750000X0.750000X-0.750000X-0.750000X0*%
%ADD22C,1.704000*%
%ADD23C,1.700000*%
%ADD24R,2.000000X2.000000*%
%ADD25O,2.000000X2.000000*%
%TA.AperFunction,Profile*%
%ADD26C,0.100000*%
%TD*%
G04 APERTURE END LIST*
D10*
%TO.C,D4*%
X134112000Y-136647000D03*
D11*
X134112000Y-139187000D03*
%TD*%
D12*
%TO.C,R6*%
X152908000Y-69342000D03*
D13*
X152908000Y-79502000D03*
%TD*%
D14*
%TO.C,U3*%
X183388000Y-121412000D03*
D15*
X183388000Y-123952000D03*
X183388000Y-126492000D03*
%TD*%
D16*
%TO.C,J14*%
X144018000Y-84074000D03*
D17*
X146558000Y-84074000D03*
X149098000Y-84074000D03*
X151638000Y-84074000D03*
X154178000Y-84074000D03*
X156718000Y-84074000D03*
X159258000Y-84074000D03*
X161798000Y-84074000D03*
X164338000Y-84074000D03*
X166878000Y-84074000D03*
X169418000Y-84074000D03*
X171958000Y-84074000D03*
X174498000Y-84074000D03*
X177038000Y-84074000D03*
X179578000Y-84074000D03*
X182118000Y-84074000D03*
X184658000Y-84074000D03*
X187198000Y-84074000D03*
X189738000Y-84074000D03*
X192278000Y-84074000D03*
%TD*%
D16*
%TO.C,J4*%
X192278000Y-111882000D03*
D17*
X189738000Y-111882000D03*
X187198000Y-111882000D03*
X184658000Y-111882000D03*
X182118000Y-111882000D03*
X179578000Y-111882000D03*
X177038000Y-111882000D03*
X174498000Y-111882000D03*
X171958000Y-111882000D03*
X169418000Y-111882000D03*
X166878000Y-111882000D03*
X164338000Y-111882000D03*
X161798000Y-111882000D03*
X159258000Y-111882000D03*
X156718000Y-111882000D03*
X154178000Y-111882000D03*
X151638000Y-111882000D03*
X149098000Y-111882000D03*
X146558000Y-111882000D03*
X144018000Y-111882000D03*
%TD*%
D18*
%TO.C,J6*%
X191770000Y-136652000D03*
X201270000Y-136652000D03*
X201270000Y-121152000D03*
X191770000Y-121152000D03*
%TD*%
D12*
%TO.C,R5*%
X135890000Y-84074000D03*
D13*
X135890000Y-94234000D03*
%TD*%
D19*
%TO.C,H5*%
X142494000Y-135382000D03*
%TD*%
D16*
%TO.C,J1*%
X149460000Y-65870000D03*
D17*
X152000000Y-65870000D03*
X154540000Y-65870000D03*
X157080000Y-65870000D03*
X159620000Y-65870000D03*
X162160000Y-65870000D03*
X164700000Y-65870000D03*
X167240000Y-65870000D03*
X169780000Y-65870000D03*
X172320000Y-65870000D03*
%TD*%
D16*
%TO.C,J5*%
X190709000Y-74173000D03*
D17*
X188169000Y-74173000D03*
%TD*%
D10*
%TO.C,D3*%
X200411000Y-81529000D03*
D11*
X197871000Y-81529000D03*
%TD*%
D12*
%TO.C,C1*%
X134926000Y-104244000D03*
D20*
X132426000Y-104244000D03*
%TD*%
D19*
%TO.C,H6*%
X179324000Y-135382000D03*
%TD*%
D21*
%TO.C,U2*%
X141986000Y-126746000D03*
D22*
X141986000Y-124206000D03*
X141986000Y-121666000D03*
X141986000Y-119126000D03*
X144526000Y-126746000D03*
X144526000Y-124206000D03*
X144526000Y-121666000D03*
X144526000Y-119126000D03*
%TD*%
D23*
%TO.C,J2*%
X128778000Y-97536000D03*
D17*
X126238000Y-97536000D03*
D16*
X123698000Y-97536000D03*
D17*
X121158000Y-97536000D03*
%TD*%
D23*
%TO.C,J3*%
X167361000Y-123215000D03*
D17*
X164821000Y-123215000D03*
X162281000Y-123215000D03*
X159741000Y-123215000D03*
X157201000Y-123215000D03*
X154661000Y-123215000D03*
%TD*%
D24*
%TO.C,SW4*%
X144526000Y-76708000D03*
X144526000Y-70208000D03*
D18*
X149026000Y-76708000D03*
X149026000Y-70208000D03*
%TD*%
D10*
%TO.C,SW2*%
X177896000Y-147320000D03*
D11*
X177896000Y-144820000D03*
X177896000Y-142320000D03*
X183896000Y-147320000D03*
X183896000Y-144820000D03*
X183896000Y-142320000D03*
%TD*%
D12*
%TO.C,R3*%
X188468000Y-94864000D03*
D13*
X178308000Y-94864000D03*
%TD*%
D16*
%TO.C,J11*%
X191008000Y-141478000D03*
%TD*%
D12*
%TO.C,R2*%
X144018000Y-100330000D03*
D13*
X154178000Y-100330000D03*
%TD*%
D12*
%TO.C,C2*%
X161798000Y-95504000D03*
X164298000Y-95504000D03*
%TD*%
D24*
%TO.C,U1*%
X144018000Y-105918000D03*
D25*
X146558000Y-105918000D03*
X149098000Y-105918000D03*
X151638000Y-105918000D03*
X154178000Y-105918000D03*
X156718000Y-105918000D03*
X159258000Y-105918000D03*
X161798000Y-105918000D03*
X164338000Y-105918000D03*
X166878000Y-105918000D03*
X169418000Y-105918000D03*
X171958000Y-105918000D03*
X174498000Y-105918000D03*
X177038000Y-105918000D03*
X179578000Y-105918000D03*
X182118000Y-105918000D03*
X184658000Y-105918000D03*
X187198000Y-105918000D03*
X189738000Y-105918000D03*
X192278000Y-105918000D03*
X192278000Y-90678000D03*
X189738000Y-90678000D03*
X187198000Y-90678000D03*
X184658000Y-90678000D03*
X182118000Y-90678000D03*
X179578000Y-90678000D03*
X177038000Y-90678000D03*
X174498000Y-90678000D03*
X171958000Y-90678000D03*
X169418000Y-90678000D03*
X166878000Y-90678000D03*
X164338000Y-90678000D03*
X161798000Y-90678000D03*
X159258000Y-90678000D03*
X156718000Y-90678000D03*
X154178000Y-90678000D03*
X151638000Y-90678000D03*
X149098000Y-90678000D03*
X146558000Y-90678000D03*
X144018000Y-90678000D03*
%TD*%
D12*
%TO.C,R1*%
X144018000Y-95504000D03*
D13*
X154178000Y-95504000D03*
%TD*%
D23*
%TO.C,J12*%
X125760000Y-91186000D03*
D16*
X125760000Y-88646000D03*
D17*
X125760000Y-86106000D03*
X125760000Y-83566000D03*
X125760000Y-81026000D03*
X125760000Y-78486000D03*
X125760000Y-75946000D03*
X125760000Y-73406000D03*
%TD*%
D16*
%TO.C,J13*%
X191008000Y-145796000D03*
%TD*%
D24*
%TO.C,SW1*%
X123008000Y-110744000D03*
X123008000Y-104244000D03*
D18*
X127508000Y-110744000D03*
X127508000Y-104244000D03*
%TD*%
D12*
%TO.C,R4*%
X127254000Y-143510000D03*
D13*
X127254000Y-133350000D03*
%TD*%
D26*
X205740000Y-151892000D02*
X172974000Y-151892000D01*
X172974000Y-136906000D01*
X148844000Y-136906000D01*
X148844000Y-151892000D01*
X116078000Y-151892000D01*
X116078000Y-61870000D01*
X205740000Y-61870000D01*
X205740000Y-151892000D01*
M02*
